<svg xmlns="http://www.w3.org/2000/svg" width="248.853" height="96.43pt" viewBox="0 1 186.64 96.43"><defs><clipPath id="a"><path d="M0 0h186.64v96.43H0zm0 0"/></clipPath></defs><g clip-path="url(#a)"><path d="M186.645.004H0L80.488 90.48c7.059 7.934 18.61 7.934 25.668 0" fill="#81b3d2"/></g><path d="M43.242.727l49.524 58.347L142.09 1.078" fill="#22a9e0"/><path d="M122.023 17.336c-5.062.027-10.125.059-15.187.086 6-6.934 8.7-6.192 15.187-.086m-41.175 5.359h26.68c-1.985-1.234-6.708-7.058-9.31-4.894-.21.18-7.503-8.848-12.292-4.5-4.18 3.8-6.121-.496-10.86 2.511-5.398 3.57 3.121 5.676 5.782 6.883" fill="#fff"/><path d="M137.105 5.547v-3.75h3.208zM61.25 20.043l.14.129c.036-.04 3.583-3.871 9.215-7.649 5.188-3.48 13.235-7.613 22.157-7.566 8.898.043 17.062 4.195 22.343 7.668 5.649 3.71 9.286 7.457 9.446 7.625l-3.875 4.535c-6.91.95-11.864 6.078-18.602 4.957-3.394-.566-3.496-2.515-4.469-4.457-.746-1.492-1.937-1.3-3.488-1.91-1.441-.563-2.277-1.738-5.16-1.059-2.531.59-2.809 4.516-5.953 4.293-1.688-.12-1.809-2.5-4.246-5.539-6.301-7.574-12.156-6.523-16.246.473l30.25 35.937zM48.363 1.797v2.937l-2.472-2.937zm82.992 0h4.97v4.668l-4.97 5.82zm-6.25 17.648V1.797h5.465v11.406l-5.394 6.313a.588.588 0 00-.07-.07m-.782-16.005V18.68a64.016 64.016 0 00-5.476-4.598zm-6.414-.554v10.508a60.931 60.931 0 00-5.637-3.625zm-6.64-.203v6.53a51.357 51.357 0 00-4.81-2.269zm.78-.887h5.74l-5.74 7.008zm6.641 0h5.598l-5.598 10.875zm-13.55 0h5.945l-5.434 4.82c-.168-.066-.34-.125-.511-.191zm-.786.644v3.7a39.606 39.606 0 00-4.773-1.368zm-6.472.063v1.941a33.907 33.907 0 00-3.356-.39zM87.46 2.445l3.46 1.602a32.446 32.446 0 00-3.46.39zm-6.348-.004l4.723 2.305a38.477 38.477 0 00-4.723 1.348zm5.563 1.844l-5.09-2.488h5.09zm5.492-.523l-4.242-1.965h4.242zm.937-1.965h4.438l-4.438 2.055zm5.793 0h4.989l-4.989 2.441zM79.778 6.59L74.37 1.797h5.961v4.582l-.555.21m-5.574-3.894l4.766 4.223a50.07 50.07 0 00-4.766 2.293zm-6.64.2l5.605 6.898a55.637 55.637 0 00-3.098 1.934 58.621 58.621 0 00-2.507 1.78zm-6.418.55l5.523 10.742c-2.75 2.141-4.691 4.012-5.523 4.856zm5.632 9.242L61.18 1.797h5.597zm6.641-3.828L67.68 1.797h5.738zm-19.3 2.707l-4.973-5.902V1.797h4.972zm.78-9.77h5.461v17.192L54.9 12.5zM93.102.02H42.184v22.464l50.582 61.52.336-.422 50.75-60.394V.02" fill="#481213"/><path d="M88.746 70.922l4.02-6.5 4.004 6.5-4.004 6.512zm0 0" fill="#22a9e0"/><path d="M65.465 32.27c.512.617.89 1.285.805 2.117-.06.578-.934 1.55-.27 1.843.746-.945 1.496-1.886 2.242-2.832-.601-.152-5.363-5.847-5.441-6.472-1.055.578-2.11 1.156-3.16 1.734.164.66 1.293.004 1.855.047.828.059 1.422.559 1.953 1.152-1.73 1.45-5.93 5.016-6.375 5.09-.226.035-1.09-.601-1.101-.058-.004.261.851 1.015 1.015 1.21.742.883 1.485 1.77 2.23 2.653.618-.281-.113-.73.204-1.242.23-.375 4.902-4.266 6.043-5.242m-5.274-6.98c.442-.095.625.433.957-.056L58.7 22.316c-.37-.441-.84-.914-.707.02.09.629-6.113 5.664-6.492 5.82-.477.196-.758-.418-1.11.094.731.871 1.462 1.742 2.196 2.61.246.292.473.613.746.882.336.34.207-.672.223-.586-.09-.511.527-.949.855-1.226 1.547-1.364 5.399-4.59 5.781-4.64m-8.774-.919c-1.766.524-3.648-.164-4.203-2.039-.547-1.836.613-3.758 2.07-4.8 1.438-1.036 3.586-.973 4.371.835.348.801.16 1.707-.093 2.504-.16.504-.594 1 .054 1.29.863-1.099 1.723-2.192 2.582-3.29-1.054-.633-1.515-1.68-2.3-2.594-.88-1.07-2.063-2.078-3.481-2.285-2.871-.406-5.574 2.559-5.797 5.246-.133 1.457.375 2.848 1.246 4 .75.996 1.871 1.625 2.438 2.754.261.098 2.703-1.031 3.285-1.254-.05-.11-.09-.273-.172-.367-.758.227 0 0 0 0m39.301 36.41c-1.149-.77-4.024-4.687-4.57-5.34-.11-.132-.223-.261-.333-.39-.011-.016-.285.222-.246.191-.172.145.133.57-.05.863-.793 1.239-5.758 4.985-6.016 5.16-.555.387-1.164-.156-1.488.32.718.852 2.777 3.544 3.015 3.583.48.078.149-.816.211-1 .125-.371 2.633-2.45 3.551-3.211.336-.281.687.426.887.719.328.488.476 1 .297 1.57-.114.371-.715.922-.25 1.176l2.617-3.05c.25-.294-.567-.036-.473-.087-.367.192-.715.235-1.062-.027-.094-.074-1.09-1.082-.989-1.168.43-.363.957-.961 1.516-1.098.863-.215 1.582 1.516 1.707 2.13a3.454 3.454 0 01-.074 1.75c-.125.386-.489.694.02.929.71-.977 1.417-1.95 2.128-2.922a.712.712 0 01-.398-.098c-.125-.086.14.07 0 0m-10.688-8.883c-.648 1.508-2.199 3.063-3.73 3.668-1.82.715-3.102-.828-2.364-2.554.653-1.516 2.204-3.055 3.739-3.668 1.851-.735 3.066.847 2.355 2.554-.383.891.07-.168 0 0m.465 4.754c2.207-1.859 2.48-5.054.77-7.34-1.868-2.488-5.371-3.097-7.805-1.054-2.203 1.855-2.488 5.05-.758 7.328 1.992 2.621 5.2 2.914 7.793 1.066 1.156-.976-.098.067 0 0M74.05 42.043c.477.059.927.547 1.27.039l-2.226-2.637c-.598.27.047.551-.196.973-.242.426-2.558.781-3.175.89.222-.644.894-2.617 1.156-2.835.543-.446.883.433 1.285-.141-.918-1.086-1.828-2.168-2.746-3.254-.309-.367-.555-1.027-.977-.68.036-.03.004 1.473-.09 1.735-.085.234-.937 3.637-1.925 4.469-.496.414-2.239 1.933-2.703 2.097-.543.188-.825-.597-1.22-.039.829.988 1.661 1.973 2.49 2.957.124.149.6.863.769.895.52.093.058-.895.113-1.086.152-.434 2.5-2.719 3.496-2.86 1.461-.207 3.2-.703 4.68-.523.34.039-.352-.043 0 0" fill="#fff"/><path d="M67.793 22.879c-4.043-.168-2.352-3.953.394-4.809 2.61-.812 8.086 1.72 9.84 3.399-2.78.855-6.382.73-9.445.875-.227-3.121-.957-2.032-.789.535m9.5 12.547c-8.617-.07-2.79-13.32.144-12.52 3.372 1.074 2.993 12.621-.144 12.52m6.109-4.328c-.843 2.5-2.363 2.968-2.195-.07.195-3.505 2.48-2.66 4.93-4.005 2.039-1.117 3.14-5.214 6.64-2.765 1.563 1.094 3.352.18 3.852 1.836-.027-.086-4.543 10.304-2.031 10.304-4.961 0-2.774-5.921-.875-9.898-1.844.887-4.84 6.688-2.383 7.645-1.281 1.687-5.192 3.945-7.235 2.296-1.546-1.246-.687-3.324-.703-5.343m4.102 9.605c-3.488 1.043-8.121-1.207-2.508-2.34 3.48-.707 7.188.778 2.508 2.34.14-.043-.125.043 0 0m4.371-.14c-.734-1.66.563-3.637 2.68-2.2 1.847 1.25-.852 3.106-2.68 2.2M88.93 45.23c-2.41-.75-10.54-.562-5.22-2.765 1.642-.68 10.157.097 5.22 2.765m10.433 3.313c-1.437-1.227-2.89-1.297-4.23 0-1.793-3.293-8.317-2.191-11.367-2.652 1.64 4.027 14.867 4.78 15.597 2.652m-1.903 2.426c-3.151-.149-6.67-.567-9.647.082 1.859.465 6.398 1.797 2.171 2.918 1.516 2.168 3.973 2.027 5.586.129-.656-.325-1.011-.72-1.55-1.059 1.668-.305 3.234-1.266 3.44-2.07m3.595-3.879c-5.285-3.113-3.95-5.426.355-7.586 2.254-1.133 7.324-5.207 9.445-3.852-3.265 3.813-6.535 7.625-9.8 11.438" fill="#dc6143"/><path d="M97.29 39.813c-4.478-4.602 6.69-4.176 8.487-5.793 1.313.433 10.77-8.286 13.075-7.743-1.657 1.942-5.223 8.137-7.778 8.137-1.965 0-3.949-.293-5.472 1.106-2.223 2.046-5.91 3.09-8.313 4.292" fill="#f49674"/><path d="M98.758 34.188c-2.453 1.32-4.774-3.907-.54-3.399 2.817.34 5.665-.238 8.352.227-1.93 2.293-4.707 3.554-7.812 3.172" fill="#f4b0a3"/><path d="M111.39 52.473c.188.644.297 1.332.215 2.007-.109.872-.98 2.926-2.171 2.34-1.172-.574-2.196-1.726-3.192-2.55.805-.938 1.508-1.75 2.856-1.297.37.125.687-.035.297-.262-.403-.234-3.114-1.965-3.258-1.8-.27.312.527.87.218 1.476-.226.445-.609.832-.93 1.218-.722-.609-1.921-1.253-1.058-2.257.543-.66 1.25-1.172 2.098-1.34.566-.117 1.844.387 2.008-.227-1.086-.52-2.172-1.043-3.258-1.562.176.797-3.348 4.523-4.133 5.465-.113.136-.656.605-.664.796-.008.426.621.094.66.083.484-.18 6.817 5.109 6.969 5.472.101.281-.219.574-.027.73-.012-.007.226.215.253.184.391-.469 4.524-5.972 5.372-6.215a401.407 401.407 0 01-2.368-3.656c-.59.258-.015.95.114 1.395m-6.161 6.703c-2.078-1.344-5.597 1.277-6.128 1.527-1.036.492-1.786-.543-1.25-1.5.468-.832 1.394-1.234 2.312-1.289.273-.016 1.348.2 1.457.027.129-.203.227-.218.043-.343-.855-.582-1.71-1.157-2.57-1.739-.176 1.055-1.383 1.73-2.074 2.446-.825.851-1.52 1.93-1.52 3.152 0 1.137.68 2.145 1.676 2.66 1.136.594 2.32.117 3.324-.508.629-.39 1.254-.855 1.926-1.172.996-.464 2.304-.062 1.953 1.27-.285 1.074-1.352 2.063-2.406 2.34-.618.164-1.27.11-1.871-.09-.434-.14-.997-.734-1.23-.11 1.16.844 2.32 1.688 3.48 2.536.101-.762.523-1.09 1.085-1.563.735-.644 1.442-1.324 1.997-2.132 1.16-1.696 1.539-4.063-.204-5.512m0 0c.922.597-.593-.496 0 0m29.23-37.316c-.007.003-.007.003 0 0m.087-.055c.074-.047.152-.098 0 0-.05.03-.074.047-.086.054.016-.007.047-.03.082-.05a5.616 5.616 0 00-.957.761l-1.563-2.695c1.176.492 2.348.984 3.524 1.48a3.72 3.72 0 00-1 .45m7.375-2.157c-.73.73-8.422-2.34-8.984-2.761-.29-.117-.301-1.325-.704-.836l-1.218 1.465-1.254 1.511c-.262.317-.54.461-.04.723.837-.422 5.419 7.344 5.008 8.46-.722.376-6.914-5.058-7.082-5.417-.05-.145.274-1.02-.21-.945-.227.039-.743.898-.887 1.074-.297.355-.594.715-.89 1.07.331.485.519-.02.96.043.383.078 1.844 1.332 2.238 1.664-.722.028-2.683.133-2.93.113-.906.114-.421-.664-1.015-.93-.762.923-1.52 1.84-2.277 2.763l-1.328 1.609c-.051.062-.047.031.05.11.332.273.106.167.57.007.505-.176 6.555 4.93 6.774 5.188.379.453-.152.976.41 1.222.602-.726 1.2-1.457 1.801-2.183.09-.11.14-.102.02-.2-.426-.351-.477.215-1 .157-.536-.09-4.399-3.371-5.899-4.61 1.824-.07 7.293-.273 8.2-.304.3-.012 1.14.894 1.07 1.214-.082.38-.461.56.054.793.48-.574.985-1.148 1.457-1.734l.223-.281a.69.69 0 00.211-.266l.168-.21c.426-.485 1.8-2.005 1.637-2.15-.461-.402-.688.466-1.297-.054-.352-.25-1.227-1.789-1.446-2.16-.261-.45.61-.898.965-1.121.778-.48 3.246-1.184 3.48.348.044.257-.269.55-.081.703.043.039.203.242.27.164.163-.196 2.359-2.844 3.296-3.969-.097-.082-.207-.223-.32-.27M124.52 39.629c-.02.023-.024.027-.028.027-1.23 1.293-3.36.098-4.504-.73-1.148-.828-3.11-2.57-1.855-4.102 1.055-1.289 3.12-.234 4.191.48 1.2.805 3.41 2.598 2.278 4.216.07-.09.125-.149-.082.109m.28-6.613c-2.374-1.977-5.628-1.403-7.585.832-1.903 2.312-1.711 5.664.605 7.617 2.34 1.926 5.672 1.437 7.575-.848 1.894-2.3 1.765-5.668-.594-7.601m-.001 0c1.173.96-.253-.211 0 0" fill="#fff"/><path d="M124.492 39.656c.008-.008.02-.015.028-.027.027-.035.054-.07.078-.11-.047.063-.11.137-.106.137m-7.602 9.239c-.238.296-.042.054-.663.648-.305.293-6.438-4.672-6.192-4.941.832-.918 2.567-1.559 3.574-1.297 2.192.558 5.215 3.258 3.282 5.59m1.32-6.754c.11.093.27.222-.066-.059-2.832-2.125-6.192-1.504-8.403 1.16-.988 1.188-1.972 2.375-2.96 3.567.35.511.765-.118 1.273.175.437.25 6.246 5.098 6.34 5.368.164.457-.254.546.144.875.172.14 4.535-5.247 4.934-6.192.691-1.758.14-3.68-1.262-4.894" fill="#fff"/></svg>