<svg xmlns="http://www.w3.org/2000/svg" width="135.56" height="83.98pt" viewBox="0 1 101.67 83.98"><defs><clipPath id="a"><path d="M0 0h101.672v60H0zm0 0"/></clipPath></defs><g clip-path="url(#a)"><path d="M0-.004l50.582 59.055L101.668-.004" fill="#22a9e0"/></g><path d="M0-.004v22.461L50.582 83.98l.336-.425 50.75-60.39V-.005zm3.707 1.777h94.418L50.918 57.047l-.336.41zm0 0" fill="#481213"/><path d="M50.582 57.457l.336-.41 27.578-32.29c-6.914.95-11.863 6.079-18.605 4.958-3.395-.563-3.496-2.512-4.47-4.457-.745-1.492-1.937-1.301-3.487-1.91-1.442-.563-2.278-1.735-5.16-1.059-2.528.59-2.81 4.516-5.954 4.293-1.687-.121-1.808-2.5-4.242-5.539-6.305-7.57-12.16-6.523-16.246.473" fill="#481213"/><path d="M23.281 32.242c.512.621.89 1.285.805 2.117-.059.578-.938 1.551-.27 1.848l2.239-2.832c-.598-.152-5.364-5.852-5.442-6.477-1.05.579-2.105 1.157-3.156 1.739.164.66 1.293.004 1.852.043.828.058 1.425.558 1.953 1.152-1.727 1.45-5.93 5.016-6.375 5.09-.227.039-1.086-.602-1.102-.055-.004.262.856 1.016 1.016 1.207.746.887 1.484 1.774 2.23 2.653.617-.282-.11-.727.203-1.243.235-.375 4.907-4.265 6.047-5.242m-5.273-6.976c.441-.098.62.433.957-.059l-2.45-2.918c-.37-.441-.84-.914-.706.02.09.632-6.114 5.664-6.493 5.82-.48.2-.757-.418-1.109.098.73.867 1.461 1.738 2.195 2.605.246.293.477.613.746.883.336.34.207-.672.223-.586-.09-.512.527-.945.856-1.227 1.546-1.359 5.398-4.586 5.78-4.636m-8.773-.918c-1.765.523-3.648-.164-4.207-2.043-.543-1.836.618-3.758 2.07-4.801 1.442-1.031 3.59-.969 4.376.836.347.8.156 1.707-.094 2.504-.16.508-.598 1 .055 1.289.859-1.098 1.722-2.188 2.582-3.285-1.055-.633-1.52-1.684-2.301-2.598-.883-1.07-2.063-2.078-3.48-2.281-2.872-.406-5.575 2.554-5.797 5.242-.137 1.457.374 2.852 1.246 4.004.75.992 1.867 1.62 2.437 2.754.262.093 2.703-1.032 3.285-1.258-.05-.11-.09-.273-.172-.363-.761.226 0 0 0 0m39.301 36.406c-1.148-.766-4.023-4.688-4.574-5.34a29.447 29.447 0 00-.328-.39c-.012-.016-.281.222-.246.187-.172.148.136.574-.051.867-.793 1.238-5.758 4.98-6.02 5.16-.55.387-1.164-.156-1.484.317.719.855 2.777 3.543 3.02 3.582.48.078.144-.817.21-1 .122-.371 2.633-2.446 3.547-3.211.336-.281.692.426.887.722.328.485.477 1 .3 1.567-.116.37-.714.922-.25 1.176.618-.723 2.36-2.754 2.614-3.051.25-.293-.566-.035-.469-.086-.37.191-.718.234-1.062-.027-.098-.07-1.09-1.082-.992-1.168.43-.36.96-.961 1.515-1.098.864-.215 1.582 1.516 1.711 2.129a3.454 3.454 0 01-.074 1.75c-.125.387-.488.695.016.93a587.74 587.74 0 002.133-2.922.65.65 0 01-.403-.094c-.129-.082.14.07 0 0m-10.687-8.883c-.649 1.512-2.203 3.063-3.735 3.668-1.816.715-3.097-.828-2.355-2.555.648-1.515 2.199-3.054 3.734-3.664 1.852-.734 3.067.844 2.356 2.551-.383.89.07-.168 0 0m.465 4.754c2.203-1.855 2.48-5.055.769-7.34-1.867-2.488-5.371-3.094-7.805-1.05-2.203 1.85-2.488 5.046-.757 7.324 1.988 2.62 5.199 2.918 7.793 1.066 1.156-.977-.102.07 0 0m-6.446-14.609c.477.062.926.55 1.27.043-.742-.88-1.485-1.758-2.23-2.637-.595.27.05.55-.192.973-.246.425-2.559.777-3.176.89.223-.644.895-2.617 1.156-2.836.543-.445.883.43 1.282-.14-.915-1.086-1.829-2.172-2.743-3.254-.308-.367-.558-1.028-.98-.68.039-.031.008 1.473-.086 1.73-.086.235-.938 3.641-1.93 4.473-.492.414-2.234 1.934-2.699 2.094-.543.191-.824-.594-1.219-.035.828.984 1.657 1.972 2.489 2.957.125.148.601.863.77.894.519.094.058-.894.108-1.086.153-.433 2.5-2.722 3.497-2.859 1.464-.207 3.203-.707 4.683-.527.34.043-.351-.043 0 0m37.34 10.429c.188.649.297 1.332.215 2.008-.11.875-.98 2.926-2.176 2.34-1.168-.574-2.191-1.727-3.187-2.55.8-.938 1.507-1.75 2.855-1.298.367.125.688-.035.297-.261-.402-.235-3.113-1.965-3.258-1.797-.273.308.524.867.219 1.472-.23.446-.61.832-.934 1.22-.718-.61-1.922-1.255-1.054-2.259.543-.66 1.25-1.172 2.097-1.34.567-.113 1.84.387 2.008-.226-1.09-.52-2.176-1.043-3.258-1.563.176.797-3.351 4.524-4.133 5.461-.113.141-.66.61-.664.801-.007.426.621.094.657.082.488-.18 6.816 5.11 6.972 5.473.102.281-.218.574-.027.73-.012-.011.227.215.254.184.39-.469 4.52-5.977 5.37-6.215a528.002 528.002 0 01-2.366-3.652c-.59.258-.02.949.113 1.39m-6.164 6.703c-2.074-1.34-5.598 1.278-6.125 1.532-1.04.488-1.79-.543-1.25-1.504.469-.828 1.395-1.235 2.312-1.29.274-.015 1.352.2 1.458.028.128-.203.226-.223.042-.348l-2.566-1.734c-.176 1.059-1.387 1.73-2.074 2.441-.824.856-1.524 1.93-1.524 3.157 0 1.133.68 2.14 1.676 2.66 1.14.59 2.32.117 3.324-.512.63-.39 1.254-.855 1.926-1.172.996-.465 2.305-.062 1.953 1.27-.28 1.074-1.351 2.062-2.406 2.34-.617.164-1.27.109-1.871-.09-.434-.14-.992-.735-1.23-.11 1.16.848 2.32 1.692 3.48 2.536.105-.758.523-1.09 1.086-1.563.734-.644 1.437-1.316 1.996-2.129 1.156-1.691 1.54-4.062-.207-5.512m0 0c.926.598-.59-.496 0 0m29.234-37.316c-.007.004-.007.004 0 0" fill="#fff"/><path d="M92.36 21.781c.078-.05.156-.097 0 0-.051.032-.07.047-.083.055.016-.008.047-.031.082-.055a5.856 5.856 0 00-.957.762c-.523-.898-1.047-1.793-1.566-2.691 1.18.492 2.355.984 3.523 1.48a3.832 3.832 0 00-1 .45m7.375-2.157c-.726.727-8.418-2.344-8.98-2.766-.29-.113-.3-1.32-.707-.832-.402.489-.809.977-1.215 1.461-.418.508-.836 1.012-1.254 1.516-.262.312-.539.457-.039.719.836-.418 5.418 7.347 5.008 8.46-.727.376-6.914-5.054-7.082-5.413-.05-.145.273-1.02-.211-.946-.227.035-.742.895-.89 1.07-.294.36-.59.715-.887 1.075.332.484.515-.024.957.043.386.078 1.847 1.332 2.242 1.664-.727.027-2.688.129-2.934.113-.902.11-.422-.664-1.015-.934-.762.922-1.52 1.844-2.278 2.766-.441.535-.886 1.07-1.324 1.606-.055.066-.047.03.047.113.332.273.105.168.57.004.508-.176 6.559 4.933 6.774 5.191.379.45-.153.977.414 1.223.597-.73 1.195-1.457 1.797-2.188.09-.105.14-.097.02-.195-.427-.355-.477.21-1 .152-.536-.09-4.4-3.367-5.9-4.609 1.825-.066 7.294-.27 8.2-.305.3-.011 1.14.899 1.066 1.219-.078.379-.46.555.059.793.476-.574.98-1.148 1.453-1.734l.227-.282a.72.72 0 00.21-.265l.168-.211c.426-.485 1.801-2.004 1.633-2.153-.457-.398-.683.47-1.293-.05-.351-.25-1.226-1.79-1.445-2.164-.266-.45.605-.895.965-1.118.773-.48 3.246-1.183 3.48.348.04.258-.27.55-.086.703.047.035.207.242.274.164.164-.195 2.36-2.843 3.3-3.968-.097-.082-.206-.223-.324-.27m-17.398 19.98c-.02.02-.023.024-.027.024-1.23 1.293-3.356.098-4.504-.73-1.149-.825-3.11-2.567-1.856-4.102 1.059-1.29 3.125-.23 4.192.48 1.199.805 3.41 2.598 2.273 4.22.074-.09.129-.15-.078.108m.277-6.613c-2.375-1.98-5.629-1.406-7.586.832-1.898 2.313-1.71 5.664.61 7.614 2.34 1.925 5.668 1.437 7.57-.848 1.898-2.3 1.77-5.668-.594-7.598m0 0c1.176.957-.25-.21 0 0" fill="#fff"/><path d="M82.309 39.633a.997.997 0 00.105-.137c-.05.063-.11.137-.105.137m-7.602 9.234c-.242.297-.043.055-.664.653-.309.292-6.441-4.676-6.191-4.942.832-.918 2.566-1.558 3.574-1.3 2.187.558 5.215 3.261 3.281 5.59m1.316-6.75c.114.089.274.222-.062-.06-2.836-2.128-6.191-1.503-8.402 1.157-.989 1.187-1.977 2.379-2.961 3.566.351.512.765-.117 1.273.176.438.25 6.242 5.102 6.34 5.363.164.461-.254.551.144.875.172.145 4.536-5.242 4.934-6.187.691-1.754.14-3.68-1.266-4.89" fill="#fff"/><path d="M50.582 57.473l.336-.41 27.578-32.286c-6.914.95-11.863 6.075-18.605 4.953-3.395-.562-3.496-2.511-4.47-4.453-.745-1.496-1.937-1.304-3.487-1.91-1.442-.566-2.278-1.738-5.16-1.062-2.528.593-2.81 4.52-5.954 4.293-1.687-.121-1.808-2.496-4.242-5.54-6.305-7.57-12.16-6.523-16.246.477" fill="#481213"/><path d="M46.559 70.91l4.023-6.5 4 6.5-4 6.516zm0 0" fill="#22a9e0"/><path d="M23.281 32.262c.512.617.89 1.285.805 2.117-.059.578-.938 1.547-.27 1.844.747-.946 1.493-1.887 2.243-2.832-.602-.153-5.368-5.848-5.446-6.473l-3.156 1.734c.164.66 1.293.004 1.852.043.828.063 1.425.563 1.953 1.153-1.727 1.449-5.93 5.02-6.371 5.09-.227.039-1.09-.598-1.102-.055-.008.262.852 1.015 1.012 1.21.746.884 1.488 1.77 2.23 2.653.621-.281-.11-.73.207-1.242.23-.375 4.899-4.27 6.043-5.242m-5.273-6.981c.441-.093.62.434.957-.054l-2.45-2.918c-.37-.442-.84-.918-.706.02.09.628-6.114 5.66-6.493 5.816-.48.199-.757-.415-1.109.097.73.871 1.461 1.738 2.195 2.61.246.293.477.613.746.882.336.336.207-.672.223-.586-.09-.511.527-.949.856-1.226 1.546-1.363 5.398-4.59 5.78-4.64m-8.773-.919c-1.765.524-3.648-.164-4.207-2.043-.543-1.832.618-3.754 2.07-4.8 1.442-1.032 3.59-.97 4.376.84.347.796.156 1.706-.094 2.5-.16.507-.598 1 .055 1.288.859-1.093 1.722-2.187 2.582-3.285-1.055-.633-1.52-1.683-2.301-2.593-.883-1.07-2.063-2.079-3.48-2.286-2.872-.406-5.575 2.559-5.797 5.246-.137 1.457.374 2.848 1.246 4 .75.997 1.867 1.625 2.437 2.754.262.098 2.703-1.03 3.285-1.254-.05-.109-.09-.273-.172-.367-.761.227 0 0 0 0m39.301 36.41c-1.148-.77-4.023-4.691-4.574-5.34-.106-.132-.219-.261-.328-.394-.012-.012-.285.227-.246.191-.172.145.133.575-.051.864-.793 1.242-5.758 4.984-6.016 5.164-.554.383-1.164-.16-1.488.316.719.856 2.777 3.543 3.016 3.582.48.078.148-.816.21-1 .126-.37 2.637-2.445 3.551-3.21.336-.282.688.425.887.722.328.484.477 1 .3 1.566-.116.371-.718.922-.25 1.176.618-.722 2.36-2.754 2.61-3.05.254-.294-.562-.036-.468-.087-.368.192-.715.235-1.063-.027-.094-.07-1.09-1.082-.988-1.168.43-.36.957-.96 1.515-1.098.864-.214 1.582 1.516 1.711 2.13a3.455 3.455 0 01-.078 1.75c-.125.386-.484.695.02.93.71-.974 1.422-1.946 2.129-2.923a.701.701 0 01-.399-.094c-.129-.086.14.07 0 0M37.848 51.89c-.649 1.508-2.203 3.063-3.735 3.665-1.816.715-3.097-.825-2.36-2.551.653-1.516 2.204-3.059 3.74-3.668 1.85-.734 3.066.848 2.355 2.555-.383.886.07-.172 0 0m.465 4.75c2.203-1.856 2.48-5.051.765-7.336-1.863-2.492-5.371-3.098-7.8-1.055-2.204 1.855-2.493 5.047-.758 7.324 1.988 2.621 5.199 2.918 7.793 1.067 1.156-.973-.102.07 0 0m-6.446-14.61c.477.063.926.551 1.27.043-.742-.879-1.485-1.758-2.23-2.636-.595.269.05.55-.192.972-.246.426-2.559.781-3.176.89.223-.644.895-2.616 1.156-2.835.543-.445.883.43 1.282-.14-.915-1.087-1.829-2.173-2.743-3.255-.308-.367-.558-1.027-.98-.68.039-.03.008 1.473-.09 1.735-.082.234-.934 3.637-1.926 4.469-.492.414-2.234 1.933-2.699 2.097-.543.188-.824-.597-1.219-.039l2.489 2.957c.125.149.601.864.77.895.519.094.058-.895.108-1.086.153-.434 2.5-2.723 3.5-2.86 1.461-.206 3.2-.703 4.68-.527.34.043-.351-.043 0 0" fill="#fff"/><path d="M25.605 22.871c-4.039-.168-2.351-3.957.399-4.808 2.61-.813 8.086 1.714 9.84 3.398-2.782.855-6.383.73-9.446.871-.226-3.117-.957-2.031-.793.54m1.016 4.847c-2.039-1.578-1.394-5.266 1.766-4.145 4.004 2.082-.86 3.238-1.766 4.145 0 0 .043-.04 0 0m8.489 7.699c-8.622-.07-2.79-13.32.14-12.52 3.375 1.075 2.996 12.622-.14 12.52m6.105-4.328c-.84 2.5-2.36 2.969-2.192-.07.196-3.504 2.48-2.66 4.93-4.004 2.04-1.118 3.14-5.215 6.64-2.766 1.563 1.094 3.352.18 3.852 1.832-.023-.082-4.543 10.309-2.03 10.309-4.962 0-2.77-5.922-.876-9.899-1.844.887-4.84 6.688-2.379 7.645-1.281 1.683-5.195 3.945-7.234 2.297-1.555-1.25-.692-3.325-.711-5.344m4.105 9.601c-3.488 1.047-8.12-1.207-2.511-2.34 3.484-.703 7.187.778 2.511 2.34.14-.039-.129.043 0 0m4.371-.141c-.738-1.655.563-3.632 2.68-2.198 1.844 1.253-.851 3.109-2.68 2.199m-2.949 4.668c-2.41-.746-10.535-.559-5.215-2.762 1.637-.68 10.153.098 5.215 2.762m3.218-.352c-.007-.96-.515-2.68 1.352-1.945 2.235.879-1.351 2.648-1.351 1.945 0 0 0-.168 0 0m7.215 3.668c-1.434-1.226-2.89-1.297-4.227 0-1.793-3.293-8.316-2.191-11.367-2.652 1.64 4.027 14.867 4.781 15.594 2.652m-1.899 2.422c-3.152-.145-6.672-.562-9.648.086 1.86.465 6.398 1.793 2.172 2.918 1.515 2.168 3.972 2.027 5.582.125-.653-.32-1.008-.719-1.551-1.055 1.672-.304 3.234-1.27 3.445-2.074m3.594-3.875c-5.289-3.113-3.95-5.43.356-7.586 2.253-1.133 7.324-5.21 9.445-3.851-3.27 3.812-6.535 7.625-9.8 11.437" fill="#dc6143"/><path d="M55.105 39.805c-4.476-4.602 6.688-4.176 8.489-5.797 1.312.437 10.765-8.281 13.07-7.738-1.656 1.94-5.219 8.132-7.773 8.132-1.965 0-3.95-.289-5.473 1.11-2.223 2.047-5.91 3.09-8.313 4.293" fill="#f49674"/><path d="M56.574 34.18c-2.453 1.32-4.773-3.907-.539-3.399 2.813.336 5.664-.238 8.348.227-1.926 2.289-4.707 3.55-7.809 3.172" fill="#f4b0a3"/><path d="M69.207 52.46c.188.65.297 1.333.211 2.013-.106.87-.977 2.922-2.172 2.34-1.168-.575-2.191-1.731-3.187-2.555.8-.934 1.507-1.746 2.855-1.293.367.12.688-.035.297-.262-.402-.234-3.113-1.965-3.258-1.8-.273.312.527.867.219 1.472-.23.45-.61.836-.934 1.219-.718-.606-1.922-1.25-1.054-2.254.543-.66 1.25-1.172 2.097-1.344.567-.113 1.84.39 2.004-.223-1.086-.523-2.172-1.043-3.254-1.566.176.8-3.351 4.527-4.133 5.465-.113.137-.66.61-.664.797-.007.43.621.097.657.086.488-.184 6.816 5.105 6.972 5.468.102.282-.218.575-.027.73-.012-.007.227.22.254.188.39-.468 4.52-5.976 5.37-6.218a448.357 448.357 0 01-2.366-3.653c-.59.258-.02.95.113 1.39m-6.164 6.704c-2.074-1.34-5.594 1.281-6.125 1.531-1.04.492-1.79-.543-1.25-1.5.469-.832 1.395-1.234 2.312-1.289.274-.02 1.348.196 1.458.024.128-.203.226-.22.042-.344-.859-.578-1.71-1.156-2.57-1.734-.176 1.054-1.383 1.726-2.074 2.441-.82.852-1.52 1.93-1.52 3.156 0 1.133.68 2.14 1.676 2.66 1.137.59 2.32.118 3.324-.511.63-.391 1.254-.856 1.926-1.172.996-.465 2.301-.063 1.953 1.27-.285 1.074-1.351 2.062-2.406 2.34-.617.163-1.27.109-1.871-.09-.434-.141-.996-.735-1.23-.11 1.16.848 2.32 1.691 3.48 2.535.105-.758.523-1.09 1.086-1.562.734-.645 1.437-1.32 1.996-2.13 1.156-1.695 1.535-4.062-.207-5.515m0 0c.926.598-.59-.492 0 0m29.234-37.312c-.007.003-.007.003 0 0m.083-.055c.078-.05.156-.098 0 0a.646.646 0 00-.083.055c.016-.008.047-.032.082-.055a6.027 6.027 0 00-.957.762 605.154 605.154 0 01-1.566-2.692c1.18.492 2.355.985 3.523 1.48a3.832 3.832 0 00-1 .45m7.375-2.156c-.726.73-8.418-2.34-8.98-2.766-.29-.113-.3-1.32-.707-.832-.402.488-.809.977-1.215 1.465l-1.254 1.512c-.262.312-.539.457-.039.718.836-.418 5.418 7.348 5.008 8.461-.727.38-6.914-5.054-7.082-5.414-.05-.144.273-1.02-.211-.945-.227.035-.742.898-.89 1.074-.294.356-.59.715-.887 1.07.332.485.515-.02.957.043.386.078 1.847 1.332 2.242 1.664-.723.028-2.684.13-2.934.114-.902.11-.422-.664-1.015-.934-.758.922-1.52 1.844-2.278 2.766l-1.324 1.605c-.055.067-.047.035.047.113.332.274.105.168.57.008.508-.18 6.559 4.93 6.778 5.188.375.449-.157.976.41 1.222l1.797-2.183c.093-.11.14-.102.023-.2-.43-.35-.477.212-1.004.153-.531-.086-4.394-3.367-5.894-4.61 1.82-.066 7.289-.269 8.199-.304.3-.008 1.14.898 1.066 1.219-.082.379-.46.558.055.793.48-.575.984-1.149 1.457-1.735l.226-.281a.77.77 0 00.211-.266l.168-.21c.422-.485 1.797-2.004 1.633-2.149-.46-.402-.683.465-1.297-.055-.347-.25-1.222-1.789-1.441-2.164-.266-.449.605-.894.96-1.117.778-.48 3.25-1.184 3.485.348.04.258-.273.55-.086.703.043.039.207.242.27.164.164-.195 2.363-2.844 3.3-3.969-.097-.082-.206-.223-.324-.27M82.336 39.621c-.02.02-.023.027-.027.027-1.23 1.293-3.356.098-4.504-.73-1.149-.828-3.114-2.57-1.856-4.105 1.055-1.286 3.121-.231 4.192.484 1.199.8 3.41 2.594 2.273 4.215.074-.09.125-.149-.078.11m.281-6.614c-2.375-1.98-5.633-1.403-7.586.832-1.902 2.312-1.715 5.664.606 7.613 2.34 1.93 5.668 1.442 7.57-.844 1.898-2.304 1.77-5.668-.59-7.601m0 0c1.168.96-.254-.211 0 0" fill="#fff"/><path d="M82.309 39.648c.007-.007.015-.02.023-.027a.997.997 0 00.082-.11c-.05.063-.113.137-.105.137m-7.602 9.239c-.242.297-.047.054-.668.648-.305.293-6.437-4.676-6.187-4.941.832-.918 2.562-1.559 3.574-1.297 2.191.558 5.215 3.258 3.281 5.59m1.316-6.754c.114.094.274.222-.062-.059-2.836-2.125-6.191-1.504-8.402 1.156-.989 1.192-1.977 2.38-2.961 3.57.351.513.761-.12 1.273.177.438.25 6.242 5.097 6.34 5.363.164.46-.254.55.144.875.172.144 4.536-5.242 4.934-6.192.691-1.753.14-3.675-1.266-4.89" fill="#fff"/></svg>