<svg width="470" height="500" fill="none" xmlns="http://www.w3.org/2000/svg"><path d="M81.5 69.5h302v361h-302v-361z" fill="#010123"/><path d="M233.154 500c-69.339 0-124.922-22.605-166.749-67.815C24.802 386.978 4 328.16 4 255.734c0-77.821 21.25-139.9 63.747-186.233C110.245 23.167 167.953 0 240.87 0c67.551 0 121.903 22.492 163.059 67.477C445.31 112.46 466 171.278 466 243.928c0 78.947-21.139 141.361-63.411 187.247C360.314 477.057 303.835 500 233.154 500zm3.691-429.487c-44.064 0-79.964 16.531-107.699 49.595-27.512 33.063-41.268 76.586-41.268 130.566 0 53.756 13.42 97.054 40.261 129.893 26.841 32.838 61.958 49.258 105.351 49.258 46.077 0 82.425-15.633 109.042-46.897 26.616-31.263 39.925-75.012 39.925-131.241 0-57.805-12.972-102.452-38.918-133.941-25.725-31.489-61.288-47.233-106.694-47.233z" fill="#190CD6"/><path d="M233.802 413c-45.026 0-81.119-14.738-108.279-44.215C98.508 339.31 85 300.96 85 253.739c0-50.74 13.798-91.215 41.394-121.425C153.991 102.105 191.463 87 238.812 87c43.864 0 79.158 14.665 105.882 43.995C371.565 160.324 385 198.673 385 246.041c0 51.473-13.726 92.167-41.176 122.085C316.372 398.041 279.698 413 233.802 413zm2.396-280.026c-28.613 0-51.924 10.779-69.935 32.336-17.864 21.558-26.797 49.934-26.797 85.13 0 35.048 8.715 63.278 26.144 84.69 17.429 21.41 40.232 32.116 68.409 32.116 29.92 0 53.523-10.193 70.807-30.577 17.283-20.384 25.925-48.908 25.925-85.569 0-37.689-8.423-66.799-25.271-87.329-16.704-20.531-39.798-30.797-69.282-30.797z" fill="#371CFF"/><path d="M234.217 356c-29.417 0-52.997-9.584-70.742-28.753C145.825 308.079 137 283.14 137 252.431c0-32.996 9.015-59.317 27.044-78.963C182.074 153.823 206.556 144 237.49 144c28.658 0 51.717 9.537 69.177 28.61C324.222 191.683 333 216.622 333 247.425c0 33.474-8.968 59.938-26.902 79.393C288.163 346.272 264.203 356 234.217 356zm1.566-182.103c-18.694 0-33.924 7.01-45.691 21.029-11.672 14.019-17.507 32.472-17.507 55.36 0 22.792 5.693 41.151 17.08 55.075 11.387 13.923 26.285 20.885 44.694 20.885 19.548 0 34.969-6.629 46.261-19.884 11.291-13.256 16.937-31.806 16.937-55.647 0-24.509-5.503-43.439-16.51-56.791-10.914-13.351-26.001-20.027-45.264-20.027z" fill="#2767DE"/><path d="M234.497 318c-18.911 0-34.07-6.149-45.477-18.446C177.673 287.258 172 271.26 172 251.56c0-21.168 5.795-38.053 17.386-50.656C200.976 188.301 216.715 182 236.601 182c18.423 0 33.246 6.118 44.471 18.354C292.357 212.589 298 228.588 298 248.348c0 21.474-5.765 38.451-17.294 50.932-11.53 12.479-26.933 18.72-46.209 18.72zm1.006-116.82c-12.017 0-21.808 4.496-29.372 13.489-7.504 8.994-11.255 20.832-11.255 35.514 0 14.622 3.66 26.399 10.98 35.331 7.32 8.932 16.898 13.398 28.732 13.398 12.567 0 22.48-4.252 29.739-12.756 7.259-8.503 10.888-20.403 10.888-35.697 0-15.723-3.537-27.867-10.614-36.432-7.015-8.565-16.714-12.847-29.098-12.847z" fill="#1F8DCE"/><path d="M234.664 295c-12.607 0-22.713-4.069-30.318-12.207-7.564-8.137-11.346-18.724-11.346-31.761 0-14.008 3.863-25.182 11.59-33.522S222.81 205 236.067 205c12.282 0 22.165 4.049 29.647 12.146C273.238 225.243 277 235.83 277 248.907c0 14.21-3.843 25.445-11.529 33.705C257.784 290.87 247.516 295 234.664 295zm.671-77.308c-8.011 0-14.538 2.976-19.581 8.927-5.002 5.952-7.503 13.786-7.503 23.502 0 9.676 2.44 17.47 7.32 23.381 4.88 5.911 11.265 8.866 19.154 8.866 8.378 0 14.987-2.814 19.826-8.441 4.84-5.627 7.259-13.502 7.259-23.623 0-10.405-2.358-18.442-7.076-24.11-4.677-5.668-11.143-8.502-19.399-8.502z" fill="#18B4BD"/><path d="M234.776 280c-8.404 0-15.142-2.713-20.212-8.138-5.043-5.425-7.564-12.483-7.564-21.174 0-9.338 2.576-16.788 7.727-22.348 5.151-5.56 12.146-8.34 20.985-8.34 8.188 0 14.776 2.699 19.764 8.097 5.016 5.398 7.524 12.456 7.524 21.174 0 9.474-2.562 16.964-7.686 22.47-5.124 5.506-11.97 8.259-20.538 8.259zm.448-51.538c-5.341 0-9.693 1.983-13.055 5.951-3.335 3.968-5.002 9.19-5.002 15.668 0 6.451 1.627 11.646 4.88 15.587 3.254 3.941 7.51 5.911 12.77 5.911 5.585 0 9.991-1.876 13.217-5.628 3.226-3.751 4.84-9.001 4.84-15.749 0-6.936-1.573-12.294-4.718-16.072-3.118-3.779-7.429-5.668-12.932-5.668z" fill="#0FD9AC"/><path d="M234.856 270c-5.403 0-9.734-1.808-12.993-5.425-3.242-3.617-4.863-8.322-4.863-14.116 0-6.226 1.656-11.192 4.967-14.899 3.312-3.707 7.809-5.56 13.49-5.56 5.264 0 9.499 1.799 12.706 5.398 3.225 3.599 4.837 8.304 4.837 14.116 0 6.316-1.647 11.309-4.941 14.98-3.294 3.671-7.695 5.506-13.203 5.506zm.026-33c-3.433 0-5.221.855-7.382 3.5-2.144 2.645-2.5 5.235-2.5 9.554 0 4.3.408 6.819 2.5 9.446s3.975 3.5 7.356 3.5c3.591 0 5.57-.999 7.644-3.5s2.5-4.948 2.5-9.446c0-4.624-.478-7.035-2.5-9.554-2.004-2.519-4.08-3.5-7.618-3.5z" fill="#08FF9C"/><circle cx="235" cy="250" r="12" fill="#7AFFCA"/></svg>