<?xml version="1.0" encoding="UTF-8"?>
<svg xmlns="http://www.w3.org/2000/svg" xmlns:xlink="http://www.w3.org/1999/xlink" width="186.64pt" height="96.43pt" viewBox="0 1 186.64 96.43" version="1.1">
<defs>
<clipPath id="clip1">
  <path d="M 0 0 L 186.640625 0 L 186.640625 96.429688 L 0 96.429688 Z M 0 0 "/>
</clipPath>
</defs>
<g id="surface1">
<g clip-path="url(#clip1)" clip-rule="nonzero">
<path style=" stroke:none;fill-rule:nonzero;fill:rgb(50.59967%,70.199585%,82.398987%);fill-opacity:1;" d="M 186.644531 0.00390625 L 0 0.00390625 L 80.488281 90.480469 C 87.546875 98.414063 99.097656 98.414063 106.15625 90.480469 "/>
</g>
<path style=" stroke:none;fill-rule:nonzero;fill:rgb(13.299561%,66.299438%,87.799072%);fill-opacity:1;" d="M 43.242188 0.726563 L 92.765625 59.074219 L 142.089844 1.078125 "/>
<path style=" stroke:none;fill-rule:nonzero;fill:rgb(100%,100%,100%);fill-opacity:1;" d="M 122.023438 17.335938 C 116.960938 17.363281 111.898438 17.394531 106.835938 17.421875 C 112.835938 10.488281 115.535156 11.230469 122.023438 17.335938 "/>
<path style=" stroke:none;fill-rule:nonzero;fill:rgb(100%,100%,100%);fill-opacity:1;" d="M 80.847656 22.695313 L 107.527344 22.695313 C 105.542969 21.460938 100.820313 15.636719 98.21875 17.800781 C 98.007813 17.980469 90.714844 8.953125 85.925781 13.300781 C 81.746094 17.101563 79.804688 12.804688 75.066406 15.8125 C 69.667969 19.382813 78.1875 21.488281 80.847656 22.695313 "/>
<path style=" stroke:none;fill-rule:nonzero;fill:rgb(28.199768%,7.099915%,7.499695%);fill-opacity:1;" d="M 137.105469 5.546875 L 137.105469 1.796875 L 140.3125 1.796875 Z M 61.25 20.042969 L 61.390625 20.171875 C 61.425781 20.132813 64.972656 16.300781 70.605469 12.523438 C 75.792969 9.042969 83.839844 4.910156 92.761719 4.957031 C 101.660156 5 109.824219 9.152344 115.105469 12.625 C 120.753906 16.335938 124.390625 20.082031 124.550781 20.25 L 120.675781 24.785156 C 113.765625 25.734375 108.8125 30.863281 102.074219 29.742188 C 98.679688 29.175781 98.578125 27.226563 97.605469 25.285156 C 96.859375 23.792969 95.667969 23.984375 94.117188 23.375 C 92.675781 22.8125 91.839844 21.636719 88.957031 22.316406 C 86.425781 22.90625 86.148438 26.832031 83.003906 26.609375 C 81.316406 26.488281 81.195313 24.109375 78.757813 21.070313 C 72.457031 13.496094 66.601563 14.546875 62.511719 21.542969 L 92.761719 57.480469 Z M 48.363281 1.796875 L 48.363281 4.734375 L 45.890625 1.796875 Z M 131.355469 1.796875 L 136.324219 1.796875 L 136.324219 6.464844 L 131.355469 12.285156 Z M 125.105469 19.445313 L 125.105469 1.796875 L 130.570313 1.796875 L 130.570313 13.203125 L 125.175781 19.515625 C 125.160156 19.496094 125.136719 19.472656 125.105469 19.445313 M 124.324219 3.441406 L 124.324219 18.679688 C 123.273438 17.6875 121.378906 15.980469 118.847656 14.082031 Z M 117.910156 2.886719 L 117.910156 13.394531 C 117.195313 12.878906 116.445313 12.355469 115.652344 11.835938 C 114.628906 11.160156 113.496094 10.460938 112.273438 9.769531 Z M 111.269531 2.683594 L 111.269531 9.214844 C 109.777344 8.414063 108.167969 7.644531 106.460938 6.945313 Z M 112.050781 1.796875 L 117.789063 1.796875 L 112.050781 8.804688 Z M 118.691406 1.796875 L 124.289063 1.796875 L 118.691406 12.671875 Z M 105.140625 1.796875 L 111.085938 1.796875 L 105.652344 6.617188 C 105.484375 6.550781 105.3125 6.492188 105.140625 6.425781 Z M 104.355469 2.441406 L 104.355469 6.140625 C 102.824219 5.597656 101.226563 5.132813 99.582031 4.773438 Z M 97.882813 2.503906 L 97.882813 4.445313 C 96.78125 4.261719 95.660156 4.128906 94.527344 4.054688 Z M 87.460938 2.445313 L 90.921875 4.046875 C 89.75 4.113281 88.59375 4.25 87.460938 4.4375 Z M 81.113281 2.441406 L 85.835938 4.746094 C 84.203125 5.097656 82.625 5.558594 81.113281 6.09375 Z M 86.675781 4.285156 L 81.585938 1.796875 L 86.675781 1.796875 Z M 92.167969 3.761719 L 87.925781 1.796875 L 92.167969 1.796875 Z M 93.105469 1.796875 L 97.542969 1.796875 L 93.105469 3.851563 Z M 98.898438 1.796875 L 103.886719 1.796875 L 98.898438 4.238281 Z M 79.777344 6.589844 L 74.371094 1.796875 L 80.332031 1.796875 L 80.332031 6.378906 C 80.144531 6.449219 79.960938 6.519531 79.777344 6.589844 M 74.203125 2.695313 L 78.96875 6.917969 C 77.269531 7.625 75.675781 8.40625 74.203125 9.210938 Z M 67.5625 2.894531 L 73.167969 9.792969 C 72.050781 10.441406 71.011719 11.09375 70.070313 11.726563 C 69.179688 12.324219 68.34375 12.921875 67.5625 13.507813 Z M 61.144531 3.445313 L 66.667969 14.1875 C 63.917969 16.328125 61.976563 18.199219 61.144531 19.042969 Z M 66.777344 12.6875 L 61.179688 1.796875 L 66.777344 1.796875 Z M 73.417969 8.859375 L 67.679688 1.796875 L 73.417969 1.796875 Z M 54.117188 11.566406 L 49.144531 5.664063 L 49.144531 1.796875 L 54.117188 1.796875 Z M 54.898438 1.796875 L 60.359375 1.796875 L 60.359375 18.988281 L 54.898438 12.5 Z M 93.101563 0.0195313 L 42.183594 0.0195313 L 42.183594 22.484375 L 92.765625 84.003906 L 93.101563 83.582031 L 143.851563 23.1875 L 143.851563 0.0195313 "/>
<path style=" stroke:none;fill-rule:nonzero;fill:rgb(13.299561%,66.299438%,87.799072%);fill-opacity:1;" d="M 88.746094 70.921875 L 92.765625 64.421875 L 96.769531 70.921875 L 92.765625 77.433594 Z M 88.746094 70.921875 "/>
<path style=" stroke:none;fill-rule:nonzero;fill:rgb(100%,100%,100%);fill-opacity:1;" d="M 65.464844 32.269531 C 65.976563 32.886719 66.355469 33.554688 66.269531 34.386719 C 66.210938 34.964844 65.335938 35.9375 66 36.230469 C 66.746094 35.285156 67.496094 34.34375 68.242188 33.398438 C 67.640625 33.246094 62.878906 27.550781 62.800781 26.925781 C 61.746094 27.503906 60.691406 28.082031 59.640625 28.660156 C 59.804688 29.320313 60.933594 28.664063 61.496094 28.707031 C 62.324219 28.765625 62.917969 29.265625 63.449219 29.859375 C 61.71875 31.308594 57.519531 34.875 57.074219 34.949219 C 56.847656 34.984375 55.984375 34.347656 55.972656 34.890625 C 55.96875 35.152344 56.824219 35.90625 56.988281 36.101563 C 57.730469 36.984375 58.472656 37.871094 59.21875 38.753906 C 59.835938 38.472656 59.105469 38.023438 59.421875 37.511719 C 59.652344 37.136719 64.324219 33.246094 65.464844 32.269531 "/>
<path style=" stroke:none;fill-rule:nonzero;fill:rgb(100%,100%,100%);fill-opacity:1;" d="M 60.191406 25.289063 C 60.632813 25.195313 60.816406 25.722656 61.148438 25.234375 C 60.332031 24.261719 59.515625 23.289063 58.699219 22.316406 C 58.328125 21.875 57.859375 21.402344 57.992188 22.335938 C 58.082031 22.964844 51.878906 28 51.5 28.15625 C 51.023438 28.351563 50.742188 27.738281 50.390625 28.25 C 51.121094 29.121094 51.851563 29.992188 52.585938 30.859375 C 52.832031 31.152344 53.058594 31.472656 53.332031 31.742188 C 53.667969 32.082031 53.539063 31.070313 53.554688 31.15625 C 53.464844 30.644531 54.082031 30.207031 54.410156 29.929688 C 55.957031 28.566406 59.808594 25.339844 60.191406 25.289063 "/>
<path style=" stroke:none;fill-rule:nonzero;fill:rgb(100%,100%,100%);fill-opacity:1;" d="M 51.417969 24.371094 C 49.652344 24.894531 47.769531 24.207031 47.214844 22.332031 C 46.667969 20.496094 47.828125 18.574219 49.285156 17.53125 C 50.722656 16.496094 52.871094 16.558594 53.65625 18.367188 C 54.003906 19.167969 53.816406 20.074219 53.5625 20.871094 C 53.402344 21.375 52.96875 21.871094 53.617188 22.160156 C 54.480469 21.0625 55.339844 19.96875 56.199219 18.871094 C 55.144531 18.238281 54.683594 17.191406 53.898438 16.277344 C 53.019531 15.207031 51.835938 14.199219 50.417969 13.992188 C 47.546875 13.585938 44.84375 16.550781 44.621094 19.238281 C 44.488281 20.695313 44.996094 22.085938 45.867188 23.238281 C 46.617188 24.234375 47.738281 24.863281 48.304688 25.992188 C 48.566406 26.089844 51.007813 24.960938 51.589844 24.738281 C 51.539063 24.628906 51.5 24.464844 51.417969 24.371094 C 50.660156 24.597656 51.417969 24.371094 51.417969 24.371094 "/>
<path style=" stroke:none;fill-rule:nonzero;fill:rgb(100%,100%,100%);fill-opacity:1;" d="M 90.71875 60.78125 C 89.570313 60.011719 86.695313 56.09375 86.148438 55.441406 C 86.039063 55.308594 85.925781 55.179688 85.816406 55.050781 C 85.804688 55.035156 85.53125 55.273438 85.570313 55.242188 C 85.398438 55.386719 85.703125 55.8125 85.519531 56.105469 C 84.726563 57.34375 79.761719 61.089844 79.503906 61.265625 C 78.949219 61.652344 78.339844 61.109375 78.015625 61.585938 C 78.734375 62.4375 80.792969 65.128906 81.03125 65.167969 C 81.511719 65.246094 81.179688 64.351563 81.242188 64.167969 C 81.367188 63.796875 83.875 61.71875 84.792969 60.957031 C 85.128906 60.675781 85.480469 61.382813 85.679688 61.675781 C 86.007813 62.164063 86.15625 62.675781 85.976563 63.246094 C 85.863281 63.617188 85.261719 64.167969 85.726563 64.421875 C 86.347656 63.699219 88.089844 61.667969 88.34375 61.371094 C 88.59375 61.078125 87.777344 61.335938 87.871094 61.285156 C 87.503906 61.476563 87.15625 61.519531 86.808594 61.257813 C 86.714844 61.183594 85.71875 60.175781 85.820313 60.089844 C 86.25 59.726563 86.777344 59.128906 87.335938 58.992188 C 88.199219 58.777344 88.917969 60.507813 89.042969 61.121094 C 89.164063 61.699219 89.148438 62.304688 88.96875 62.871094 C 88.84375 63.257813 88.480469 63.566406 88.988281 63.800781 C 89.699219 62.824219 90.40625 61.851563 91.117188 60.878906 C 90.972656 60.886719 90.84375 60.851563 90.71875 60.78125 C 90.59375 60.695313 90.859375 60.851563 90.71875 60.78125 "/>
<path style=" stroke:none;fill-rule:nonzero;fill:rgb(100%,100%,100%);fill-opacity:1;" d="M 80.03125 51.898438 C 79.382813 53.40625 77.832031 54.960938 76.300781 55.566406 C 74.480469 56.28125 73.199219 54.738281 73.9375 53.011719 C 74.589844 51.496094 76.140625 49.957031 77.675781 49.34375 C 79.527344 48.609375 80.742188 50.191406 80.03125 51.898438 C 79.648438 52.789063 80.101563 51.730469 80.03125 51.898438 M 80.496094 56.652344 C 82.703125 54.792969 82.976563 51.597656 81.265625 49.3125 C 79.398438 46.824219 75.894531 46.214844 73.460938 48.257813 C 71.257813 50.113281 70.972656 53.308594 72.703125 55.585938 C 74.695313 58.207031 77.902344 58.5 80.496094 56.652344 C 81.652344 55.675781 80.398438 56.71875 80.496094 56.652344 "/>
<path style=" stroke:none;fill-rule:nonzero;fill:rgb(100%,100%,100%);fill-opacity:1;" d="M 74.050781 42.042969 C 74.527344 42.101563 74.976563 42.589844 75.320313 42.082031 C 74.578125 41.203125 73.835938 40.324219 73.09375 39.445313 C 72.496094 39.714844 73.140625 39.996094 72.898438 40.417969 C 72.65625 40.84375 70.339844 41.199219 69.722656 41.308594 C 69.945313 40.664063 70.617188 38.691406 70.878906 38.472656 C 71.421875 38.027344 71.761719 38.90625 72.164063 38.332031 C 71.246094 37.246094 70.335938 36.164063 69.417969 35.078125 C 69.109375 34.710938 68.863281 34.050781 68.441406 34.398438 C 68.476563 34.367188 68.445313 35.871094 68.351563 36.132813 C 68.265625 36.367188 67.414063 39.769531 66.425781 40.601563 C 65.929688 41.015625 64.1875 42.535156 63.722656 42.699219 C 63.179688 42.886719 62.898438 42.101563 62.503906 42.660156 C 63.332031 43.648438 64.164063 44.632813 64.992188 45.617188 C 65.117188 45.765625 65.59375 46.480469 65.761719 46.511719 C 66.28125 46.605469 65.820313 45.617188 65.875 45.425781 C 66.027344 44.992188 68.375 42.707031 69.371094 42.566406 C 70.832031 42.359375 72.570313 41.863281 74.050781 42.042969 C 74.390625 42.082031 73.699219 42 74.050781 42.042969 "/>
<path style=" stroke:none;fill-rule:nonzero;fill:rgb(86.299133%,37.998962%,26.298523%);fill-opacity:1;" d="M 67.792969 22.878906 C 63.75 22.710938 65.441406 18.925781 68.1875 18.070313 C 70.796875 17.257813 76.273438 19.789063 78.027344 21.46875 C 75.246094 22.324219 71.644531 22.199219 68.582031 22.34375 C 68.355469 19.222656 67.625 20.3125 67.792969 22.878906 "/>
<path style=" stroke:none;fill-rule:nonzero;fill:rgb(86.299133%,37.998962%,26.298523%);fill-opacity:1;" d="M 77.292969 35.425781 C 68.675781 35.355469 74.503906 22.105469 77.4375 22.90625 C 80.808594 23.980469 80.429688 35.527344 77.292969 35.425781 "/>
<path style=" stroke:none;fill-rule:nonzero;fill:rgb(86.299133%,37.998962%,26.298523%);fill-opacity:1;" d="M 83.402344 31.097656 C 82.558594 33.597656 81.039063 34.066406 81.207031 31.027344 C 81.402344 27.523438 83.6875 28.367188 86.136719 27.023438 C 88.175781 25.90625 89.277344 21.808594 92.777344 24.257813 C 94.339844 25.351563 96.128906 24.4375 96.628906 26.09375 C 96.601563 26.007813 92.085938 36.398438 94.597656 36.398438 C 89.636719 36.398438 91.824219 30.476563 93.722656 26.5 C 91.878906 27.386719 88.882813 33.1875 91.339844 34.144531 C 90.058594 35.832031 86.148438 38.089844 84.105469 36.441406 C 82.558594 35.195313 83.417969 33.117188 83.402344 31.097656 "/>
<path style=" stroke:none;fill-rule:nonzero;fill:rgb(86.299133%,37.998962%,26.298523%);fill-opacity:1;" d="M 87.503906 40.703125 C 84.015625 41.746094 79.382813 39.496094 84.996094 38.363281 C 88.476563 37.65625 92.183594 39.140625 87.503906 40.703125 C 87.644531 40.660156 87.378906 40.746094 87.503906 40.703125 "/>
<path style=" stroke:none;fill-rule:nonzero;fill:rgb(86.299133%,37.998962%,26.298523%);fill-opacity:1;" d="M 91.875 40.5625 C 91.140625 38.902344 92.4375 36.925781 94.554688 38.363281 C 96.402344 39.613281 93.703125 41.46875 91.875 40.5625 "/>
<path style=" stroke:none;fill-rule:nonzero;fill:rgb(86.299133%,37.998962%,26.298523%);fill-opacity:1;" d="M 88.929688 45.230469 C 86.519531 44.480469 78.390625 44.667969 83.710938 42.464844 C 85.351563 41.785156 93.867188 42.5625 88.929688 45.230469 "/>
<path style=" stroke:none;fill-rule:nonzero;fill:rgb(86.299133%,37.998962%,26.298523%);fill-opacity:1;" d="M 99.363281 48.542969 C 97.925781 47.316406 96.472656 47.246094 95.132813 48.542969 C 93.339844 45.25 86.816406 46.351563 83.765625 45.890625 C 85.40625 49.917969 98.632813 50.671875 99.363281 48.542969 "/>
<path style=" stroke:none;fill-rule:nonzero;fill:rgb(86.299133%,37.998962%,26.298523%);fill-opacity:1;" d="M 97.460938 50.96875 C 94.308594 50.820313 90.789063 50.402344 87.8125 51.050781 C 89.671875 51.515625 94.210938 52.847656 89.984375 53.96875 C 91.5 56.136719 93.957031 55.996094 95.570313 54.097656 C 94.914063 53.773438 94.558594 53.378906 94.019531 53.039063 C 95.6875 52.734375 97.253906 51.773438 97.460938 50.96875 "/>
<path style=" stroke:none;fill-rule:nonzero;fill:rgb(86.299133%,37.998962%,26.298523%);fill-opacity:1;" d="M 101.054688 47.089844 C 95.769531 43.976563 97.105469 41.664063 101.410156 39.503906 C 103.664063 38.371094 108.734375 34.296875 110.855469 35.652344 C 107.589844 39.464844 104.320313 43.277344 101.054688 47.089844 "/>
<path style=" stroke:none;fill-rule:nonzero;fill:rgb(95.698547%,58.799744%,45.498657%);fill-opacity:1;" d="M 97.289063 39.8125 C 92.8125 35.210938 103.980469 35.636719 105.777344 34.019531 C 107.089844 34.453125 116.546875 25.734375 118.851563 26.277344 C 117.195313 28.21875 113.628906 34.414063 111.074219 34.414063 C 109.109375 34.414063 107.125 34.121094 105.601563 35.519531 C 103.378906 37.566406 99.691406 38.609375 97.289063 39.8125 "/>
<path style=" stroke:none;fill-rule:nonzero;fill:rgb(95.698547%,68.998718%,63.899231%);fill-opacity:1;" d="M 98.757813 34.1875 C 96.304688 35.507813 93.984375 30.28125 98.21875 30.789063 C 101.035156 31.128906 103.882813 30.550781 106.570313 31.015625 C 104.640625 33.308594 101.863281 34.570313 98.757813 34.1875 "/>
<path style=" stroke:none;fill-rule:nonzero;fill:rgb(100%,100%,100%);fill-opacity:1;" d="M 111.390625 52.472656 C 111.578125 53.117188 111.6875 53.804688 111.605469 54.480469 C 111.496094 55.351563 110.625 57.40625 109.433594 56.820313 C 108.261719 56.246094 107.238281 55.09375 106.242188 54.269531 C 107.046875 53.332031 107.75 52.519531 109.097656 52.972656 C 109.46875 53.097656 109.785156 52.9375 109.394531 52.710938 C 108.992188 52.476563 106.28125 50.746094 106.136719 50.910156 C 105.867188 51.222656 106.664063 51.78125 106.355469 52.386719 C 106.128906 52.832031 105.746094 53.21875 105.425781 53.605469 C 104.703125 52.996094 103.503906 52.351563 104.367188 51.347656 C 104.910156 50.6875 105.617188 50.175781 106.464844 50.007813 C 107.03125 49.890625 108.308594 50.394531 108.472656 49.78125 C 107.386719 49.261719 106.300781 48.738281 105.214844 48.21875 C 105.390625 49.015625 101.867188 52.742188 101.082031 53.683594 C 100.96875 53.820313 100.425781 54.289063 100.417969 54.480469 C 100.410156 54.90625 101.039063 54.574219 101.078125 54.5625 C 101.5625 54.382813 107.894531 59.671875 108.046875 60.035156 C 108.148438 60.316406 107.828125 60.609375 108.019531 60.765625 C 108.007813 60.757813 108.246094 60.980469 108.273438 60.949219 C 108.664063 60.480469 112.796875 54.976563 113.644531 54.734375 C 112.851563 53.519531 112.058594 52.304688 111.277344 51.078125 C 110.6875 51.335938 111.261719 52.027344 111.390625 52.472656 "/>
<path style=" stroke:none;fill-rule:nonzero;fill:rgb(100%,100%,100%);fill-opacity:1;" d="M 105.230469 59.175781 C 103.152344 57.832031 99.632813 60.453125 99.101563 60.703125 C 98.066406 61.195313 97.316406 60.160156 97.851563 59.203125 C 98.320313 58.371094 99.246094 57.96875 100.164063 57.914063 C 100.4375 57.898438 101.511719 58.113281 101.621094 57.941406 C 101.75 57.738281 101.847656 57.722656 101.664063 57.597656 C 100.808594 57.015625 99.953125 56.441406 99.09375 55.859375 C 98.917969 56.914063 97.710938 57.589844 97.019531 58.304688 C 96.195313 59.15625 95.5 60.234375 95.5 61.457031 C 95.5 62.59375 96.179688 63.601563 97.175781 64.117188 C 98.3125 64.710938 99.496094 64.234375 100.5 63.609375 C 101.128906 63.21875 101.753906 62.753906 102.425781 62.4375 C 103.421875 61.972656 104.730469 62.375 104.378906 63.707031 C 104.09375 64.78125 103.027344 65.769531 101.972656 66.046875 C 101.355469 66.210938 100.703125 66.15625 100.101563 65.957031 C 99.667969 65.816406 99.105469 65.222656 98.871094 65.847656 C 100.03125 66.691406 101.191406 67.535156 102.351563 68.382813 C 102.453125 67.621094 102.875 67.292969 103.4375 66.820313 C 104.171875 66.175781 104.878906 65.496094 105.433594 64.6875 C 106.59375 62.992188 106.972656 60.625 105.230469 59.175781 "/>
<path style=" stroke:none;fill-rule:nonzero;fill:rgb(100%,100%,100%);fill-opacity:1;" d="M 105.230469 59.175781 C 106.152344 59.773438 104.636719 58.679688 105.230469 59.175781 "/>
<path style=" stroke:none;fill-rule:nonzero;fill:rgb(100%,100%,100%);fill-opacity:1;" d="M 134.460938 21.859375 C 134.453125 21.863281 134.453125 21.863281 134.460938 21.859375 "/>
<path style=" stroke:none;fill-rule:nonzero;fill:rgb(100%,100%,100%);fill-opacity:1;" d="M 134.546875 21.804688 C 134.621094 21.757813 134.699219 21.707031 134.546875 21.804688 C 134.496094 21.835938 134.472656 21.851563 134.460938 21.859375 C 134.476563 21.851563 134.507813 21.828125 134.542969 21.808594 C 134.199219 22.027344 133.875 22.28125 133.585938 22.570313 C 133.066406 21.671875 132.542969 20.773438 132.023438 19.875 C 133.199219 20.367188 134.371094 20.859375 135.546875 21.355469 C 135.191406 21.453125 134.855469 21.609375 134.546875 21.804688 M 141.921875 19.648438 C 141.191406 20.378906 133.5 17.308594 132.9375 16.886719 C 132.648438 16.769531 132.636719 15.5625 132.234375 16.050781 C 131.828125 16.539063 131.421875 17.027344 131.015625 17.515625 C 130.597656 18.019531 130.179688 18.523438 129.761719 19.027344 C 129.5 19.34375 129.222656 19.488281 129.722656 19.75 C 130.558594 19.328125 135.140625 27.09375 134.730469 28.210938 C 134.007813 28.585938 127.816406 23.152344 127.648438 22.792969 C 127.597656 22.648438 127.921875 21.773438 127.4375 21.847656 C 127.210938 21.886719 126.695313 22.746094 126.550781 22.921875 C 126.253906 23.277344 125.957031 23.636719 125.660156 23.992188 C 125.992188 24.476563 126.179688 23.972656 126.621094 24.035156 C 127.003906 24.113281 128.464844 25.367188 128.859375 25.699219 C 128.136719 25.726563 126.175781 25.832031 125.929688 25.8125 C 125.023438 25.925781 125.507813 25.148438 124.914063 24.882813 C 124.152344 25.804688 123.394531 26.722656 122.636719 27.644531 C 122.195313 28.179688 121.75 28.71875 121.308594 29.253906 C 121.257813 29.316406 121.261719 29.285156 121.359375 29.363281 C 121.691406 29.636719 121.464844 29.53125 121.929688 29.371094 C 122.433594 29.195313 128.484375 34.300781 128.703125 34.558594 C 129.082031 35.011719 128.550781 35.535156 129.113281 35.78125 C 129.714844 35.054688 130.3125 34.324219 130.914063 33.597656 C 131.003906 33.488281 131.054688 33.496094 130.933594 33.398438 C 130.507813 33.046875 130.457031 33.613281 129.933594 33.554688 C 129.398438 33.464844 125.535156 30.183594 124.035156 28.945313 C 125.859375 28.875 131.328125 28.671875 132.234375 28.640625 C 132.535156 28.628906 133.375 29.535156 133.304688 29.855469 C 133.222656 30.234375 132.84375 30.414063 133.359375 30.648438 C 133.839844 30.074219 134.34375 29.5 134.816406 28.914063 L 135.039063 28.632813 C 135.117188 28.582031 135.1875 28.488281 135.25 28.367188 L 135.417969 28.15625 C 135.84375 27.671875 137.21875 26.152344 137.054688 26.007813 C 136.59375 25.605469 136.367188 26.472656 135.757813 25.953125 C 135.40625 25.703125 134.53125 24.164063 134.3125 23.792969 C 134.050781 23.34375 134.921875 22.894531 135.277344 22.671875 C 136.054688 22.191406 138.523438 21.488281 138.757813 23.019531 C 138.800781 23.277344 138.488281 23.570313 138.675781 23.722656 C 138.71875 23.761719 138.878906 23.964844 138.945313 23.886719 C 139.109375 23.691406 141.304688 21.042969 142.242188 19.917969 C 142.144531 19.835938 142.035156 19.695313 141.921875 19.648438 "/>
<path style=" stroke:none;fill-rule:nonzero;fill:rgb(100%,100%,100%);fill-opacity:1;" d="M 124.519531 39.628906 C 124.5 39.652344 124.496094 39.65625 124.492188 39.65625 C 123.261719 40.949219 121.132813 39.753906 119.988281 38.925781 C 118.839844 38.097656 116.878906 36.355469 118.132813 34.824219 C 119.1875 33.535156 121.253906 34.589844 122.324219 35.304688 C 123.523438 36.109375 125.734375 37.902344 124.601563 39.519531 C 124.671875 39.429688 124.726563 39.371094 124.519531 39.628906 M 124.800781 33.015625 C 122.425781 31.039063 119.171875 31.613281 117.214844 33.847656 C 115.3125 36.160156 115.503906 39.511719 117.820313 41.464844 C 120.160156 43.390625 123.492188 42.902344 125.394531 40.617188 C 127.289063 38.316406 127.160156 34.949219 124.800781 33.015625 "/>
<path style=" stroke:none;fill-rule:nonzero;fill:rgb(100%,100%,100%);fill-opacity:1;" d="M 124.800781 33.015625 C 125.972656 33.976563 124.546875 32.804688 124.800781 33.015625 "/>
<path style=" stroke:none;fill-rule:nonzero;fill:rgb(100%,100%,100%);fill-opacity:1;" d="M 124.492188 39.65625 C 124.5 39.648438 124.511719 39.640625 124.519531 39.628906 C 124.546875 39.59375 124.574219 39.558594 124.597656 39.519531 C 124.550781 39.582031 124.488281 39.65625 124.492188 39.65625 "/>
<path style=" stroke:none;fill-rule:nonzero;fill:rgb(100%,100%,100%);fill-opacity:1;" d="M 116.890625 48.894531 C 116.652344 49.191406 116.847656 48.949219 116.226563 49.542969 C 115.921875 49.835938 109.789063 44.871094 110.035156 44.601563 C 110.867188 43.683594 112.601563 43.042969 113.609375 43.304688 C 115.800781 43.863281 118.824219 46.5625 116.890625 48.894531 M 118.210938 42.140625 C 118.320313 42.234375 118.480469 42.363281 118.144531 42.082031 C 115.3125 39.957031 111.953125 40.578125 109.742188 43.242188 C 108.753906 44.429688 107.769531 45.617188 106.78125 46.808594 C 107.132813 47.320313 107.546875 46.691406 108.054688 46.984375 C 108.492188 47.234375 114.300781 52.082031 114.394531 52.351563 C 114.558594 52.808594 114.140625 52.898438 114.539063 53.226563 C 114.710938 53.367188 119.074219 47.980469 119.472656 47.035156 C 120.164063 45.277344 119.613281 43.355469 118.210938 42.140625 "/>
</g>
</svg>
