<svg width="470" height="500" viewBox="0 0 470 500" fill="none" xmlns="http://www.w3.org/2000/svg">
<path d="M81.5 69.5H383.5V430.5H81.5V69.5Z" fill="#010123"/>
<path d="M233.154 500C163.815 500 108.232 477.395 66.4052 432.185C24.8017 386.978 4 328.16 4 255.734C4 177.913 25.2491 115.834 67.7473 69.5007C110.245 23.1669 167.953 0 240.87 0C308.421 0 362.773 22.4922 403.929 67.4765C445.31 112.461 466 171.278 466 243.928C466 322.875 444.861 385.289 402.589 431.175C360.314 477.057 303.835 500 233.154 500ZM236.845 70.5129C192.781 70.5129 156.881 87.0445 129.146 120.108C101.634 153.171 87.878 196.694 87.878 250.674C87.878 304.43 101.298 347.728 128.139 380.567C154.98 413.405 190.097 429.825 233.49 429.825C279.567 429.825 315.915 414.192 342.532 382.928C369.148 351.665 382.457 307.916 382.457 251.687C382.457 193.882 369.485 149.235 343.539 117.746C317.814 86.2574 282.251 70.5129 236.845 70.5129Z" fill="#190CD6"/>
<path d="M233.802 413C188.776 413 152.683 398.262 125.523 368.785C98.5076 339.31 85 300.96 85 253.739C85 202.999 98.7981 162.524 126.394 132.314C153.991 102.105 191.463 87 238.812 87C282.676 87 317.97 101.665 344.694 130.995C371.565 160.324 385 198.673 385 246.041C385 297.514 371.274 338.208 343.824 368.126C316.372 398.041 279.698 413 233.802 413ZM236.198 132.974C207.585 132.974 184.274 143.753 166.263 165.31C148.399 186.868 139.466 215.244 139.466 250.44C139.466 285.488 148.181 313.718 165.61 335.13C183.039 356.54 205.842 367.246 234.019 367.246C263.939 367.246 287.542 357.053 304.826 336.669C322.109 316.285 330.751 287.761 330.751 251.1C330.751 213.411 322.328 184.301 305.48 163.771C288.776 143.24 265.682 132.974 236.198 132.974Z" fill="#371CFF"/>
<path d="M234.217 356C204.8 356 181.22 346.416 163.475 327.247C145.825 308.079 137 283.14 137 252.431C137 219.435 146.015 193.114 164.044 173.468C182.074 153.823 206.556 144 237.49 144C266.148 144 289.207 153.537 306.667 172.61C324.222 191.683 333 216.622 333 247.425C333 280.899 324.032 307.363 306.098 326.818C288.163 346.272 264.203 356 234.217 356ZM235.783 173.897C217.089 173.897 201.859 180.907 190.092 194.926C178.42 208.945 172.585 227.398 172.585 250.286C172.585 273.078 178.278 291.437 189.665 305.361C201.052 319.284 215.95 326.246 234.359 326.246C253.907 326.246 269.328 319.617 280.62 306.362C291.911 293.106 297.557 274.556 297.557 250.715C297.557 226.206 292.054 207.276 281.047 193.924C270.133 180.573 255.046 173.897 235.783 173.897Z" fill="#2767DE"/>
<path d="M234.497 318C215.586 318 200.427 311.851 189.02 299.554C177.673 287.258 172 271.26 172 251.56C172 230.392 177.795 213.507 189.386 200.904C200.976 188.301 216.715 182 236.601 182C255.024 182 269.847 188.118 281.072 200.354C292.357 212.589 298 228.588 298 248.348C298 269.822 292.235 286.799 280.706 299.28C269.176 311.759 253.773 318 234.497 318ZM235.503 201.18C223.486 201.18 213.695 205.676 206.131 214.669C198.627 223.663 194.876 235.501 194.876 250.183C194.876 264.805 198.536 276.582 205.856 285.514C213.176 294.446 222.754 298.912 234.588 298.912C247.155 298.912 257.068 294.66 264.327 286.156C271.586 277.653 275.215 265.753 275.215 250.459C275.215 234.736 271.678 222.592 264.601 214.027C257.586 205.462 247.887 201.18 235.503 201.18Z" fill="#1F8DCE"/>
<path d="M234.664 295C222.057 295 211.951 290.931 204.346 282.793C196.782 274.656 193 264.069 193 251.032C193 237.024 196.863 225.85 204.59 217.51C212.317 209.17 222.81 205 236.067 205C248.349 205 258.232 209.049 265.714 217.146C273.238 225.243 277 235.83 277 248.907C277 263.117 273.157 274.352 265.471 282.612C257.784 290.87 247.516 295 234.664 295ZM235.335 217.692C227.324 217.692 220.797 220.668 215.754 226.619C210.752 232.571 208.251 240.405 208.251 250.121C208.251 259.797 210.691 267.591 215.571 273.502C220.451 279.413 226.836 282.368 234.725 282.368C243.103 282.368 249.712 279.554 254.551 273.927C259.391 268.3 261.81 260.425 261.81 250.304C261.81 239.899 259.452 231.862 254.734 226.194C250.057 220.526 243.591 217.692 235.335 217.692Z" fill="#18B4BD"/>
<path d="M234.776 280C226.372 280 219.634 277.287 214.564 271.862C209.521 266.437 207 259.379 207 250.688C207 241.35 209.576 233.9 214.727 228.34C219.878 222.78 226.873 220 235.712 220C243.9 220 250.488 222.699 255.476 228.097C260.492 233.495 263 240.553 263 249.271C263 258.745 260.438 266.235 255.314 271.741C250.19 277.247 243.344 280 234.776 280ZM235.224 228.462C229.883 228.462 225.531 230.445 222.169 234.413C218.834 238.381 217.167 243.603 217.167 250.081C217.167 256.532 218.794 261.727 222.047 265.668C225.301 269.609 229.557 271.579 234.817 271.579C240.402 271.579 244.808 269.703 248.034 265.951C251.26 262.2 252.874 256.95 252.874 250.202C252.874 243.266 251.301 237.908 248.156 234.13C245.038 230.351 240.727 228.462 235.224 228.462Z" fill="#0FD9AC"/>
<path d="M234.856 270C229.453 270 225.122 268.192 221.863 264.575C218.621 260.958 217 256.253 217 250.459C217 244.233 218.656 239.267 221.967 235.56C225.279 231.853 229.776 230 235.457 230C240.721 230 244.956 231.799 248.163 235.398C251.388 238.997 253 243.702 253 249.514C253 255.83 251.353 260.823 248.059 264.494C244.765 268.165 240.364 270 234.856 270ZM234.882 237C231.449 237 229.661 237.855 227.5 240.5C225.356 243.145 225 245.735 225 250.054C225 254.354 225.408 256.873 227.5 259.5C229.592 262.127 231.475 263 234.856 263C238.447 263 240.426 262.001 242.5 259.5C244.574 256.999 245 254.552 245 250.054C245 245.43 244.522 243.019 242.5 240.5C240.496 237.981 238.42 237 234.882 237Z" fill="#08FF9C"/>
<circle cx="235" cy="250" r="12" fill="#7AFFCA"/>
</svg>
