<?xml version="1.0" encoding="UTF-8"?>
<svg xmlns="http://www.w3.org/2000/svg" xmlns:xlink="http://www.w3.org/1999/xlink" width="63pt" height="75.08pt" viewBox="0 0 63 75.08" version="1.1" fill="#81b3d2">
<defs>
<clipPath id="clip1">
  <path d="M 0 0 L 63 0 L 63 75.078125 L 0 75.078125 Z M 0 0 "/>
</clipPath>
</defs>
<g id="surface1">
<g clip-path="url(#clip1)" clip-rule="nonzero">
<path fill="#81b3d2" style=" stroke:none;fill-rule:nonzero;" d="M 60 36.082031 L 38.054688 36.082031 L 38.054688 25.226563 L 60 25.226563 Z M 57.125 72.144531 L 38.054688 72.144531 L 38.054688 39.082031 L 57.125 39.082031 Z M 35.113281 72.140625 L 28.050781 72.140625 L 28.050781 25.226563 L 35.113281 25.226563 Z M 25.113281 36.082031 L 3 36.082031 L 3 25.226563 L 25.113281 25.226563 Z M 25.113281 72.144531 L 6.042969 72.144531 L 6.042969 39.082031 L 25.113281 39.082031 Z M 19.230469 15.71875 C 17.042969 14.25 12.789063 11.339844 12.890625 8.039063 C 13 4.488281 18.542969 1.550781 21.570313 4.199219 C 25.367188 7.53125 27.195313 15.171875 28.582031 20.558594 C 25.382813 19.039063 22.351563 17.804688 19.230469 15.71875 M 41.765625 5.871094 C 43.835938 5.5625 46.671875 7.152344 46.941406 9.039063 C 47.328125 11.765625 43.59375 14.234375 41.933594 15.382813 C 39.449219 17.105469 37.082031 17.996094 34.757813 19.390625 C 35.628906 15.746094 37.269531 6.535156 41.765625 5.871094 M 60.164063 22.226563 L 35.757813 22.226563 C 49.359375 15.410156 50.445313 11.113281 49.945313 8.707031 C 48.800781 4.789063 44.34375 1.769531 40.097656 3.367188 C 34.613281 5.429688 33.066406 13.628906 31.585938 19.554688 C 29.691406 13.558594 27.859375 5.90625 23.574219 2.03125 C 22.332031 0.90625 20.523438 -0.207031 17.898438 0.0273438 C 13.933594 0.378906 8.246094 5.34375 10.554688 10.875 C 12.769531 16.191406 20.09375 19.546875 24.90625 22.226563 L 2.832031 22.226563 C 1.273438 22.226563 0 23.503906 0 25.0625 L 0 36.246094 C 0 37.804688 1.273438 39.082031 2.835938 39.082031 L 3.105469 39.082031 L 3.105469 75.078125 L 60.0625 75.078125 L 60.0625 39.082031 L 60.167969 39.082031 C 61.730469 39.082031 63.003906 37.804688 63.003906 36.246094 L 63.003906 25.0625 C 63 23.503906 61.726563 22.226563 60.164063 22.226563 "/>
</g>
</g>
</svg>
