<svg xmlns="http://www.w3.org/2000/svg" width="84" height="75.08pt" viewBox="0 0 63 75.08" fill="#81b3d2"><defs><clipPath id="a"><path d="M0 0h63v75.078H0zm0 0"/></clipPath></defs><g clip-path="url(#a)"><path d="M60 36.082H38.055V25.227H60zm-2.875 36.063h-19.07V39.082h19.07zm-22.012-.004h-7.062V25.227h7.062zm-10-36.059H3V25.227h22.113zm0 36.063H6.043V39.082h19.07zM19.23 15.719c-2.187-1.469-6.44-4.38-6.34-7.68.11-3.55 5.653-6.488 8.68-3.84 3.797 3.332 5.625 10.973 7.012 16.36-3.2-1.52-6.23-2.754-9.352-4.84M41.766 5.87c2.07-.309 4.906 1.281 5.175 3.168.387 2.727-3.347 5.195-5.007 6.344-2.485 1.722-4.852 2.613-7.176 4.008.87-3.645 2.512-12.856 7.008-13.52m18.398 16.356H35.758c13.601-6.817 14.687-11.114 14.187-13.52-1.144-3.918-5.601-6.937-9.847-5.34-5.485 2.063-7.032 10.262-8.512 16.188-1.895-5.996-3.727-13.649-8.012-17.524C22.332.906 20.524-.207 17.898.027c-3.964.352-9.652 5.317-7.343 10.848 2.215 5.316 9.539 8.672 14.351 11.352H2.832A2.842 2.842 0 000 25.062v11.184a2.843 2.843 0 002.836 2.836h.27v35.996h56.956V39.082h.106a2.843 2.843 0 002.836-2.836V25.062a2.85 2.85 0 00-2.84-2.835"/></g></svg>