<svg xmlns="http://www.w3.org/2000/svg" width="101.56" height="91.947" viewBox="0 0 76.17 68.96" fill="#81b3d2"><defs><clipPath id="a"><path d="M0 46h76.172v22.96H0zm0 0"/></clipPath></defs><g clip-path="url(#a)"><path d="M73.164 53.75c0 .68-.57 1.25-1.25 1.25H4.25C3.574 55 3 54.43 3 53.75v-3.453c0-.68.574-1.254 1.25-1.254h67.664c.68 0 1.25.574 1.25 1.254zm-5.207 5.29a6.93 6.93 0 01-6.922 6.92H15.13a6.93 6.93 0 01-6.922-6.92V58h59.75zm3.957-12.997H4.25A4.265 4.265 0 000 50.297v3.453A4.265 4.265 0 004.25 58h.957v1.04c0 5.456 4.465 9.92 9.922 9.92h45.906c5.457 0 9.922-4.464 9.922-9.92V58h.957c2.34 0 4.25-1.914 4.25-4.25v-3.453c0-2.34-1.91-4.254-4.25-4.254"/></g><path d="M16.16 37.86l5.477 4 5.476-4 5.477 4 5.48-4 5.477 4 5.48-4 5.477 4 5.48-4 5.489 4 6.37-4.65-1.769-2.42-4.601 3.355-5.489-4-5.48 4-5.477-4-5.48 4-5.477-4-5.48 4-5.477-4-5.476 4-5.473-4-5.477 4-4.593-3.356-1.77 2.422 6.364 4.648M38.082 3c16.031 0 29.152 11.156 29.844 25.094H8.242C8.934 14.156 22.051 3 38.082 3m32.805 28.094c.043-.61.054-2.614.039-3C70.242 12.477 55.805 0 38.082 0 20.363 0 5.926 12.477 5.242 28.094c-.02.386-.004 2.39.04 3"/><path d="M38.082 13.043a1.999 1.999 0 11-2 2c0-1.105.898-2 2-2m-8-4.961a1.999 1.999 0 11.002 4.002 1.999 1.999 0 01-.002-4.002m16 0a1.999 1.999 0 11.002 4.002 1.999 1.999 0 01-.002-4.002"/></svg>