<svg xmlns="http://www.w3.org/2000/svg" width="99.6" height="96.467" viewBox="0 0 74.7 72.35" fill="#81b3d2"><defs><clipPath id="a"><path d="M0 0h74.7v72.352H0zm0 0"/></clipPath></defs><path d="M42.566 62.414H32.441V44.348h10.125zm-13.062 2.934h16V41.41h-16zm0 0"/><g clip-path="url(#a)"><path d="M37.352.004L0 37.367l2.078 2.078 7.832-7.832v37.801H5.973v2.938h63.875v-2.938h-5.063V31.61l7.836 7.836 2.074-2.082-9.906-9.91V.473H50.973v13.16zm16.562 16.57V3.414h7.938v21.102zM12.848 28.676l24.5-24.504 24.504 24.504V69.41H12.848"/></g><path d="M37.504 22.246a4.969 4.969 0 010 9.938 4.97 4.97 0 110-9.938m-7.75 4.969a7.751 7.751 0 1015.498-.002 7.751 7.751 0 00-15.498.002M16.91 45.352h3v-3.938h-3zm5.938 0h3v-3.938h-3zm-5.938 6h3v-3.938h-3zm5.938 0h3v-3.938h-3zm26-6h3v-3.938h-3zm5.937 0h3v-3.938h-3zm-5.937 6h3v-3.938h-3zm5.937 0h3v-3.938h-3zm0 0"/></svg>