<svg xmlns="http://www.w3.org/2000/svg" xmlns:xlink="http://www.w3.org/1999/xlink"><symbol viewBox="0 0 8.67 18.94" id="fb-icon"><path d="M6.273 3.352h2.399V-.004H5.797c-3.14.18-4.258 2.387-3.848 6.113H0v3.52h1.96v9.312h3.837V9.63h2.855V6.11H5.79c-.023-1.043-.039-2.402.484-2.757"/></symbol><symbol viewBox="0 0 459.75 350.08" id="header-text"><defs><clipPath id="ba"><path d="M381 138h78.75v76H381zm0 0"/></clipPath><clipPath id="bb"><path d="M127 311h112v39.078H127zm0 0"/></clipPath></defs><path d="M159.027 70.207h-.144c-.977 0-1.754.805-1.754 1.785 0 .371.113.719.289 1.008l-.031.059c-1.41 2.418-4.836 1.957-3.051-1.153l2.273-3.941 1.442-2.45c2.101-3.57 4.976-2.16 3.164.95zm6.395-.203l-.203.23c-1.356 1.47-3.024 2.188-4.524 2.215l2.825-4.863c1.812-3.14.144-6.106-2.68-6.106-2.305 0-4.086.922-5.817 3.918l-1.464 2.563-1.23 2.098-.153.175c-2.16 2.504-4.262 4.493-5.586 4.493-.66 0-1.035-.461-.348-1.641l6.422-11.203h2.45l.863-1.442H153.5l2.82-4.89h-2.992l-2.824 4.894h-2.707l-.863 1.442h2.734l-6.02 10.422c-1.265 2.214-.37 4.261 2.047 4.261 1.739 0 3.66-1.308 5.512-3.086-.008 3.817 5.297 4.563 8.54.465h.66c1.784 0 4.605-1.094 6.132-2.906-.2-.406-.715-.867-1.117-1.04m35.754-4.203c1.726-2.964 4.781-2.476 2.996.634l-.434.75c-1.437 2.445-3.367 2.39-4.492 1.988zm5.699 4.204l-.2.23c-2.16 2.504-4.925 4.489-7.027 4.489-1.843 0-2.937-1.149-1.554-3.567l.289-.52c1.93.805 5.558.43 7.804-3.456l.43-.75c1.613-2.762.059-4.836-2.39-4.836-2.418 0-4.348 1.27-5.614 3.457l-2.906 4.98-.172.2c-2.16 2.503-4.262 4.492-5.586 4.492-.664 0-1.039-.461-.347-1.641l4.32-7.57c1.293-2.278.058-3.918-1.613-3.918-1.297 0-2.68.718-4.176 2.273l4.781-8.32h-2.996l-8.352 14.492-.168.191c-2.16 2.508-4.261 4.493-5.585 4.493-.665 0-1.04-.461-.348-1.641l6.422-11.203h2.445l.863-1.438h-2.472l2.82-4.894h-2.992l-2.824 4.894h-2.707l-.864 1.442h2.735l-6.02 10.422c-1.266 2.218-.371 4.261 2.047 4.261 1.215 0 2.516-.636 3.82-1.625l-.77 1.336h3.02l4.551-7.914c4.606-5.789 6.652-5.039 5.356-2.824l-3.887 6.77c-1.27 2.214-.375 4.261 2.043 4.261 1.781 0 3.758-1.375 5.644-3.218.149 1.867 1.657 3.218 4.059 3.218 3.394 0 6.766-2.648 9.238-5.53-.195-.403-.71-.864-1.117-1.036m78.539.203h-.144c-.98 0-1.758.805-1.758 1.785 0 .371.117.719.289 1.008l-.028.059c-1.41 2.418-4.84 1.957-3.054-1.153l2.273-3.941 1.442-2.45c2.101-3.57 4.976-2.16 3.168.95zm-29.539 4.52c-.664 0-1.035-.461-.348-1.641l4.176-7.285c1.613-2.793 4.809-2.074 3.34.633l-2.273 3.972c-1.813 2.91-3.63 4.32-4.895 4.32m-1.383 6.68c-.633 1.121-1.64.95-1.64.145 0-.778.718-1.668 2.992-2.563zm-18.828-11.199h-.144c-.977 0-1.754.805-1.754 1.785 0 .371.113.719.285 1.008l-.028.059c-1.41 2.418-4.835 1.957-3.05-1.153l2.273-3.941 1.438-2.45c2.105-3.57 4.98-2.16 3.168.95zm-18.394 4.52c-.665 0-1.04-.461-.348-1.641l4.176-7.285c1.613-2.793 4.808-2.074 3.34.633l-2.274 3.972c-1.812 2.91-3.629 4.32-4.894 4.32m-1.383 6.68c-.633 1.121-1.64.95-1.64.145 0-.778.718-1.668 2.991-2.563zm57.175-15.605c1.727-2.965 4.778-2.477 2.993.633l-.43.75c-1.441 2.445-3.371 2.39-4.492 1.988zm42.985 4.203l-.203.23a18.763 18.763 0 01-3.602 3.254c.953-2.851.75-7.23 2.594-11.058l-2.246-1.207c-1.238 1.699-3.942 5.613-6.649 8.78l-.203.231c-2.156 2.504-4.258 4.489-5.586 4.489-.66 0-1.035-.461-.343-1.641l6.39-11.2h-2.992l-5.324 9.302c-2.278 2.07-4.031 3.222-4.61 2.964-.746-.316 0-1.437.375-2.074l5.844-10.191H296.5l-4.695 8.125-.2.226c-1.351 1.47-3.02 2.188-4.52 2.215l2.821-4.863c1.813-3.14.149-6.106-2.676-6.106-2.304 0-4.09.922-5.816 3.918l-1.469 2.563-1.226 2.098-.156.175c-2.157 2.508-4.922 4.493-7.024 4.493-1.844 0-2.937-1.153-1.555-3.57l.29-.52c1.925.808 5.554.433 7.8-3.453l.434-.75c1.61-2.766.058-4.836-2.39-4.836-2.419 0-4.348 1.265-5.614 3.453l-2.906 4.984-.172.2c-2.48 2.85-4.61 4.69-6.973 5.699l6.711-11.461h-1.758c0-1.239-1.265-2.88-3.136-2.88-1.614 0-3.86 1.27-5.125 3.458l-2.872 4.957-.007-.004-.203.23c-2.157 2.504-4.262 4.489-5.586 4.489-.66 0-1.036-.461-.344-1.641l2.992-5.242c1.035-1.813.547-2.88-.434-4.059l-1.668-2.015c-.433-.547-.433-1.153.172-1.73l-1.554-1.7c-1.7 1.527-1.844 3.227-.778 4.61l.262.343c-1.324 1.871-3.11 4.406-5.07 6.711l.004.004-.2.226c-1.355 1.47-3.023 2.192-4.523 2.22l2.82-4.868c1.817-3.137.145-6.102-2.676-6.102-2.304 0-4.09.922-5.816 3.915l-1.469 2.562-1.226 2.102-.153.175c-2.476 2.852-4.609 4.692-6.968 5.7l6.707-11.461H226.8c0-1.239-1.27-2.88-3.14-2.88-1.61 0-3.856 1.27-5.126 3.458l-4.203 7.254c-1.27 2.218-.375 4.261 2.043 4.261.836 0 1.844-.375 2.852-1.007l-.836 1.41c-4.032 1.238-6.563 2.879-6.563 5.125 0 2.879 4.402 3.484 6.563-.2l2.273-3.945c2.399-.746 4.746-2.156 7.184-4.48-.024 3.832 5.293 4.582 8.539.476h.66c1.785 0 4.605-1.093 6.133-2.906 1.437-1.672 2.562-3.168 4.953-6.422l.398.492c.375.489.524 1.094.176 1.696l-3.168 5.5c-1.27 2.218-.375 4.265 2.047 4.265 1.516 0 3.176-1 4.8-2.433-.05 1.394.88 2.433 2.598 2.433.832 0 1.84-.375 2.852-1.011l-.836 1.41c-4.031 1.238-6.563 2.879-6.563 5.125 0 2.879 4.403 3.484 6.563-.2l2.273-3.945c2.442-.761 4.829-2.215 7.317-4.617.133 1.875 1.644 3.234 4.055 3.234 2.437 0 4.859-1.367 6.949-3.199-.117 3.918 5.265 4.723 8.539.578h.664c.937 0 2.156-.308 3.328-.855-.805 2.082-.063 3.48 1.648 3.48 1.641 0 3.485-1.5 4.922-2.879-.285 1.61.664 2.88 2.563 2.88 2.476 0 5.328-2.65 7.805-5.532 1.695-1.957 3.195-4.059 4.261-5.469-1.183 3.11-.55 8.696-3.398 8.696-1.008 0-1.41-1.094-1.41-1.094l-1.871.976s.546 2.422 3.28 2.422c.29 0 .548-.03.837-.058.027 0 .058-.032.086-.032 3.05-.402 6.074-2.82 8.32-5.44-.172-.462-.691-.923-1.121-1.036m-214.624-1.223h28.918v-1.957h-28.918zm227 0h28.918v-1.957h-28.918zm0 0" fill="#766357"/><path d="M163.184.004h7.707l-1.211 44.918h-14.524l-1.976-18.547-1.977 18.547h-14.586L135.47.004h7.644l.64 37.152h.825L149.36.004h7.578l4.907 37.152h.765m32.421 0v7.766h-20.894V.004h20.894v7.7h-13.25v10.843h10.574v7.7h-10.574v10.91m34.59-.001v7.766H198.09V.004h7.644v37.152m26.883-8.793l7.707-1.797v13.606c0 2.566-2.168 4.75-4.715 4.75h-11.468c-2.61 0-4.711-2.184-4.711-4.75V4.754c0-2.633 2.101-4.75 4.71-4.75h11.47c2.546 0 4.714 2.117 4.714 4.75v9.11l-7.71 1.796V7.703h-5.544v29.453h5.543m25.481-29.453h-5.543v29.453h5.543zm2.996-7.7c2.547 0 4.715 2.118 4.715 4.75v35.419c0 2.566-2.168 4.75-4.715 4.75h-11.47c-2.61 0-4.715-2.184-4.715-4.75V4.754c0-2.633 2.106-4.75 4.715-4.75m41.216 0h7.578v44.918h-7.644V22.848l-3.06 11.422h-7.452l-2.992-11.422v22.074h-7.649V.004h7.582l6.817 21.687m39.117 15.465v7.766h-20.895V.004h20.895v7.7h-13.25v10.843h10.574v7.7h-10.574v10.91" fill="#81b3d2"/><path d="M44.465 157.613c-3.57-2.98-8.137-4.965-12.903-4.965-3.57 0-8.335 2.086-8.335 6.254 0 4.368 5.261 6.055 8.636 7.149l4.961 1.488c10.422 3.074 18.461 8.336 18.461 20.445 0 7.446-1.785 15.09-7.742 20.153-5.852 4.96-13.695 7.047-21.238 7.047-9.43 0-18.66-3.176-26.305-8.54l8.336-15.68c4.867 4.266 10.625 7.74 17.273 7.74 4.567 0 9.43-2.282 9.43-7.544 0-5.46-7.644-7.344-11.812-8.535-12.207-3.477-20.25-6.648-20.25-21.145 0-15.187 10.82-25.109 25.808-25.109 7.543 0 16.774 2.383 23.426 6.152m39.621 12.313v12.504h21.938v16.48H91.832v12.899h23.125v16.48H72.375v-74.84h42.582v16.477H91.832m57.039 41.887h4.367c11.614 0 21.54-6.356 21.54-20.946 0-13.398-8.833-20.941-21.34-20.941h-4.567zm-19.453-58.368h27.594c20.843 0 38.015 16.38 38.015 37.422 0 21.04-17.27 37.418-38.015 37.418h-27.594m94.922-38.707c0 12.903 9.527 22.332 21.14 22.332 11.614 0 21.141-9.43 21.141-22.332 0-10.324-9.523-19.754-21.14-19.754-11.614 0-21.141 9.43-21.141 19.754m62.531-.101c0 24.218-17.367 41.293-41.39 41.293-24.02 0-41.391-17.07-41.391-41.293 0-22.63 19.851-38.512 41.39-38.512 21.54 0 41.391 15.883 41.391 38.512m10.367-36.032h19.453l35.637 45.758h.195v-45.758h19.454v74.84h-19.454l-35.632-45.855h-.2v45.855h-19.453" fill="#fff"/><g clip-path="url(#ba)"><path d="M420.945 161.484h-.199l-8.039 23.825h16.176zm-13.601 38.711l-5.16 13h-20.645l28.785-74.84h21.242l28.188 74.84h-20.746l-4.863-13" fill="#fff"/></g><path d="M102.793 285.992l3.062-5.25c2.77-4.777 6.31-1.969 4.41 1.606-1.453 2.734-3.609 3.574-7.472 3.644m-4.086 17.285c-2.262 0-4.047-.507-5.469-1.308.657-.77 1.313-1.715 1.895-2.7l6.383-11.05 1.02.105c8.901 1.863 5.362 14.953-3.829 14.953m9.371-15.535c7.66-2.586 8.242-12.18.695-12.18-2.078 0-4.558 1.461-6.273 4.45l-10.21 17.652a14.71 14.71 0 01-1.458 2.149c-2.625-3.61-1.86-9.004 1.82-11.375l-1.53-1.934c-7.95 5.066-5.614 19.691 7.66 19.691 11.34 0 16.593-13.601 9.296-18.453" fill="#fff"/><path d="M119.813 290.441c2.19-3.753 6.054-3.136 3.792.805l-.546.945c-1.825 3.102-4.27 3.028-5.688 2.516zm24.183 9.227l5.29-9.227c2.042-3.539 6.089-2.625 4.23.805l-2.953 5.176c-2.297 3.61-4.56 5.324-6.13 5.324-.835 0-1.312-.582-.437-2.078m54.191-9.227c2.192-3.753 6.055-3.136 3.793.805l-.546.945c-1.825 3.102-4.27 3.028-5.688 2.516zm-58.027 9.563c-.629 2.25.57 4.078 3.145 4.078 1.53 0 3.43-.984 5.25-2.48.183 1.46 1.351 2.48 3.285 2.48 2.02 0 4.234-1.394 6.39-3.36-.417 2.051.543 3.36 2.41 3.36 2.083 0 4.415-1.898 6.239-3.648-.367 2.043.84 3.648 3.246 3.648 3.137 0 6.746-3.355 9.883-7.004-.028-.05-.07-.101-.102-.152 2.098-2.438 3.946-5.024 5.27-6.774-1.496 3.938-.696 11.012-4.305 11.012-1.277 0-1.789-1.387-1.789-1.387l-2.371 1.243s.695 3.062 4.156 3.062c.367 0 .696-.039 1.059-.074.039 0 .074-.035.11-.035 2.784-.368 5.55-2.063 7.944-4.223.055 2.492 1.993 4.332 5.145 4.332 4.3 0 8.57-3.355 11.707-7.004-.258-.512-.914-1.094-1.422-1.312l-.258.293c-2.734 3.171-6.234 5.687-8.894 5.687-2.336 0-3.723-1.457-1.973-4.52l.367-.656c2.442 1.02 7.04.547 9.883-4.379l.547-.945c2.043-3.504.074-6.129-3.027-6.129-3.063 0-5.508 1.606-7.11 4.375l-3.683 6.32c-.035-.011-.07-.039-.106-.046l-.254.293a23.76 23.76 0 01-4.558 4.12c1.203-3.609.945-9.152 3.281-14.003l-2.844-1.531c-1.566 2.148-4.996 7.109-8.426 11.12.036.048.075.09.114.137l-.137.157c-2.734 3.171-5.398 5.687-7.074 5.687-.84 0-1.313-.582-.442-2.078l8.098-14.188h-3.793l-6.746 11.778c-2.883 2.625-5.105 4.086-5.836 3.758-.945-.403 0-1.825.477-2.625l7.398-12.91h-3.793l-6.035 10.445a2.143 2.143 0 00-.285-.164l-.258.293c-2.734 3.172-5.395 5.687-7.074 5.687-.836 0-1.313-.582-.438-2.078l6.125-10.723h-2.148c.144-1.601-1.496-3.828-3.977-3.828-2.043 0-4.886 1.606-6.492 4.375l-3.844 6.637a2.748 2.748 0 00-.578-.363l-.254.293c-2.734 3.172-6.238 5.687-8.898 5.687-2.332 0-3.723-1.46-1.973-4.523l3.903-6.781c2.19-3.758 6.054-3.137 3.792.8l-.546.95h3.101l.547-.95c2.04-3.5.07-6.125-3.027-6.125-3.063 0-5.508 1.606-7.11 4.375l-3.77 6.469a2.293 2.293 0 00-.35-.195l-.255.293c-2.734 3.172-6.234 5.687-8.894 5.687-2.336 0-3.723-1.46-1.973-4.523l.363-.656c2.446 1.023 7.04.546 9.883-4.375l.547-.95c2.043-3.5.074-6.125-3.023-6.125-3.063 0-5.508 1.606-7.114 4.375l-3.972 6.82c-2.371 4.047-.328 7.766 4.156 7.766 3.34 0 6.656-2.023 9.441-4.633-.097 2.645 1.864 4.633 5.141 4.633 3.102.008 6.176-1.734 8.828-4.07m111.3-9.563c2.188-3.753 6.056-3.136 3.794.805l-.547.945c-1.824 3.102-4.27 3.028-5.691 2.516zm-3.062 13.641c4.301 0 8.57-3.355 11.707-7.004-.253-.512-.91-1.094-1.421-1.312l-.254.293c-2.739 3.171-6.239 5.687-8.903 5.687-2.332 0-3.718-1.457-1.968-4.52l.363-.656c2.445 1.02 7.039.547 9.883-4.379l.547-.945c2.043-3.504.074-6.129-3.028-6.129-3.058 0-5.504 1.606-7.11 4.375l-3.69 6.34c-.04-.02-.079-.05-.114-.066l-.258.293c-2.73 3.171-5.394 5.687-7.074 5.687-.836 0-1.308-.582-.437-2.078l5.472-9.59c1.64-2.883.07-4.96-2.043-4.96-1.644 0-3.394.91-5.289 2.882l6.055-10.543h-3.793l-10.695 18.563a2.331 2.331 0 00-.438-.254l-.254.293c-2.734 3.171-5.394 5.687-7.074 5.687-.84 0-1.312-.582-.437-2.078l8.132-14.188h3.102l1.094-1.824h-3.137l3.574-6.199h-3.793l-3.574 6.2h-3.43l-1.093 1.823h3.464l-7.625 13.204c-1.601 2.808-.472 5.398 2.59 5.398 1.887 0 3.942-1.219 5.961-2.977l-1.504 2.61h3.832l5.762-10.027c5.836-7.333 8.426-6.383 6.781-3.575l-4.922 8.57c-1.601 2.81-.472 5.395 2.59 5.395 2.305 0 4.863-1.812 7.305-4.219.11 2.442 2.039 4.223 5.144 4.223m105.392-7.879c-2.298 3.758-4.634 5.543-6.235 5.543-.84 0-1.313-.582-.438-2.078l5.285-9.227c2.043-3.539 6.09-2.625 4.23.801h.036zm-36.7.223c-2.3 3.605-4.563 5.32-6.13 5.32-.839 0-1.312-.582-.437-2.078l5.286-9.227c2.043-3.539 6.09-2.625 4.23.801zm-39.695 13.781c-.801 1.422-2.079 1.203-2.079.184 0-.985.875-2.114 3.793-3.246zm8.058-28.59c1.133-1.933 2.371-2.77 3.43-2.77 6.02 0 1.789 12.25-8.133 12.25h-.766zm77.961 14.153l-.254.289c-2.73 3.171-5.394 5.687-7.074 5.687-.84 0-1.313-.582-.438-2.078l12.836-22.207h-3.793l-5.578 9.625c-.656-1.055-1.894-1.969-3.465-1.969-2.043 0-4.886 1.606-6.492 4.375l-3.71 6.406c-.083-.046-.165-.097-.235-.132l-.258.293c-2.734 3.171-5.394 5.687-7.074 5.687-.84 0-1.313-.582-.438-2.078l5.47-9.59c1.644-2.883.073-4.96-2.044-4.96-1.64 0-3.351.874-5.25 2.843l1.422-2.477h-3.793l-6.062 10.485a2.846 2.846 0 00-.36-.203l-.258.293c-2.73 3.171-5.394 5.687-7.074 5.687-.836 0-1.308-.582-.437-2.078l6.129-10.723h-2.153c.145-1.601-1.496-3.828-3.976-3.828-2.043 0-4.887 1.606-6.493 4.375l-3.664 6.328-.207.235c-2.734 3.172-5.394 5.687-7.074 5.687-.84 0-1.312-.582-.437-2.078l3.793-6.637c1.312-2.297.691-3.644-.547-5.14l-2.117-2.555c-.547-.691-.547-1.457.218-2.187l-1.968-2.153c-2.153 1.934-2.332 4.086-.985 5.836l.328.438c-1.675 2.37-3.937 5.582-6.418 8.496.075.11.164.215.258.32-3.125 3.594-5.781 5.918-8.762 7.191l4.813-8.242H286l-.402.66c-2.004 3.536-4.305 6.051-7.258 6.051-2.59 0-3.063-2.586-.8-6.453l1.058-1.86c.691.11 1.386.184 2.148.184 13.496 0 20.024-18.05 8.137-18.05-2.082 0-4.563 1.457-6.274 4.449l-5.91 10.172c-2.222-1.164-3.39-3.282-3.39-5.395 0-1.75.804-3.504 2.441-4.777l-1.238-2.227c-2.7 1.934-3.903 4.524-3.903 7.074 0 3.028 1.715 5.946 4.778 7.551l-1.13 1.969c-2.663 4.598-2.187 9.7 3.173 9.7 1.605 0 2.953-.474 4.12-1.204l-.984 1.715c-5.14 1.566-8.312 3.648-8.312 6.492 0 3.645 5.578 4.41 8.312-.258l2.918-4.996c3.938-1.238 7.805-3.937 11.961-8.75a2.062 2.062 0 00-.234-.355c1.684-1.98 3.113-3.891 5.973-7.778l.507.621c.477.622.657 1.387.22 2.153l-4.013 6.965c-1.605 2.804-.472 5.394 2.59 5.394 1.907 0 3.989-1.246 6.035-3.035-.046 1.742 1.149 3.035 3.309 3.035 1.531 0 3.43-.984 5.25-2.48.184 1.46 1.352 2.48 3.285 2.48 1.817 0 3.79-1.129 5.742-2.785l-1.398 2.422h3.828l5.797-10.106c5.8-7.254 8.39-6.308 6.746-3.5l-4.922 8.57c-1.601 2.81-.473 5.4 2.59 5.4 2.016 0 4.227-1.392 6.379-3.349-.2 1.903 1.008 3.348 3.297 3.348 1.531 0 3.426-.984 5.25-2.48.183 1.46 1.351 2.48 3.281 2.48 3.137 0 6.746-3.355 9.883-7.004-.254-.504-.91-1.09-1.426-1.304" fill="#fff"/><g clip-path="url(#bb)"><path d="M210.059 332.023h-.184c-1.238 0-2.227 1.02-2.227 2.262 0 .473.149.91.368 1.274l-.04.074c-1.785 3.062-6.124 2.48-3.863-1.461l2.88-4.996 1.823-3.098c2.664-4.523 6.309-2.734 4.012 1.203zm-25.528 14.184c-.804 1.422-2.078 1.203-2.078.184 0-.985.91-2.114 3.828-3.246zm-28.851-13.785c-2.297 3.613-4.559 5.324-6.125 5.324-.84 0-1.313-.582-.442-2.078l5.29-9.227c2.042-3.539 6.09-2.625 4.23.805zm-13.356-14.805c1.13-1.933 2.371-2.773 3.43-2.773 1.422 0 2.078.949 2.078 2.336 0 3.539-4.305 9.918-10.21 9.918h-.767zm94.387 14.149l-.254.293c-2.734 3.171-5.394 5.691-7.074 5.691-.84 0-1.313-.586-.438-2.082l5.47-9.59c1.644-2.879.073-4.96-2.044-4.96-1.64 0-3.351.874-5.25 2.843l1.422-2.477h-3.793l-6.11 10.575a2.758 2.758 0 00-.484-.293l-.258.293c-1.71 1.859-3.828 2.773-5.722 2.808l3.57-6.16c2.3-3.98.184-7.734-3.39-7.734-2.918 0-5.176 1.168-7.368 4.96l-1.86 3.247-1.624 2.78a2.568 2.568 0 00-.344-.19l-.254.293c-3.136 3.605-5.8 5.94-8.789 7.222l10.395-17.8h-3.793l-6.711 11.671c-2.918 2.696-5.18 4.192-5.906 3.864-.95-.399 0-1.82.472-2.625l7.403-12.91h-3.793l-6.051 10.472a2.075 2.075 0 00-.332-.187l-.254.293c-2.734 3.171-5.399 5.687-7.074 5.687-.84 0-1.313-.582-.438-2.078l5.469-9.59c1.64-2.883.074-4.96-2.043-4.96-1.64 0-3.356.874-5.25 2.843l1.422-2.48h-3.793l-6.063 10.488a2.432 2.432 0 00-.359-.203l-.254.293c-2.734 3.171-5.398 5.687-7.074 5.687-.84 0-1.313-.582-.442-2.078l6.13-10.723h-2.153c.148-1.605-1.492-3.828-3.977-3.828-2.039 0-4.886 1.602-6.488 4.375l-3.918 6.762c-.262-.235-.558-.414-.832-.488l-.254.293c-2.734 3.171-6.09 5.687-9.847 5.687-2.59 0-4.157-2.586-1.899-6.453l1.059-1.86a14.02 14.02 0 002.152.184c4.047 0 8.645-2.078 11.633-7.293 1.059-1.863 1.531-3.613 1.531-5.105 0-3.43-2.222-5.653-5.031-5.653-2.078 0-4.559 1.457-6.274 4.45l-5.906 10.175c-2.226-1.168-3.394-3.28-3.394-5.398 0-1.75.804-3.5 2.445-4.777l-1.242-2.227c-2.7 1.937-3.903 4.523-3.903 7.078 0 3.024 1.715 5.942 4.778 7.547l-1.13 1.973c-2.66 4.593-1.093 9.699 4.267 9.699 4.242 0 7.355-1.89 9.968-4.375-.824 2.387.375 4.375 3.063 4.375 1.531 0 3.426-.985 5.25-2.48.183 1.46 1.351 2.48 3.281 2.48 1.816 0 3.793-1.13 5.742-2.785l-1.398 2.422h3.828l5.8-10.102c5.798-7.258 8.387-6.313 6.747-3.504l-4.922 8.567c-1.606 2.812-.477 5.398 2.59 5.398 2.039 0 4.281-1.426 6.465-3.422-.457 2.086.507 3.422 2.394 3.422 1.824 0 3.902-1.531 5.617-3.063l-2.078 3.575c-5.144 1.527-8.351 3.644-8.351 6.488 0 3.648 5.578 4.414 8.312-.254l2.918-4.996c3.168-1 6.297-2.965 9.563-6.195-.524 5.296 6.53 6.504 10.785 1.125h.84c1.382 0 3.257-.52 4.953-1.454l-2.551 4.41h3.828l5.8-10.1c5.798-7.263 8.388-6.313 6.747-3.505l-4.926 8.57c-1.601 2.81-.472 5.399 2.594 5.399 3.137 0 6.742-3.356 9.883-7.004-.258-.512-.914-1.098-1.426-1.316" fill="#fff"/></g><path d="M299.434 330.09l1.093-1.899c4.375-6.09 7.368-4.41 6.016-2.113l-1.82 3.137c-1.133 1.969-4.453 3.355-5.29.875m25.188 2.988c-.219-.582-.875-1.164-1.422-1.308l-.258.293a23.604 23.604 0 01-4.558 4.117c1.203-3.61.945-9.153 3.281-14.004l-2.848-1.531c-1.562 2.152-4.992 7.109-8.421 11.125.003.007.015.015.02.023-.017-.008-.032-.02-.048-.023l-.254.293c-2.734 3.171-5.394 5.687-7.074 5.687-.84 0-1.64-.84-1.64-2.555v-1.566c2.66.328 5.468-1.426 7.257-4.524l1.02-1.75c3.535-6.054-2.227-8.058-6.09-4.52l5.394-9.374h-3.793l-10.816 18.77a3.173 3.173 0 00-.691-.461l-.258.293c-2.735 3.171-6.235 5.687-8.899 5.687-2.332 0-3.718-1.457-1.968-4.52l3.898-6.78c2.192-3.759 6.059-3.137 3.793.8l-.543.95h3.102l.547-.95c2.039-3.5.07-6.125-3.028-6.125-3.062 0-5.508 1.605-7.113 4.375l-3.73 6.406c-.079-.047-.16-.101-.235-.133l-.258.293c-2.734 3.172-5.394 5.688-7.074 5.688-.836 0-1.309-.586-.437-2.082l8.097-14.184h-3.793l-6.746 11.778c-2.883 2.625-5.105 4.086-5.836 3.757-.945-.402 0-1.824.473-2.625l7.406-12.91h-3.793l-7.367 12.742a22.586 22.586 0 01-2.45 1.954c1.204-3.61.946-9.153 3.282-14.004l-2.844-1.532c-1.566 2.149-10.32 13.75-13.75 17.762.328.473.875.945 1.422 1.313 2.152-2.48 9.375-11.782 10.723-13.567-1.496 3.938-.692 11.012-4.305 11.012-1.273 0-1.785-1.387-1.785-1.387l-2.371 1.242s.691 3.063 4.156 3.063c.367 0 .695-.04 1.059-.074.035 0 .074-.035.11-.035 1.925-.254 3.839-1.145 5.628-2.38-.012 1.544.922 2.489 2.512 2.489 2.074 0 4.41-1.899 6.234-3.649-.363 2.043.836 3.649 3.246 3.649 2.356 0 4.977-1.895 7.465-4.383.035 2.524 1.977 4.383 5.145 4.383 3.078 0 6.14-1.723 8.777-4.031l-2.113 3.668h3.828l4.34-7.551v3.027c0 3.242.62 4.887 3.683 4.887 3.137 0 6.75-3.356 9.887-7.004-.008-.012-.02-.02-.024-.035.016.015.032.023.047.035 2.153-2.477 4.051-5.14 5.395-6.93-1.492 3.938-.688 11.016-4.3 11.016-1.274 0-1.786-1.387-1.786-1.387l-2.375 1.239s.695 3.062 4.16 3.062c.363 0 .691-.035 1.059-.07.035 0 .07-.035.105-.035 3.867-.516 7.7-3.579 10.543-6.899m-.148 2.59c-1.239 0-2.188.984-2.188 2.227 0 1.242.95 2.187 2.188 2.187 1.238 0 2.226-.945 2.226-2.187a2.213 2.213 0 00-2.226-2.227m.183-1.496h3.828l11.887-20.715h-3.789zm-236.379-56.59c0 .293-.058.59-.172.879-.109.293-.28.562-.503.797a2.55 2.55 0 01-.832.574 2.612 2.612 0 01-1.098.223c-.453 0-.887-.086-1.305-.254a2.978 2.978 0 01-1.062-.727 3.069 3.069 0 01-.575-1.05 3.99 3.99 0 01-.203-1.286c0-.855.153-1.644.457-2.367a6.052 6.052 0 011.301-1.93c.25-.246.528-.476.848-.691.312-.215.613-.395.894-.543.285-.144.524-.262.73-.352.204-.09.329-.148.372-.168l1.351 1.997c-.246.09-.52.207-.828.351-.304.149-.59.328-.863.543-.27.211-.496.465-.676.758a2.16 2.16 0 00-.304 1.02c.656 0 1.23.187 1.726.574.492.382.742.933.742 1.652m-7.867 0c0 .293-.058.59-.168.879a2.383 2.383 0 01-.508.8 2.643 2.643 0 01-1.93.793 3.37 3.37 0 01-1.3-.253 2.96 2.96 0 01-1.067-.727 3.135 3.135 0 01-.574-1.05 3.99 3.99 0 01-.203-1.286c0-.855.153-1.644.457-2.367a6.052 6.052 0 011.301-1.93 6.02 6.02 0 01.848-.691 9.461 9.461 0 011.625-.895 7.11 7.11 0 00.37-.171l1.352 1.996a9.94 9.94 0 00-.828.355 4.79 4.79 0 00-.86.54 2.94 2.94 0 00-.679.76c-.18.294-.281.634-.305 1.017.657 0 1.23.191 1.727.578.496.382.742.933.742 1.652m265.16 58.945c0-.297.059-.59.172-.882.113-.293.281-.56.504-.793a2.55 2.55 0 01.832-.575 2.612 2.612 0 011.098-.222c.453 0 .887.086 1.304.254.415.168.77.41 1.063.73.25.293.441.64.574 1.047.137.406.203.836.203 1.285a6.02 6.02 0 01-.457 2.367 5.988 5.988 0 01-1.3 1.93 5.78 5.78 0 01-.844.691 10.012 10.012 0 01-1.625.895 7.11 7.11 0 00-.371.172l-1.356-1.996c.25-.09.524-.211.828-.356.305-.144.594-.324.864-.539a2.88 2.88 0 00.675-.765c.18-.293.282-.63.305-1.012a2.74 2.74 0 01-1.726-.578c-.493-.38-.743-.934-.743-1.653m7.868 0a2.412 2.412 0 01.676-1.676 2.63 2.63 0 011.93-.797c.448 0 .886.087 1.3.255.418.168.773.41 1.066.73.25.293.442.64.574 1.047.137.406.204.836.204 1.285 0 .856-.153 1.645-.458 2.367a6.052 6.052 0 01-1.3 1.93c-.25.246-.532.477-.852.691-.308.215-.61.395-.894.543-.282.145-.524.266-.727.352a9.31 9.31 0 00-.371.172l-1.356-1.996c.25-.09.524-.211.829-.356.304-.144.593-.324.863-.539a2.88 2.88 0 00.676-.765 2.07 2.07 0 00.304-1.012 2.721 2.721 0 01-1.722-.578c-.493-.38-.743-.934-.743-1.653" fill="#fff"/></symbol><symbol viewBox="0 0 24 22.38" id="like-icon"><path d="M23 10.379v.047zm-18-1H1v12h4zm9.2-8L7.601 7.98C7.199 8.281 7 8.781 7 9.38v10c0 1.101.898 2 2 2h9c.8 0 1.5-.5 1.8-1.2l3-7.1c.098-.2.098-.5.098-.7v-2H23c0-1.098-.898-2-2-2h-6.3l1-4.598v-.3c0-.403-.2-.801-.4-1.102zm-11.2 10v8-8m10.383-6.352l-.637 2.926-.527 2.426h8.68v2c0 .02 0 .039.003.059L18 19.378H9V9.41l4.383-4.383"/></symbol><symbol viewBox="0 0 16 12" id="mail"><path d="M15 0H1C.45 0 0 .45 0 1v.758L8 5.96l8-4.203V1c0-.55-.45-1-1-1M8 8c-.266 0-.5-.094-1-.336L0 4v7c0 .55.45 1 1 1h14c.55 0 1-.45 1-1V4L9 7.664C8.5 7.906 8.266 8 8 8"/></symbol><symbol viewBox="0 0 18 18" id="phone"><path d="M3.602 7.8c1.398 2.802 3.796 5.102 6.597 6.602l2.2-2.203c.3-.297.703-.398 1-.199 1.101.402 2.3.602 3.601.602.602 0 1 .398 1 1V17c0 .602-.398 1-1 1C7.602 18 0 10.402 0 1c0-.602.398-1 1-1h3.5c.602 0 1 .398 1 1 0 1.2.2 2.398.602 3.598.097.3 0 .703-.204 1"/></symbol><symbol viewBox="247.3 382.56 100.678 76.891" id="play"><path fill="#81b3d2" d="M344.255 400.708s-.92-7.008-3.785-10.078c-3.632-4.041-7.674-4.066-9.541-4.297-13.326-1.023-33.303-1.023-33.303-1.023h-.051s-19.978 0-33.304 1.023c-1.867.23-5.908.256-9.54 4.297-2.84 3.096-3.786 10.078-3.786 10.078s-.896 8.211-.896 16.422v7.699c0 8.21.947 16.421.947 16.421s.921 7.009 3.785 10.078c3.632 4.041 8.364 3.913 10.487 4.349 7.622.767 32.356 1.022 32.356 1.022s20.003-.025 33.329-1.048c1.867-.23 5.908-.256 9.54-4.298 2.84-3.069 3.786-10.078 3.786-10.078s.946-8.21.946-16.421v-7.699c-.023-8.236-.97-16.447-.97-16.447z"/><path fill="#FFF" d="M297.614 459.449h-.016c-1.015-.011-24.946-.266-32.604-1.037l-.14-.014-.137-.028c-.271-.056-.668-.107-1.126-.167-2.503-.328-7.159-.938-10.839-5.019-3.354-3.616-4.377-10.771-4.483-11.576l-.005-.043c-.039-.342-.965-8.463-.965-16.736v-7.699c0-8.266.875-16.378.912-16.72l.009-.071c.108-.802 1.155-7.928 4.474-11.557 3.996-4.439 8.531-4.899 10.712-5.121.192-.02.37-.037.529-.058l.126-.013c13.277-1.019 33.312-1.031 33.514-1.031h.051c.201 0 20.236.013 33.514 1.031l.126.013c.159.021.337.038.529.058 2.179.221 6.71.682 10.704 5.112 3.354 3.616 4.377 10.771 4.483 11.577l.005.043c.039.342.965 8.459.99 16.753v7.708c0 8.273-.926 16.395-.965 16.736l-.007.053c-.108.805-1.156 7.953-4.478 11.562-3.994 4.435-8.527 4.896-10.707 5.117-.193.02-.371.037-.53.057l-.126.013c-13.276 1.02-33.334 1.057-33.535 1.058l-.015-.001zm-31.944-6.497c7.477.729 31.216.989 31.968.997.657-.001 20.135-.049 33.047-1.036.178-.021.371-.041.58-.062 1.836-.186 4.608-.468 7.186-3.335l.026-.029c1.825-1.974 2.853-6.928 3.075-8.552.059-.514.926-8.358.926-16.08v-7.699c-.023-7.76-.896-15.627-.951-16.109-.32-2.382-1.434-6.789-3.066-8.539l-.035-.038c-2.577-2.868-5.351-3.149-7.186-3.336a34.367 34.367 0 01-.58-.062c-13.066-.998-32.834-1.011-33.033-1.011h-.051c-.198 0-19.967.013-33.033 1.011a33.29 33.29 0 01-.58.062c-1.835.187-4.607.468-7.186 3.336l-.019.021c-1.828 1.993-2.855 6.924-3.082 8.552-.062.591-.875 8.399-.875 16.089v7.699c0 7.749.871 15.598.926 16.083.32 2.381 1.433 6.789 3.066 8.539l.035.039c2.322 2.584 5.303 2.975 7.479 3.259.481.061.939.121 1.363.201z"/><path fill="#FFF" d="M285.733 403.138v35.708l29.747-17.854z"/></symbol><symbol viewBox="0 0 17.5 14.66" id="twitter-icon"><path d="M11.281.148c1.739-.48 3.074.266 3.688 1.153.691-.227 1.37-.469 2.07-.692-.004.84-.535 1.48-.883 1.73.703.165 1.344-.484 1.344-.484-.176.98-1.035 1.747-1.613 1.98-.235 6.59-3.27 10.954-10.38 10.821h-.46c-.422 0-4.29-.449-5.047-1.844 2.34.196 4.012-.41 4.836-1.148-.988-.293-2.762-.465-3.07-2.879.363.102.582.223 1.226.113C1.758 8.063.387 7.363.461 5.215c.293.32 1.101.523 1.383.46C1.117 5.442-.188 2.396.922.84 2.793 2.652 4.77 4.36 8.289 4.523 8.508 2.285 9.461.785 11.281.148"/></symbol><symbol viewBox="0 0 19.98 14.02" id="yt-icon"><defs><clipPath id="ha"><path d="M0 0h19.98v14.02H0zm0 0"/></clipPath></defs><g clip-path="url(#ha)"><path d="M7.035 10.398v-6.77l6.77 3.384zM17.145.004H2.835A2.843 2.843 0 000 2.84v8.344a2.84 2.84 0 002.836 2.836h14.309a2.84 2.84 0 002.835-2.836V2.84A2.848 2.848 0 0017.145.004"/></g></symbol></svg>