<?xml version="1.0" encoding="UTF-8"?>
<svg xmlns="http://www.w3.org/2000/svg" xmlns:xlink="http://www.w3.org/1999/xlink" width="459.75pt" height="350.08pt" viewBox="0 0 459.75 350.08" version="1.1">
<defs>
<clipPath id="clip1">
  <path d="M 381 138 L 459.75 138 L 459.75 214 L 381 214 Z M 381 138 "/>
</clipPath>
<clipPath id="clip2">
  <path d="M 127 311 L 239 311 L 239 350.078125 L 127 350.078125 Z M 127 311 "/>
</clipPath>
</defs>
<g id="surface1">
<path style=" stroke:none;fill-rule:nonzero;fill:rgb(46.299744%,38.798523%,34.098816%);fill-opacity:1;" d="M 159.027344 70.207031 L 158.882813 70.207031 C 157.90625 70.207031 157.128906 71.011719 157.128906 71.992188 C 157.128906 72.363281 157.242188 72.710938 157.417969 73 L 157.386719 73.058594 C 155.976563 75.476563 152.550781 75.015625 154.335938 71.90625 L 156.609375 67.964844 L 158.050781 65.515625 C 160.152344 61.945313 163.027344 63.355469 161.214844 66.464844 Z M 165.421875 70.003906 L 165.21875 70.234375 C 163.863281 71.703125 162.195313 72.421875 160.695313 72.449219 L 163.519531 67.585938 C 165.332031 64.445313 163.664063 61.480469 160.839844 61.480469 C 158.535156 61.480469 156.753906 62.402344 155.023438 65.398438 L 153.558594 67.960938 L 152.328125 70.058594 L 152.175781 70.234375 C 150.015625 72.738281 147.914063 74.726563 146.589844 74.726563 C 145.929688 74.726563 145.554688 74.265625 146.242188 73.085938 L 152.664063 61.882813 L 155.113281 61.882813 L 155.976563 60.441406 L 153.5 60.441406 L 156.320313 55.550781 L 153.328125 55.550781 L 150.503906 60.445313 L 147.796875 60.445313 L 146.933594 61.886719 L 149.667969 61.886719 L 143.648438 72.308594 C 142.382813 74.523438 143.277344 76.570313 145.695313 76.570313 C 147.433594 76.570313 149.355469 75.261719 151.207031 73.484375 C 151.199219 77.300781 156.503906 78.046875 159.746094 73.949219 L 160.40625 73.949219 C 162.191406 73.949219 165.011719 72.855469 166.539063 71.042969 C 166.339844 70.636719 165.824219 70.175781 165.421875 70.003906 "/>
<path style=" stroke:none;fill-rule:nonzero;fill:rgb(46.299744%,38.798523%,34.098816%);fill-opacity:1;" d="M 201.175781 65.800781 C 202.902344 62.835938 205.957031 63.324219 204.171875 66.433594 L 203.738281 67.183594 C 202.300781 69.628906 200.371094 69.574219 199.246094 69.171875 Z M 206.875 70.003906 L 206.675781 70.234375 C 204.515625 72.738281 201.75 74.722656 199.648438 74.722656 C 197.804688 74.722656 196.710938 73.574219 198.09375 71.15625 L 198.382813 70.636719 C 200.3125 71.441406 203.941406 71.066406 206.1875 67.179688 L 206.617188 66.429688 C 208.230469 63.667969 206.675781 61.59375 204.226563 61.59375 C 201.808594 61.59375 199.878906 62.863281 198.613281 65.050781 L 195.707031 70.03125 L 195.535156 70.230469 C 193.375 72.734375 191.273438 74.722656 189.949219 74.722656 C 189.285156 74.722656 188.910156 74.261719 189.601563 73.082031 L 193.921875 65.511719 C 195.214844 63.234375 193.980469 61.59375 192.308594 61.59375 C 191.011719 61.59375 189.628906 62.3125 188.132813 63.867188 L 192.914063 55.546875 L 189.917969 55.546875 L 181.566406 70.039063 L 181.398438 70.230469 C 179.238281 72.738281 177.136719 74.722656 175.8125 74.722656 C 175.148438 74.722656 174.773438 74.261719 175.464844 73.082031 L 181.886719 61.878906 L 184.332031 61.878906 L 185.195313 60.441406 L 182.722656 60.441406 L 185.542969 55.546875 L 182.550781 55.546875 L 179.726563 60.441406 L 177.019531 60.441406 L 176.15625 61.882813 L 178.890625 61.882813 L 172.871094 72.304688 C 171.605469 74.523438 172.5 76.566406 174.917969 76.566406 C 176.132813 76.566406 177.433594 75.929688 178.738281 74.941406 L 177.96875 76.277344 L 180.988281 76.277344 L 185.539063 68.363281 C 190.144531 62.574219 192.191406 63.324219 190.894531 65.539063 L 187.007813 72.308594 C 185.738281 74.523438 186.632813 76.570313 189.050781 76.570313 C 190.832031 76.570313 192.808594 75.195313 194.695313 73.351563 C 194.84375 75.21875 196.351563 76.570313 198.753906 76.570313 C 202.148438 76.570313 205.519531 73.921875 207.992188 71.039063 C 207.796875 70.636719 207.28125 70.175781 206.875 70.003906 "/>
<path style=" stroke:none;fill-rule:nonzero;fill:rgb(46.299744%,38.798523%,34.098816%);fill-opacity:1;" d="M 285.414063 70.207031 L 285.269531 70.207031 C 284.289063 70.207031 283.511719 71.011719 283.511719 71.992188 C 283.511719 72.363281 283.628906 72.710938 283.800781 73 L 283.773438 73.058594 C 282.363281 75.476563 278.933594 75.015625 280.71875 71.90625 L 282.992188 67.964844 L 284.433594 65.515625 C 286.535156 61.945313 289.410156 63.355469 287.601563 66.464844 Z M 255.875 74.726563 C 255.210938 74.726563 254.839844 74.265625 255.527344 73.085938 L 259.703125 65.800781 C 261.316406 63.007813 264.511719 63.726563 263.042969 66.433594 L 260.769531 70.40625 C 258.957031 73.316406 257.140625 74.726563 255.875 74.726563 M 254.492188 81.40625 C 253.859375 82.527344 252.851563 82.355469 252.851563 81.550781 C 252.851563 80.773438 253.570313 79.882813 255.84375 78.988281 Z M 235.664063 70.207031 L 235.519531 70.207031 C 234.542969 70.207031 233.765625 71.011719 233.765625 71.992188 C 233.765625 72.363281 233.878906 72.710938 234.050781 73 L 234.023438 73.058594 C 232.613281 75.476563 229.1875 75.015625 230.972656 71.90625 L 233.246094 67.964844 L 234.683594 65.515625 C 236.789063 61.945313 239.664063 63.355469 237.851563 66.464844 Z M 217.269531 74.726563 C 216.605469 74.726563 216.230469 74.265625 216.921875 73.085938 L 221.097656 65.800781 C 222.710938 63.007813 225.90625 63.726563 224.4375 66.433594 L 222.164063 70.40625 C 220.351563 73.316406 218.535156 74.726563 217.269531 74.726563 M 215.886719 81.40625 C 215.253906 82.527344 214.246094 82.355469 214.246094 81.550781 C 214.246094 80.773438 214.964844 79.882813 217.238281 78.988281 Z M 273.0625 65.800781 C 274.789063 62.835938 277.839844 63.324219 276.054688 66.433594 L 275.625 67.183594 C 274.183594 69.628906 272.253906 69.574219 271.132813 69.171875 Z M 316.046875 70.003906 L 315.84375 70.234375 C 314.75 71.527344 313.425781 72.679688 312.242188 73.488281 C 313.195313 70.636719 312.992188 66.257813 314.835938 62.429688 L 312.589844 61.222656 C 311.351563 62.921875 308.648438 66.835938 305.941406 70.003906 L 305.738281 70.234375 C 303.582031 72.738281 301.480469 74.722656 300.152344 74.722656 C 299.492188 74.722656 299.117188 74.261719 299.808594 73.082031 L 306.199219 61.882813 L 303.207031 61.882813 L 297.882813 71.183594 C 295.605469 73.253906 293.851563 74.40625 293.273438 74.148438 C 292.527344 73.832031 293.273438 72.710938 293.648438 72.074219 L 299.492188 61.882813 L 296.5 61.882813 L 291.804688 70.007813 L 291.605469 70.234375 C 290.253906 71.703125 288.585938 72.421875 287.085938 72.449219 L 289.90625 67.585938 C 291.71875 64.445313 290.054688 61.480469 287.230469 61.480469 C 284.925781 61.480469 283.140625 62.402344 281.414063 65.398438 L 279.945313 67.960938 L 278.71875 70.058594 L 278.5625 70.234375 C 276.40625 72.742188 273.640625 74.726563 271.539063 74.726563 C 269.695313 74.726563 268.601563 73.574219 269.984375 71.15625 L 270.273438 70.636719 C 272.199219 71.445313 275.828125 71.070313 278.074219 67.183594 L 278.507813 66.433594 C 280.117188 63.667969 278.566406 61.597656 276.117188 61.597656 C 273.699219 61.597656 271.769531 62.863281 270.503906 65.050781 L 267.597656 70.035156 L 267.425781 70.234375 C 264.945313 73.085938 262.816406 74.925781 260.453125 75.933594 L 267.164063 64.472656 L 265.40625 64.472656 C 265.40625 63.234375 264.140625 61.59375 262.269531 61.59375 C 260.65625 61.59375 258.410156 62.863281 257.144531 65.050781 L 254.273438 70.007813 L 254.265625 70.003906 L 254.0625 70.234375 C 251.90625 72.738281 249.800781 74.722656 248.476563 74.722656 C 247.816406 74.722656 247.441406 74.261719 248.132813 73.082031 L 251.125 67.839844 C 252.160156 66.027344 251.671875 64.960938 250.691406 63.78125 L 249.023438 61.765625 C 248.589844 61.21875 248.589844 60.613281 249.195313 60.035156 L 247.640625 58.335938 C 245.941406 59.863281 245.796875 61.5625 246.863281 62.945313 L 247.125 63.289063 C 245.800781 65.160156 244.015625 67.695313 242.054688 70 L 242.058594 70.003906 L 241.859375 70.230469 C 240.503906 71.699219 238.835938 72.421875 237.335938 72.449219 L 240.15625 67.582031 C 241.972656 64.445313 240.300781 61.480469 237.480469 61.480469 C 235.175781 61.480469 233.390625 62.402344 231.664063 65.394531 L 230.195313 67.957031 L 228.96875 70.058594 L 228.816406 70.234375 C 226.339844 73.085938 224.207031 74.925781 221.847656 75.933594 L 228.554688 64.472656 L 226.800781 64.472656 C 226.800781 63.234375 225.53125 61.59375 223.660156 61.59375 C 222.050781 61.59375 219.804688 62.863281 218.535156 65.050781 L 214.332031 72.304688 C 213.0625 74.523438 213.957031 76.566406 216.375 76.566406 C 217.210938 76.566406 218.21875 76.191406 219.226563 75.558594 L 218.390625 76.96875 C 214.359375 78.207031 211.828125 79.847656 211.828125 82.09375 C 211.828125 84.972656 216.230469 85.578125 218.390625 81.894531 L 220.664063 77.949219 C 223.0625 77.203125 225.410156 75.792969 227.847656 73.46875 C 227.824219 77.300781 233.140625 78.050781 236.386719 73.945313 L 237.046875 73.945313 C 238.832031 73.945313 241.652344 72.851563 243.179688 71.039063 C 244.617188 69.367188 245.742188 67.871094 248.132813 64.617188 L 248.53125 65.109375 C 248.90625 65.597656 249.054688 66.203125 248.707031 66.804688 L 245.539063 72.304688 C 244.269531 74.523438 245.164063 76.570313 247.585938 76.570313 C 249.101563 76.570313 250.761719 75.570313 252.386719 74.136719 C 252.335938 75.53125 253.265625 76.570313 254.984375 76.570313 C 255.816406 76.570313 256.824219 76.195313 257.835938 75.558594 L 257 76.96875 C 252.96875 78.207031 250.4375 79.847656 250.4375 82.09375 C 250.4375 84.972656 254.839844 85.578125 257 81.894531 L 259.273438 77.949219 C 261.714844 77.1875 264.101563 75.734375 266.589844 73.332031 C 266.722656 75.207031 268.234375 76.566406 270.644531 76.566406 C 273.082031 76.566406 275.503906 75.199219 277.59375 73.367188 C 277.476563 77.285156 282.859375 78.089844 286.132813 73.945313 L 286.796875 73.945313 C 287.734375 73.945313 288.953125 73.636719 290.125 73.089844 C 289.320313 75.171875 290.0625 76.570313 291.773438 76.570313 C 293.414063 76.570313 295.257813 75.070313 296.695313 73.691406 C 296.410156 75.300781 297.359375 76.570313 299.257813 76.570313 C 301.734375 76.570313 304.585938 73.921875 307.0625 71.039063 C 308.757813 69.082031 310.257813 66.980469 311.324219 65.570313 C 310.140625 68.679688 310.773438 74.265625 307.925781 74.265625 C 306.917969 74.265625 306.515625 73.171875 306.515625 73.171875 L 304.644531 74.148438 C 304.644531 74.148438 305.191406 76.570313 307.925781 76.570313 C 308.214844 76.570313 308.472656 76.539063 308.761719 76.511719 C 308.789063 76.511719 308.820313 76.480469 308.847656 76.480469 C 311.898438 76.078125 314.921875 73.660156 317.167969 71.039063 C 316.996094 70.578125 316.476563 70.117188 316.046875 70.003906 "/>
<path style=" stroke:none;fill-rule:nonzero;fill:rgb(46.299744%,38.798523%,34.098816%);fill-opacity:1;" d="M 101.421875 68.78125 L 130.339844 68.78125 L 130.339844 66.824219 L 101.421875 66.824219 Z M 101.421875 68.78125 "/>
<path style=" stroke:none;fill-rule:nonzero;fill:rgb(46.299744%,38.798523%,34.098816%);fill-opacity:1;" d="M 328.421875 68.78125 L 357.339844 68.78125 L 357.339844 66.824219 L 328.421875 66.824219 Z M 328.421875 68.78125 "/>
<path style=" stroke:none;fill-rule:nonzero;fill:rgb(50.59967%,70.199585%,82.398987%);fill-opacity:1;" d="M 163.183594 0.00390625 L 170.890625 0.00390625 L 169.679688 44.921875 L 155.15625 44.921875 L 153.179688 26.375 L 151.203125 44.921875 L 136.617188 44.921875 L 135.46875 0.00390625 L 143.113281 0.00390625 L 143.753906 37.15625 L 144.578125 37.15625 L 149.359375 0.00390625 L 156.9375 0.00390625 L 161.84375 37.15625 L 162.609375 37.15625 "/>
<path style=" stroke:none;fill-rule:nonzero;fill:rgb(50.59967%,70.199585%,82.398987%);fill-opacity:1;" d="M 195.03125 37.15625 L 195.03125 44.921875 L 174.136719 44.921875 L 174.136719 0.00390625 L 195.03125 0.00390625 L 195.03125 7.703125 L 181.78125 7.703125 L 181.78125 18.546875 L 192.355469 18.546875 L 192.355469 26.246094 L 181.78125 26.246094 L 181.78125 37.15625 "/>
<path style=" stroke:none;fill-rule:nonzero;fill:rgb(50.59967%,70.199585%,82.398987%);fill-opacity:1;" d="M 216.371094 37.15625 L 216.371094 44.921875 L 198.089844 44.921875 L 198.089844 0.00390625 L 205.734375 0.00390625 L 205.734375 37.15625 "/>
<path style=" stroke:none;fill-rule:nonzero;fill:rgb(50.59967%,70.199585%,82.398987%);fill-opacity:1;" d="M 232.617188 28.363281 L 240.324219 26.566406 L 240.324219 40.171875 C 240.324219 42.738281 238.15625 44.921875 235.609375 44.921875 L 224.140625 44.921875 C 221.53125 44.921875 219.429688 42.738281 219.429688 40.171875 L 219.429688 4.753906 C 219.429688 2.121094 221.53125 0.00390625 224.140625 0.00390625 L 235.609375 0.00390625 C 238.15625 0.00390625 240.324219 2.121094 240.324219 4.753906 L 240.324219 13.863281 L 232.613281 15.660156 L 232.613281 7.703125 L 227.070313 7.703125 L 227.070313 37.15625 L 232.613281 37.15625 "/>
<path style=" stroke:none;fill-rule:nonzero;fill:rgb(50.59967%,70.199585%,82.398987%);fill-opacity:1;" d="M 258.09375 7.703125 L 252.550781 7.703125 L 252.550781 37.15625 L 258.09375 37.15625 Z M 261.089844 0.00390625 C 263.636719 0.00390625 265.804688 2.121094 265.804688 4.753906 L 265.804688 40.171875 C 265.804688 42.738281 263.636719 44.921875 261.089844 44.921875 L 249.621094 44.921875 C 247.011719 44.921875 244.90625 42.738281 244.90625 40.171875 L 244.90625 4.753906 C 244.90625 2.121094 247.011719 0.00390625 249.621094 0.00390625 "/>
<path style=" stroke:none;fill-rule:nonzero;fill:rgb(50.59967%,70.199585%,82.398987%);fill-opacity:1;" d="M 290.835938 0.00390625 L 298.414063 0.00390625 L 298.414063 44.921875 L 290.769531 44.921875 L 290.769531 22.847656 L 287.710938 34.269531 L 280.257813 34.269531 L 277.265625 22.847656 L 277.265625 44.921875 L 269.617188 44.921875 L 269.617188 0.00390625 L 277.199219 0.00390625 L 284.015625 21.691406 "/>
<path style=" stroke:none;fill-rule:nonzero;fill:rgb(50.59967%,70.199585%,82.398987%);fill-opacity:1;" d="M 323.132813 37.15625 L 323.132813 44.921875 L 302.238281 44.921875 L 302.238281 0.00390625 L 323.132813 0.00390625 L 323.132813 7.703125 L 309.882813 7.703125 L 309.882813 18.546875 L 320.457031 18.546875 L 320.457031 26.246094 L 309.882813 26.246094 L 309.882813 37.15625 "/>
<path style=" stroke:none;fill-rule:nonzero;fill:rgb(100%,100%,100%);fill-opacity:1;" d="M 44.464844 157.613281 C 40.894531 154.632813 36.328125 152.648438 31.5625 152.648438 C 27.992188 152.648438 23.226563 154.734375 23.226563 158.902344 C 23.226563 163.269531 28.488281 164.957031 31.863281 166.050781 L 36.824219 167.539063 C 47.246094 170.613281 55.285156 175.875 55.285156 187.984375 C 55.285156 195.429688 53.5 203.074219 47.542969 208.136719 C 41.691406 213.097656 33.847656 215.183594 26.304688 215.183594 C 16.875 215.183594 7.644531 212.007813 0 206.644531 L 8.335938 190.964844 C 13.203125 195.230469 18.960938 198.703125 25.609375 198.703125 C 30.175781 198.703125 35.039063 196.421875 35.039063 191.160156 C 35.039063 185.699219 27.394531 183.816406 23.226563 182.625 C 11.019531 179.148438 2.976563 175.976563 2.976563 161.480469 C 2.976563 146.292969 13.796875 136.371094 28.785156 136.371094 C 36.328125 136.371094 45.558594 138.753906 52.210938 142.523438 "/>
<path style=" stroke:none;fill-rule:nonzero;fill:rgb(100%,100%,100%);fill-opacity:1;" d="M 91.832031 154.835938 L 91.832031 167.339844 L 113.769531 167.339844 L 113.769531 183.820313 L 91.832031 183.820313 L 91.832031 196.71875 L 114.957031 196.71875 L 114.957031 213.199219 L 72.375 213.199219 L 72.375 138.359375 L 114.957031 138.359375 L 114.957031 154.835938 L 91.832031 154.835938 "/>
<path style=" stroke:none;fill-rule:nonzero;fill:rgb(100%,100%,100%);fill-opacity:1;" d="M 148.871094 196.722656 L 153.238281 196.722656 C 164.851563 196.722656 174.777344 190.367188 174.777344 175.777344 C 174.777344 162.378906 165.945313 154.835938 153.4375 154.835938 L 148.871094 154.835938 Z M 129.417969 138.355469 L 157.011719 138.355469 C 177.855469 138.355469 195.027344 154.734375 195.027344 175.777344 C 195.027344 196.816406 177.757813 213.195313 157.011719 213.195313 L 129.417969 213.195313 "/>
<path style=" stroke:none;fill-rule:nonzero;fill:rgb(100%,100%,100%);fill-opacity:1;" d="M 224.339844 174.488281 C 224.339844 187.390625 233.867188 196.820313 245.480469 196.820313 C 257.09375 196.820313 266.621094 187.390625 266.621094 174.488281 C 266.621094 164.164063 257.097656 154.734375 245.480469 154.734375 C 233.867188 154.734375 224.339844 164.164063 224.339844 174.488281 M 286.871094 174.386719 C 286.871094 198.605469 269.503906 215.679688 245.480469 215.679688 C 221.460938 215.679688 204.089844 198.609375 204.089844 174.386719 C 204.089844 151.757813 223.941406 135.875 245.480469 135.875 C 267.019531 135.875 286.871094 151.757813 286.871094 174.386719 "/>
<path style=" stroke:none;fill-rule:nonzero;fill:rgb(100%,100%,100%);fill-opacity:1;" d="M 297.238281 138.355469 L 316.691406 138.355469 L 352.328125 184.113281 L 352.523438 184.113281 L 352.523438 138.355469 L 371.976563 138.355469 L 371.976563 213.195313 L 352.523438 213.195313 L 316.890625 167.339844 L 316.691406 167.339844 L 316.691406 213.195313 L 297.238281 213.195313 "/>
<g clip-path="url(#clip1)" clip-rule="nonzero">
<path style=" stroke:none;fill-rule:nonzero;fill:rgb(100%,100%,100%);fill-opacity:1;" d="M 420.945313 161.484375 L 420.746094 161.484375 L 412.707031 185.308594 L 428.882813 185.308594 Z M 407.34375 200.195313 L 402.183594 213.195313 L 381.539063 213.195313 L 410.324219 138.355469 L 431.566406 138.355469 L 459.753906 213.195313 L 439.007813 213.195313 L 434.144531 200.195313 "/>
</g>
<path style=" stroke:none;fill-rule:nonzero;fill:rgb(100%,100%,100%);fill-opacity:1;" d="M 102.792969 285.992188 L 105.855469 280.742188 C 108.625 275.964844 112.164063 278.773438 110.265625 282.347656 C 108.8125 285.082031 106.65625 285.921875 102.792969 285.992188 M 98.707031 303.277344 C 96.445313 303.277344 94.660156 302.769531 93.238281 301.96875 C 93.894531 301.199219 94.550781 300.253906 95.132813 299.269531 L 101.515625 288.21875 L 102.535156 288.324219 C 111.4375 290.1875 107.898438 303.277344 98.707031 303.277344 M 108.078125 287.742188 C 115.738281 285.15625 116.320313 275.5625 108.773438 275.5625 C 106.695313 275.5625 104.214844 277.023438 102.5 280.011719 L 92.289063 297.664063 C 91.8125 298.503906 91.34375 299.195313 90.832031 299.8125 C 88.207031 296.203125 88.972656 290.808594 92.652344 288.4375 L 91.121094 286.503906 C 83.171875 291.570313 85.507813 306.195313 98.78125 306.195313 C 110.121094 306.195313 115.375 292.59375 108.078125 287.742188 "/>
<path style=" stroke:none;fill-rule:nonzero;fill:rgb(100%,100%,100%);fill-opacity:1;" d="M 119.8125 290.441406 C 122.003906 286.6875 125.867188 287.304688 123.605469 291.246094 L 123.058594 292.191406 C 121.234375 295.292969 118.789063 295.21875 117.371094 294.707031 Z M 143.996094 299.667969 L 149.285156 290.441406 C 151.328125 286.902344 155.375 287.816406 153.515625 291.246094 L 150.5625 296.421875 C 148.265625 300.03125 146.003906 301.746094 144.433594 301.746094 C 143.597656 301.746094 143.121094 301.164063 143.996094 299.667969 M 198.1875 290.441406 C 200.378906 286.6875 204.242188 287.304688 201.980469 291.246094 L 201.433594 292.191406 C 199.609375 295.292969 197.164063 295.21875 195.746094 294.707031 Z M 140.160156 300.003906 C 139.53125 302.253906 140.730469 304.082031 143.304688 304.082031 C 144.835938 304.082031 146.734375 303.097656 148.554688 301.601563 C 148.738281 303.0625 149.90625 304.082031 151.839844 304.082031 C 153.859375 304.082031 156.074219 302.6875 158.230469 300.722656 C 157.8125 302.773438 158.773438 304.082031 160.640625 304.082031 C 162.722656 304.082031 165.054688 302.183594 166.878906 300.433594 C 166.511719 302.476563 167.71875 304.082031 170.125 304.082031 C 173.261719 304.082031 176.871094 300.726563 180.007813 297.078125 C 179.980469 297.027344 179.9375 296.976563 179.90625 296.925781 C 182.003906 294.488281 183.851563 291.902344 185.175781 290.152344 C 183.679688 294.089844 184.480469 301.164063 180.871094 301.164063 C 179.59375 301.164063 179.082031 299.777344 179.082031 299.777344 L 176.710938 301.019531 C 176.710938 301.019531 177.40625 304.082031 180.867188 304.082031 C 181.234375 304.082031 181.5625 304.042969 181.925781 304.007813 C 181.964844 304.007813 182 303.972656 182.035156 303.972656 C 184.820313 303.605469 187.585938 301.910156 189.980469 299.75 C 190.035156 302.242188 191.972656 304.082031 195.125 304.082031 C 199.425781 304.082031 203.695313 300.726563 206.832031 297.078125 C 206.574219 296.566406 205.917969 295.984375 205.410156 295.765625 L 205.152344 296.058594 C 202.417969 299.230469 198.917969 301.746094 196.257813 301.746094 C 193.921875 301.746094 192.535156 300.289063 194.285156 297.226563 L 194.652344 296.570313 C 197.09375 297.589844 201.691406 297.117188 204.535156 292.191406 L 205.082031 291.246094 C 207.125 287.742188 205.15625 285.117188 202.054688 285.117188 C 198.992188 285.117188 196.546875 286.722656 194.945313 289.492188 L 191.261719 295.8125 C 191.226563 295.800781 191.191406 295.773438 191.15625 295.765625 L 190.902344 296.058594 C 189.515625 297.699219 187.839844 299.15625 186.34375 300.179688 C 187.546875 296.570313 187.289063 291.027344 189.625 286.175781 L 186.78125 284.644531 C 185.214844 286.792969 181.785156 291.753906 178.355469 295.765625 C 178.390625 295.8125 178.429688 295.855469 178.46875 295.902344 L 178.332031 296.058594 C 175.597656 299.230469 172.933594 301.746094 171.257813 301.746094 C 170.417969 301.746094 169.945313 301.164063 170.816406 299.667969 L 178.914063 285.480469 L 175.121094 285.480469 L 168.375 297.257813 C 165.492188 299.882813 163.269531 301.34375 162.539063 301.015625 C 161.59375 300.613281 162.539063 299.191406 163.015625 298.390625 L 170.414063 285.480469 L 166.621094 285.480469 L 160.585938 295.925781 C 160.488281 295.863281 160.390625 295.800781 160.300781 295.761719 L 160.042969 296.054688 C 157.308594 299.226563 154.648438 301.742188 152.96875 301.742188 C 152.132813 301.742188 151.65625 301.160156 152.53125 299.664063 L 158.65625 288.941406 L 156.507813 288.941406 C 156.652344 287.339844 155.011719 285.113281 152.53125 285.113281 C 150.488281 285.113281 147.644531 286.71875 146.039063 289.488281 L 142.195313 296.125 C 142 295.972656 141.800781 295.839844 141.617188 295.761719 L 141.363281 296.054688 C 138.628906 299.226563 135.125 301.742188 132.464844 301.742188 C 130.132813 301.742188 128.742188 300.28125 130.492188 297.21875 L 134.394531 290.4375 C 136.585938 286.679688 140.449219 287.300781 138.1875 291.238281 L 137.640625 292.1875 L 140.742188 292.1875 L 141.289063 291.238281 C 143.328125 287.738281 141.359375 285.113281 138.261719 285.113281 C 135.199219 285.113281 132.753906 286.71875 131.152344 289.488281 L 127.382813 295.957031 C 127.261719 295.878906 127.144531 295.808594 127.03125 295.761719 L 126.777344 296.054688 C 124.042969 299.226563 120.542969 301.742188 117.882813 301.742188 C 115.546875 301.742188 114.160156 300.28125 115.910156 297.21875 L 116.273438 296.5625 C 118.71875 297.585938 123.3125 297.109375 126.15625 292.1875 L 126.703125 291.238281 C 128.746094 287.738281 126.777344 285.113281 123.679688 285.113281 C 120.617188 285.113281 118.171875 286.71875 116.566406 289.488281 L 112.59375 296.308594 C 110.222656 300.355469 112.265625 304.074219 116.75 304.074219 C 120.089844 304.074219 123.40625 302.050781 126.191406 299.441406 C 126.09375 302.085938 128.054688 304.074219 131.332031 304.074219 C 134.433594 304.082031 137.507813 302.339844 140.160156 300.003906 "/>
<path style=" stroke:none;fill-rule:nonzero;fill:rgb(100%,100%,100%);fill-opacity:1;" d="M 251.460938 290.441406 C 253.648438 286.6875 257.515625 287.304688 255.253906 291.246094 L 254.707031 292.191406 C 252.882813 295.292969 250.4375 295.21875 249.015625 294.707031 Z M 248.398438 304.082031 C 252.699219 304.082031 256.96875 300.726563 260.105469 297.078125 C 259.851563 296.566406 259.195313 295.984375 258.683594 295.765625 L 258.429688 296.058594 C 255.691406 299.230469 252.191406 301.746094 249.527344 301.746094 C 247.195313 301.746094 245.808594 300.289063 247.558594 297.226563 L 247.921875 296.570313 C 250.367188 297.589844 254.960938 297.117188 257.804688 292.191406 L 258.351563 291.246094 C 260.394531 287.742188 258.425781 285.117188 255.324219 285.117188 C 252.265625 285.117188 249.820313 286.722656 248.214844 289.492188 L 244.523438 295.832031 C 244.484375 295.8125 244.445313 295.78125 244.410156 295.765625 L 244.152344 296.058594 C 241.421875 299.230469 238.757813 301.746094 237.078125 301.746094 C 236.242188 301.746094 235.769531 301.164063 236.640625 299.667969 L 242.113281 290.078125 C 243.753906 287.195313 242.183594 285.117188 240.070313 285.117188 C 238.425781 285.117188 236.675781 286.027344 234.78125 288 L 240.835938 277.457031 L 237.042969 277.457031 L 226.347656 296.019531 C 226.199219 295.914063 226.050781 295.824219 225.910156 295.765625 L 225.65625 296.058594 C 222.921875 299.230469 220.261719 301.746094 218.582031 301.746094 C 217.742188 301.746094 217.269531 301.164063 218.144531 299.667969 L 226.277344 285.480469 L 229.378906 285.480469 L 230.472656 283.65625 L 227.335938 283.65625 L 230.910156 277.457031 L 227.117188 277.457031 L 223.542969 283.65625 L 220.113281 283.65625 L 219.019531 285.480469 L 222.484375 285.480469 L 214.859375 298.683594 C 213.257813 301.492188 214.386719 304.082031 217.449219 304.082031 C 219.335938 304.082031 221.390625 302.863281 223.410156 301.105469 L 221.90625 303.714844 L 225.738281 303.714844 L 231.5 293.6875 C 237.335938 286.355469 239.925781 287.304688 238.28125 290.113281 L 233.359375 298.683594 C 231.757813 301.492188 232.886719 304.078125 235.949219 304.078125 C 238.253906 304.078125 240.8125 302.265625 243.253906 299.859375 C 243.363281 302.300781 245.292969 304.082031 248.398438 304.082031 "/>
<path style=" stroke:none;fill-rule:nonzero;fill:rgb(100%,100%,100%);fill-opacity:1;" d="M 353.789063 296.203125 C 351.492188 299.960938 349.15625 301.746094 347.554688 301.746094 C 346.714844 301.746094 346.242188 301.164063 347.117188 299.667969 L 352.402344 290.441406 C 354.445313 286.902344 358.492188 287.816406 356.632813 291.242188 L 356.667969 291.242188 Z M 317.089844 296.425781 C 314.789063 300.03125 312.527344 301.746094 310.960938 301.746094 C 310.121094 301.746094 309.648438 301.164063 310.523438 299.667969 L 315.808594 290.441406 C 317.851563 286.902344 321.898438 287.816406 320.039063 291.242188 Z M 277.394531 310.207031 C 276.59375 311.628906 275.316406 311.410156 275.316406 310.390625 C 275.316406 309.40625 276.191406 308.277344 279.109375 307.144531 Z M 285.453125 281.617188 C 286.585938 279.683594 287.824219 278.847656 288.882813 278.847656 C 294.902344 278.847656 290.671875 291.097656 280.75 291.097656 L 279.984375 291.097656 Z M 363.414063 295.769531 L 363.160156 296.058594 C 360.429688 299.230469 357.765625 301.746094 356.085938 301.746094 C 355.246094 301.746094 354.773438 301.164063 355.648438 299.667969 L 368.484375 277.460938 L 364.691406 277.460938 L 359.113281 287.085938 C 358.457031 286.03125 357.21875 285.117188 355.648438 285.117188 C 353.605469 285.117188 350.761719 286.722656 349.15625 289.492188 L 345.445313 295.898438 C 345.363281 295.851563 345.28125 295.800781 345.210938 295.765625 L 344.953125 296.058594 C 342.21875 299.230469 339.558594 301.746094 337.878906 301.746094 C 337.039063 301.746094 336.566406 301.164063 337.441406 299.667969 L 342.910156 290.078125 C 344.554688 287.195313 342.984375 285.117188 340.867188 285.117188 C 339.226563 285.117188 337.515625 285.992188 335.617188 287.960938 L 337.039063 285.484375 L 333.246094 285.484375 L 327.183594 295.96875 C 327.0625 295.890625 326.9375 295.816406 326.824219 295.765625 L 326.566406 296.058594 C 323.835938 299.230469 321.171875 301.746094 319.492188 301.746094 C 318.65625 301.746094 318.183594 301.164063 319.054688 299.667969 L 325.183594 288.945313 L 323.03125 288.945313 C 323.175781 287.34375 321.535156 285.117188 319.054688 285.117188 C 317.011719 285.117188 314.167969 286.722656 312.5625 289.492188 L 308.898438 295.820313 L 308.691406 296.054688 C 305.957031 299.226563 303.296875 301.742188 301.617188 301.742188 C 300.777344 301.742188 300.304688 301.160156 301.179688 299.664063 L 304.972656 293.027344 C 306.285156 290.730469 305.664063 289.382813 304.425781 287.886719 L 302.308594 285.332031 C 301.761719 284.640625 301.761719 283.875 302.527344 283.144531 L 300.558594 280.992188 C 298.40625 282.925781 298.226563 285.078125 299.574219 286.828125 L 299.902344 287.265625 C 298.226563 289.636719 295.964844 292.847656 293.484375 295.761719 C 293.558594 295.871094 293.648438 295.976563 293.742188 296.082031 C 290.617188 299.675781 287.960938 302 284.980469 303.273438 L 289.792969 295.03125 L 286 295.03125 L 285.597656 295.691406 C 283.59375 299.226563 281.292969 301.742188 278.339844 301.742188 C 275.75 301.742188 275.277344 299.15625 277.539063 295.289063 L 278.597656 293.429688 C 279.289063 293.539063 279.984375 293.613281 280.746094 293.613281 C 294.242188 293.613281 300.769531 275.5625 288.882813 275.5625 C 286.800781 275.5625 284.320313 277.019531 282.609375 280.011719 L 276.699219 290.183594 C 274.476563 289.019531 273.308594 286.902344 273.308594 284.789063 C 273.308594 283.039063 274.113281 281.285156 275.75 280.011719 L 274.511719 277.785156 C 271.8125 279.71875 270.609375 282.308594 270.609375 284.859375 C 270.609375 287.886719 272.324219 290.804688 275.386719 292.410156 L 274.257813 294.378906 C 271.59375 298.976563 272.070313 304.078125 277.429688 304.078125 C 279.035156 304.078125 280.382813 303.605469 281.550781 302.875 L 280.566406 304.589844 C 275.425781 306.15625 272.253906 308.238281 272.253906 311.082031 C 272.253906 314.726563 277.832031 315.492188 280.566406 310.824219 L 283.484375 305.828125 C 287.421875 304.589844 291.289063 301.890625 295.445313 297.078125 C 295.386719 296.960938 295.304688 296.839844 295.210938 296.722656 C 296.894531 294.742188 298.324219 292.832031 301.183594 288.945313 L 301.691406 289.566406 C 302.167969 290.1875 302.347656 290.953125 301.910156 291.71875 L 297.898438 298.683594 C 296.292969 301.488281 297.425781 304.078125 300.488281 304.078125 C 302.394531 304.078125 304.476563 302.832031 306.523438 301.042969 C 306.476563 302.785156 307.671875 304.078125 309.832031 304.078125 C 311.363281 304.078125 313.261719 303.09375 315.082031 301.597656 C 315.265625 303.058594 316.433594 304.078125 318.367188 304.078125 C 320.183594 304.078125 322.15625 302.949219 324.109375 301.292969 L 322.710938 303.714844 L 326.539063 303.714844 L 332.335938 293.609375 C 338.136719 286.355469 340.726563 287.300781 339.082031 290.109375 L 334.160156 298.679688 C 332.558594 301.488281 333.6875 304.078125 336.75 304.078125 C 338.765625 304.078125 340.976563 302.6875 343.128906 300.730469 C 342.929688 302.632813 344.136719 304.078125 346.425781 304.078125 C 347.957031 304.078125 349.851563 303.09375 351.675781 301.597656 C 351.859375 303.058594 353.027344 304.078125 354.957031 304.078125 C 358.09375 304.078125 361.703125 300.722656 364.839844 297.074219 C 364.585938 296.570313 363.929688 295.984375 363.414063 295.769531 "/>
<g clip-path="url(#clip2)" clip-rule="nonzero">
<path style=" stroke:none;fill-rule:nonzero;fill:rgb(100%,100%,100%);fill-opacity:1;" d="M 210.058594 332.023438 L 209.875 332.023438 C 208.636719 332.023438 207.648438 333.042969 207.648438 334.285156 C 207.648438 334.757813 207.796875 335.195313 208.015625 335.558594 L 207.976563 335.632813 C 206.191406 338.695313 201.851563 338.113281 204.113281 334.171875 L 206.992188 329.175781 L 208.816406 326.078125 C 211.480469 321.554688 215.125 323.34375 212.828125 327.28125 Z M 184.53125 346.207031 C 183.726563 347.628906 182.453125 347.410156 182.453125 346.390625 C 182.453125 345.40625 183.363281 344.277344 186.28125 343.144531 Z M 155.679688 332.421875 C 153.382813 336.035156 151.121094 337.746094 149.554688 337.746094 C 148.714844 337.746094 148.242188 337.164063 149.113281 335.667969 L 154.402344 326.441406 C 156.445313 322.902344 160.492188 323.816406 158.632813 327.246094 Z M 142.324219 317.617188 C 143.453125 315.683594 144.695313 314.84375 145.753906 314.84375 C 147.175781 314.84375 147.832031 315.792969 147.832031 317.179688 C 147.832031 320.71875 143.527344 327.097656 137.621094 327.097656 L 136.855469 327.097656 Z M 236.710938 331.765625 L 236.457031 332.058594 C 233.722656 335.230469 231.0625 337.75 229.382813 337.75 C 228.542969 337.75 228.070313 337.164063 228.945313 335.667969 L 234.414063 326.078125 C 236.058594 323.199219 234.488281 321.117188 232.371094 321.117188 C 230.730469 321.117188 229.019531 321.992188 227.121094 323.960938 L 228.542969 321.484375 L 224.75 321.484375 L 218.640625 332.058594 C 218.472656 331.9375 218.308594 331.832031 218.15625 331.765625 L 217.898438 332.058594 C 216.1875 333.917969 214.070313 334.832031 212.175781 334.867188 L 215.746094 328.707031 C 218.046875 324.726563 215.929688 320.972656 212.355469 320.972656 C 209.4375 320.972656 207.179688 322.140625 204.988281 325.933594 L 203.128906 329.179688 L 201.503906 331.960938 C 201.386719 331.886719 201.269531 331.816406 201.160156 331.769531 L 200.90625 332.0625 C 197.769531 335.667969 195.105469 338.003906 192.117188 339.285156 L 202.511719 321.484375 L 198.71875 321.484375 L 192.007813 333.15625 C 189.089844 335.851563 186.828125 337.347656 186.101563 337.019531 C 185.152344 336.621094 186.101563 335.199219 186.574219 334.394531 L 193.976563 321.484375 L 190.183594 321.484375 L 184.132813 331.957031 C 184.019531 331.882813 183.90625 331.8125 183.800781 331.769531 L 183.546875 332.0625 C 180.8125 335.234375 178.148438 337.75 176.472656 337.75 C 175.632813 337.75 175.160156 337.167969 176.035156 335.671875 L 181.503906 326.082031 C 183.144531 323.199219 181.578125 321.121094 179.460938 321.121094 C 177.820313 321.121094 176.105469 321.996094 174.210938 323.964844 L 175.632813 321.484375 L 171.839844 321.484375 L 165.777344 331.972656 C 165.65625 331.890625 165.53125 331.820313 165.417969 331.769531 L 165.164063 332.0625 C 162.429688 335.234375 159.765625 337.75 158.089844 337.75 C 157.25 337.75 156.777344 337.167969 157.648438 335.671875 L 163.777344 324.949219 L 161.625 324.949219 C 161.773438 323.34375 160.132813 321.121094 157.648438 321.121094 C 155.609375 321.121094 152.761719 322.722656 151.160156 325.496094 L 147.242188 332.257813 C 146.980469 332.023438 146.683594 331.84375 146.410156 331.769531 L 146.15625 332.0625 C 143.421875 335.234375 140.066406 337.75 136.308594 337.75 C 133.71875 337.75 132.152344 335.164063 134.410156 331.296875 L 135.46875 329.4375 C 136.164063 329.542969 136.855469 329.621094 137.621094 329.621094 C 141.667969 329.621094 146.265625 327.542969 149.253906 322.328125 C 150.3125 320.464844 150.785156 318.714844 150.785156 317.222656 C 150.785156 313.792969 148.5625 311.570313 145.753906 311.570313 C 143.675781 311.570313 141.195313 313.027344 139.480469 316.019531 L 133.574219 326.195313 C 131.347656 325.027344 130.179688 322.914063 130.179688 320.796875 C 130.179688 319.046875 130.984375 317.296875 132.625 316.019531 L 131.382813 313.792969 C 128.683594 315.730469 127.480469 318.316406 127.480469 320.871094 C 127.480469 323.894531 129.195313 326.8125 132.257813 328.417969 L 131.128906 330.390625 C 128.46875 334.984375 130.035156 340.089844 135.394531 340.089844 C 139.636719 340.089844 142.75 338.199219 145.363281 335.714844 C 144.539063 338.101563 145.738281 340.089844 148.425781 340.089844 C 149.957031 340.089844 151.851563 339.105469 153.675781 337.609375 C 153.859375 339.070313 155.027344 340.089844 156.957031 340.089844 C 158.773438 340.089844 160.75 338.960938 162.699219 337.304688 L 161.300781 339.726563 L 165.128906 339.726563 L 170.929688 329.625 C 176.726563 322.367188 179.316406 323.3125 177.675781 326.121094 L 172.753906 334.6875 C 171.148438 337.5 172.277344 340.085938 175.34375 340.085938 C 177.382813 340.085938 179.625 338.660156 181.808594 336.664063 C 181.351563 338.75 182.316406 340.085938 184.203125 340.085938 C 186.027344 340.085938 188.105469 338.554688 189.820313 337.023438 L 187.742188 340.597656 C 182.597656 342.125 179.390625 344.242188 179.390625 347.085938 C 179.390625 350.734375 184.96875 351.5 187.703125 346.832031 L 190.621094 341.835938 C 193.789063 340.835938 196.917969 338.871094 200.183594 335.640625 C 199.660156 340.9375 206.714844 342.144531 210.96875 336.765625 L 211.808594 336.765625 C 213.191406 336.765625 215.066406 336.246094 216.761719 335.3125 L 214.210938 339.722656 L 218.039063 339.722656 L 223.839844 329.621094 C 229.636719 322.359375 232.226563 323.308594 230.585938 326.117188 L 225.660156 334.6875 C 224.058594 337.496094 225.1875 340.085938 228.253906 340.085938 C 231.390625 340.085938 234.996094 336.730469 238.136719 333.082031 C 237.878906 332.570313 237.222656 331.984375 236.710938 331.765625 "/>
</g>
<path style=" stroke:none;fill-rule:nonzero;fill:rgb(100%,100%,100%);fill-opacity:1;" d="M 299.433594 330.089844 L 300.527344 328.191406 C 304.902344 322.101563 307.894531 323.78125 306.542969 326.078125 L 304.722656 329.214844 C 303.589844 331.183594 300.269531 332.570313 299.433594 330.089844 M 324.621094 333.078125 C 324.402344 332.496094 323.746094 331.914063 323.199219 331.769531 L 322.941406 332.0625 C 321.554688 333.703125 319.878906 335.160156 318.382813 336.179688 C 319.585938 332.570313 319.328125 327.027344 321.664063 322.175781 L 318.816406 320.644531 C 317.253906 322.796875 313.824219 327.753906 310.394531 331.769531 C 310.398438 331.777344 310.410156 331.785156 310.414063 331.792969 C 310.398438 331.785156 310.382813 331.773438 310.367188 331.769531 L 310.113281 332.0625 C 307.378906 335.234375 304.71875 337.75 303.039063 337.75 C 302.199219 337.75 301.398438 336.910156 301.398438 335.195313 L 301.398438 333.628906 C 304.058594 333.957031 306.867188 332.203125 308.65625 329.105469 L 309.675781 327.355469 C 313.210938 321.300781 307.449219 319.296875 303.585938 322.835938 L 308.980469 313.460938 L 305.1875 313.460938 L 294.371094 332.230469 C 294.140625 332.035156 293.894531 331.867188 293.679688 331.769531 L 293.421875 332.0625 C 290.6875 335.234375 287.1875 337.75 284.523438 337.75 C 282.191406 337.75 280.804688 336.292969 282.554688 333.230469 L 286.453125 326.449219 C 288.644531 322.691406 292.511719 323.3125 290.246094 327.25 L 289.703125 328.199219 L 292.804688 328.199219 L 293.351563 327.25 C 295.390625 323.75 293.421875 321.125 290.324219 321.125 C 287.261719 321.125 284.816406 322.730469 283.210938 325.5 L 279.480469 331.90625 C 279.402344 331.859375 279.320313 331.804688 279.246094 331.773438 L 278.988281 332.066406 C 276.253906 335.238281 273.59375 337.753906 271.914063 337.753906 C 271.078125 337.753906 270.605469 337.167969 271.476563 335.671875 L 279.574219 321.488281 L 275.78125 321.488281 L 269.035156 333.265625 C 266.152344 335.890625 263.929688 337.351563 263.199219 337.023438 C 262.253906 336.621094 263.199219 335.199219 263.671875 334.398438 L 271.078125 321.488281 L 267.285156 321.488281 L 259.917969 334.230469 C 259.097656 334.976563 258.261719 335.644531 257.46875 336.183594 C 258.671875 332.574219 258.414063 327.03125 260.75 322.179688 L 257.90625 320.648438 C 256.339844 322.796875 247.585938 334.398438 244.15625 338.410156 C 244.484375 338.882813 245.03125 339.355469 245.578125 339.722656 C 247.730469 337.242188 254.953125 327.941406 256.300781 326.15625 C 254.804688 330.09375 255.609375 337.167969 251.996094 337.167969 C 250.722656 337.167969 250.210938 335.78125 250.210938 335.78125 L 247.839844 337.023438 C 247.839844 337.023438 248.53125 340.085938 251.996094 340.085938 C 252.363281 340.085938 252.691406 340.046875 253.054688 340.011719 C 253.089844 340.011719 253.128906 339.976563 253.164063 339.976563 C 255.089844 339.722656 257.003906 338.832031 258.792969 337.597656 C 258.78125 339.140625 259.714844 340.085938 261.304688 340.085938 C 263.378906 340.085938 265.714844 338.1875 267.539063 336.4375 C 267.175781 338.480469 268.375 340.085938 270.785156 340.085938 C 273.140625 340.085938 275.761719 338.191406 278.25 335.703125 C 278.285156 338.226563 280.226563 340.085938 283.394531 340.085938 C 286.472656 340.085938 289.535156 338.363281 292.171875 336.054688 L 290.058594 339.722656 L 293.886719 339.722656 L 298.226563 332.171875 L 298.226563 335.199219 C 298.226563 338.441406 298.847656 340.085938 301.910156 340.085938 C 305.046875 340.085938 308.660156 336.730469 311.796875 333.082031 C 311.789063 333.070313 311.777344 333.0625 311.773438 333.046875 C 311.789063 333.0625 311.804688 333.070313 311.820313 333.082031 C 313.972656 330.605469 315.871094 327.941406 317.214844 326.152344 C 315.722656 330.089844 316.527344 337.167969 312.914063 337.167969 C 311.640625 337.167969 311.128906 335.78125 311.128906 335.78125 L 308.753906 337.019531 C 308.753906 337.019531 309.449219 340.082031 312.914063 340.082031 C 313.277344 340.082031 313.605469 340.046875 313.972656 340.011719 C 314.007813 340.011719 314.042969 339.976563 314.078125 339.976563 C 317.945313 339.460938 321.777344 336.398438 324.621094 333.078125 "/>
<path style=" stroke:none;fill-rule:nonzero;fill:rgb(100%,100%,100%);fill-opacity:1;" d="M 324.472656 335.667969 C 323.234375 335.667969 322.285156 336.652344 322.285156 337.894531 C 322.285156 339.136719 323.234375 340.082031 324.472656 340.082031 C 325.710938 340.082031 326.699219 339.136719 326.699219 337.894531 C 326.699219 336.652344 325.710938 335.667969 324.472656 335.667969 "/>
<path style=" stroke:none;fill-rule:nonzero;fill:rgb(100%,100%,100%);fill-opacity:1;" d="M 324.65625 334.171875 L 328.484375 334.171875 L 340.371094 313.457031 L 336.582031 313.457031 Z M 324.65625 334.171875 "/>
<path style=" stroke:none;fill-rule:nonzero;fill:rgb(100%,100%,100%);fill-opacity:1;" d="M 88.277344 277.582031 C 88.277344 277.875 88.21875 278.171875 88.105469 278.460938 C 87.996094 278.753906 87.824219 279.023438 87.601563 279.257813 C 87.375 279.496094 87.097656 279.6875 86.769531 279.832031 C 86.445313 279.980469 86.078125 280.054688 85.671875 280.054688 C 85.21875 280.054688 84.785156 279.96875 84.367188 279.800781 C 83.953125 279.628906 83.597656 279.390625 83.304688 279.074219 C 83.054688 278.78125 82.863281 278.429688 82.730469 278.023438 C 82.59375 277.617188 82.527344 277.191406 82.527344 276.738281 C 82.527344 275.882813 82.679688 275.09375 82.984375 274.371094 C 83.289063 273.648438 83.722656 273.007813 84.285156 272.441406 C 84.535156 272.195313 84.8125 271.964844 85.132813 271.75 C 85.445313 271.535156 85.746094 271.355469 86.027344 271.207031 C 86.3125 271.0625 86.550781 270.945313 86.757813 270.855469 C 86.960938 270.765625 87.085938 270.707031 87.128906 270.6875 L 88.480469 272.683594 C 88.234375 272.773438 87.960938 272.890625 87.652344 273.035156 C 87.347656 273.183594 87.0625 273.363281 86.789063 273.578125 C 86.519531 273.789063 86.292969 274.042969 86.113281 274.335938 C 85.933594 274.628906 85.832031 274.96875 85.808594 275.355469 C 86.464844 275.355469 87.039063 275.542969 87.535156 275.929688 C 88.027344 276.3125 88.277344 276.863281 88.277344 277.582031 M 80.410156 277.582031 C 80.410156 277.875 80.351563 278.171875 80.242188 278.460938 C 80.128906 278.757813 79.960938 279.023438 79.734375 279.261719 C 79.507813 279.496094 79.230469 279.6875 78.90625 279.832031 C 78.578125 279.980469 78.210938 280.054688 77.804688 280.054688 C 77.355469 280.054688 76.917969 279.972656 76.503906 279.800781 C 76.085938 279.628906 75.730469 279.390625 75.4375 279.074219 C 75.1875 278.78125 75 278.429688 74.863281 278.023438 C 74.726563 277.617188 74.660156 277.191406 74.660156 276.738281 C 74.660156 275.882813 74.8125 275.09375 75.117188 274.371094 C 75.421875 273.648438 75.855469 273.007813 76.417969 272.441406 C 76.667969 272.195313 76.949219 271.964844 77.265625 271.75 C 77.582031 271.535156 77.878906 271.355469 78.160156 271.207031 C 78.441406 271.0625 78.683594 270.945313 78.890625 270.855469 C 79.09375 270.765625 79.21875 270.707031 79.261719 270.683594 L 80.613281 272.679688 C 80.367188 272.769531 80.089844 272.890625 79.785156 273.035156 C 79.480469 273.183594 79.195313 273.363281 78.925781 273.574219 C 78.652344 273.789063 78.429688 274.042969 78.246094 274.335938 C 78.066406 274.628906 77.964844 274.96875 77.941406 275.351563 C 78.597656 275.351563 79.171875 275.542969 79.667969 275.929688 C 80.164063 276.3125 80.410156 276.863281 80.410156 277.582031 "/>
<path style=" stroke:none;fill-rule:nonzero;fill:rgb(100%,100%,100%);fill-opacity:1;" d="M 345.570313 336.527344 C 345.570313 336.230469 345.628906 335.9375 345.742188 335.644531 C 345.855469 335.351563 346.023438 335.085938 346.246094 334.851563 C 346.472656 334.613281 346.75 334.421875 347.078125 334.277344 C 347.402344 334.128906 347.769531 334.054688 348.175781 334.054688 C 348.628906 334.054688 349.0625 334.140625 349.480469 334.308594 C 349.894531 334.476563 350.25 334.71875 350.542969 335.039063 C 350.792969 335.332031 350.984375 335.679688 351.117188 336.085938 C 351.253906 336.492188 351.320313 336.921875 351.320313 337.371094 C 351.320313 338.226563 351.167969 339.015625 350.863281 339.738281 C 350.5625 340.460938 350.125 341.101563 349.5625 341.667969 C 349.316406 341.914063 349.035156 342.144531 348.71875 342.359375 C 348.398438 342.574219 348.101563 342.753906 347.820313 342.902344 C 347.539063 343.046875 347.296875 343.167969 347.09375 343.253906 C 346.890625 343.34375 346.765625 343.402344 346.722656 343.425781 L 345.367188 341.429688 C 345.617188 341.339844 345.890625 341.21875 346.195313 341.074219 C 346.5 340.929688 346.789063 340.75 347.058594 340.535156 C 347.328125 340.320313 347.554688 340.066406 347.734375 339.769531 C 347.914063 339.476563 348.015625 339.140625 348.039063 338.757813 C 347.386719 338.757813 346.8125 338.566406 346.3125 338.179688 C 345.820313 337.800781 345.570313 337.246094 345.570313 336.527344 M 353.4375 336.527344 C 353.4375 336.230469 353.496094 335.9375 353.605469 335.644531 C 353.71875 335.351563 353.890625 335.085938 354.113281 334.851563 C 354.339844 334.613281 354.617188 334.421875 354.941406 334.277344 C 355.269531 334.128906 355.632813 334.054688 356.042969 334.054688 C 356.492188 334.054688 356.929688 334.140625 357.34375 334.308594 C 357.761719 334.476563 358.117188 334.71875 358.410156 335.039063 C 358.660156 335.332031 358.851563 335.679688 358.984375 336.085938 C 359.121094 336.492188 359.1875 336.921875 359.1875 337.371094 C 359.1875 338.226563 359.035156 339.015625 358.730469 339.738281 C 358.425781 340.460938 357.992188 341.101563 357.429688 341.667969 C 357.179688 341.914063 356.898438 342.144531 356.578125 342.359375 C 356.269531 342.574219 355.96875 342.753906 355.683594 342.902344 C 355.402344 343.046875 355.160156 343.167969 354.957031 343.253906 C 354.753906 343.34375 354.632813 343.402344 354.585938 343.425781 L 353.230469 341.429688 C 353.480469 341.339844 353.753906 341.21875 354.058594 341.074219 C 354.363281 340.929688 354.652344 340.75 354.921875 340.535156 C 355.191406 340.320313 355.417969 340.066406 355.597656 339.769531 C 355.78125 339.476563 355.882813 339.140625 355.902344 338.757813 C 355.25 338.757813 354.675781 338.566406 354.179688 338.179688 C 353.6875 337.800781 353.4375 337.246094 353.4375 336.527344 "/>
</g>
</svg>
