<?xml version="1.0" encoding="UTF-8"?>
<svg xmlns="http://www.w3.org/2000/svg" xmlns:xlink="http://www.w3.org/1999/xlink" width="24pt" height="22.38pt" viewBox="0 0 24 22.38" version="1.1">
<g id="surface1">
<path style=" stroke:none;fill-rule:nonzero;fill:rgb(100%,100%,100%);fill-opacity:1;" d="M 23 10.378906 L 23 10.425781 Z M 5 9.378906 L 1 9.378906 L 1 21.378906 L 5 21.378906 Z M 14.199219 1.378906 L 7.601563 7.980469 C 7.199219 8.28125 7 8.78125 7 9.378906 L 7 19.378906 C 7 20.480469 7.898438 21.378906 9 21.378906 L 18 21.378906 C 18.800781 21.378906 19.5 20.878906 19.800781 20.179688 L 22.800781 13.078125 C 22.898438 12.878906 22.898438 12.578125 22.898438 12.378906 L 22.898438 10.378906 L 23 10.378906 C 23 9.28125 22.101563 8.378906 21 8.378906 L 14.699219 8.378906 L 15.699219 3.78125 L 15.699219 3.480469 C 15.699219 3.078125 15.5 2.679688 15.300781 2.378906 Z M 3 11.378906 L 3 19.378906 L 3 11.378906 M 13.382813 5.027344 L 12.746094 7.953125 L 12.21875 10.378906 L 20.898438 10.378906 L 20.898438 12.378906 C 20.898438 12.398438 20.898438 12.417969 20.902344 12.4375 L 18 19.378906 L 9 19.378906 L 9 9.410156 L 13.382813 5.027344 "/>
</g>
</svg>
