<svg width="462" height="500" viewBox="0 0 462 500" fill="none" xmlns="http://www.w3.org/2000/svg">
<path d="M77.5 69.5H379.5V430.5H77.5V69.5Z" fill="#010123"/>
<path d="M229.154 500C159.815 500 104.232 477.395 62.4052 432.185C20.8017 386.978 0 328.16 0 255.734C0 177.913 21.2491 115.834 63.7473 69.5007C106.245 23.1669 163.953 0 236.87 0C304.421 0 358.773 22.4922 399.929 67.4765C441.31 112.461 462 171.278 462 243.928C462 322.875 440.861 385.289 398.589 431.175C356.314 477.057 299.835 500 229.154 500ZM232.845 70.5129C188.781 70.5129 152.881 87.0445 125.146 120.108C97.6339 153.171 83.878 196.694 83.878 250.674C83.878 304.43 97.2984 347.728 124.139 380.567C150.98 413.405 186.097 429.825 229.49 429.825C275.567 429.825 311.915 414.192 338.532 382.928C365.148 351.665 378.457 307.916 378.457 251.687C378.457 193.882 365.485 149.235 339.539 117.746C313.814 86.2574 278.251 70.5129 232.845 70.5129Z" fill="#190CD6"/>
<path d="M229.802 413C184.776 413 148.683 398.262 121.523 368.785C94.5076 339.31 81 300.96 81 253.739C81 202.999 94.7981 162.524 122.394 132.314C149.991 102.105 187.463 87 234.812 87C278.676 87 313.97 101.665 340.694 130.995C367.565 160.324 381 198.673 381 246.041C381 297.514 367.274 338.208 339.824 368.126C312.372 398.041 275.698 413 229.802 413ZM232.198 132.974C203.585 132.974 180.274 143.753 162.263 165.31C144.399 186.868 135.466 215.244 135.466 250.44C135.466 285.488 144.181 313.718 161.61 335.13C179.039 356.54 201.842 367.246 230.019 367.246C259.939 367.246 283.542 357.053 300.826 336.669C318.109 316.285 326.751 287.761 326.751 251.1C326.751 213.411 318.328 184.301 301.48 163.771C284.776 143.24 261.682 132.974 232.198 132.974Z" fill="#371CFF"/>
<path d="M230.217 356C200.8 356 177.22 346.416 159.475 327.247C141.825 308.079 133 283.14 133 252.431C133 219.435 142.015 193.114 160.044 173.468C178.074 153.823 202.556 144 233.49 144C262.148 144 285.207 153.537 302.667 172.61C320.222 191.683 329 216.622 329 247.425C329 280.899 320.032 307.363 302.098 326.818C284.163 346.272 260.203 356 230.217 356ZM231.783 173.897C213.089 173.897 197.859 180.907 186.092 194.926C174.42 208.945 168.585 227.398 168.585 250.286C168.585 273.078 174.278 291.437 185.665 305.361C197.052 319.284 211.95 326.246 230.359 326.246C249.907 326.246 265.328 319.617 276.62 306.362C287.911 293.106 293.557 274.556 293.557 250.715C293.557 226.206 288.054 207.276 277.047 193.924C266.133 180.573 251.046 173.897 231.783 173.897Z" fill="#2767DE"/>
<path d="M230.497 318C211.586 318 196.427 311.851 185.02 299.554C173.673 287.258 168 271.26 168 251.56C168 230.392 173.795 213.507 185.386 200.904C196.976 188.301 212.715 182 232.601 182C251.024 182 265.847 188.118 277.072 200.354C288.357 212.589 294 228.588 294 248.348C294 269.822 288.235 286.799 276.706 299.28C265.176 311.759 249.773 318 230.497 318ZM231.503 201.18C219.486 201.18 209.695 205.676 202.131 214.669C194.627 223.663 190.876 235.501 190.876 250.183C190.876 264.805 194.536 276.582 201.856 285.514C209.176 294.446 218.754 298.912 230.588 298.912C243.155 298.912 253.068 294.66 260.327 286.156C267.586 277.653 271.215 265.753 271.215 250.459C271.215 234.736 267.678 222.592 260.601 214.027C253.586 205.462 243.887 201.18 231.503 201.18Z" fill="#1F8DCE"/>
<path d="M230.664 295C218.057 295 207.951 290.931 200.346 282.793C192.782 274.656 189 264.069 189 251.032C189 237.024 192.863 225.85 200.59 217.51C208.317 209.17 218.81 205 232.067 205C244.349 205 254.232 209.049 261.714 217.146C269.238 225.243 273 235.83 273 248.907C273 263.117 269.157 274.352 261.471 282.612C253.784 290.87 243.516 295 230.664 295ZM231.335 217.692C223.324 217.692 216.797 220.668 211.754 226.619C206.752 232.571 204.251 240.405 204.251 250.121C204.251 259.797 206.691 267.591 211.571 273.502C216.451 279.413 222.836 282.368 230.725 282.368C239.103 282.368 245.712 279.554 250.551 273.927C255.391 268.3 257.81 260.425 257.81 250.304C257.81 239.899 255.452 231.862 250.734 226.194C246.057 220.526 239.591 217.692 231.335 217.692Z" fill="#18B4BD"/>
<path d="M230.776 280C222.372 280 215.634 277.287 210.564 271.862C205.521 266.437 203 259.379 203 250.688C203 241.35 205.576 233.9 210.727 228.34C215.878 222.78 222.873 220 231.712 220C239.9 220 246.488 222.699 251.476 228.097C256.492 233.495 259 240.553 259 249.271C259 258.745 256.438 266.235 251.314 271.741C246.19 277.247 239.344 280 230.776 280ZM231.224 228.462C225.883 228.462 221.531 230.445 218.169 234.413C214.834 238.381 213.167 243.603 213.167 250.081C213.167 256.532 214.794 261.727 218.047 265.668C221.301 269.609 225.557 271.579 230.817 271.579C236.402 271.579 240.808 269.703 244.034 265.951C247.26 262.2 248.874 256.95 248.874 250.202C248.874 243.266 247.301 237.908 244.156 234.13C241.038 230.351 236.727 228.462 231.224 228.462Z" fill="#0FD9AC"/>
<path d="M230.856 270C225.453 270 221.122 268.192 217.863 264.575C214.621 260.958 213 256.253 213 250.459C213 244.233 214.656 239.267 217.967 235.56C221.279 231.853 225.776 230 231.457 230C236.721 230 240.956 231.799 244.163 235.398C247.388 238.997 249 243.702 249 249.514C249 255.83 247.353 260.823 244.059 264.494C240.765 268.165 236.364 270 230.856 270ZM230.882 237C227.449 237 225.661 237.855 223.5 240.5C221.356 243.145 221 245.735 221 250.054C221 254.354 221.408 256.873 223.5 259.5C225.592 262.127 227.475 263 230.856 263C234.447 263 236.426 262.001 238.5 259.5C240.574 256.999 241 254.552 241 250.054C241 245.43 240.522 243.019 238.5 240.5C236.496 237.981 234.42 237 230.882 237Z" fill="#08FF9C"/>
<circle cx="231" cy="250" r="12" fill="#7AFFCA"/>
</svg>
