<?xml version="1.0" encoding="UTF-8"?>
<svg xmlns="http://www.w3.org/2000/svg" xmlns:xlink="http://www.w3.org/1999/xlink" width="101.67pt" height="83.98pt" viewBox="0 0 101.67 83.98" version="1.1">
<defs>
<clipPath id="clip1">
  <path d="M 0 0 L 101.671875 0 L 101.671875 60 L 0 60 Z M 0 0 "/>
</clipPath>
</defs>
<g id="surface1">
<g clip-path="url(#clip1)" clip-rule="nonzero">
<path style=" stroke:none;fill-rule:nonzero;fill:rgb(13.299561%,66.299438%,87.799072%);fill-opacity:1;" d="M 0 -0.00390625 L 50.582031 59.050781 L 101.667969 -0.00390625 "/>
</g>
<path style=" stroke:none;fill-rule:nonzero;fill:rgb(28.199768%,7.099915%,7.499695%);fill-opacity:1;" d="M 0 -0.00390625 L 0 22.457031 L 50.582031 83.980469 L 50.917969 83.554688 L 101.667969 23.164063 L 101.667969 -0.00390625 Z M 3.707031 1.773438 L 98.125 1.773438 L 50.917969 57.046875 L 50.582031 57.457031 Z M 3.707031 1.773438 "/>
<path style=" stroke:none;fill-rule:nonzero;fill:rgb(28.199768%,7.099915%,7.499695%);fill-opacity:1;" d="M 50.582031 57.457031 L 50.917969 57.046875 L 78.496094 24.757813 C 71.582031 25.707031 66.632813 30.835938 59.890625 29.714844 C 56.496094 29.152344 56.394531 27.203125 55.421875 25.257813 C 54.675781 23.765625 53.484375 23.957031 51.933594 23.347656 C 50.492188 22.785156 49.65625 21.613281 46.773438 22.289063 C 44.246094 22.878906 43.964844 26.804688 40.820313 26.582031 C 39.132813 26.460938 39.011719 24.082031 36.578125 21.042969 C 30.273438 13.472656 24.417969 14.519531 20.332031 21.515625 "/>
<path style=" stroke:none;fill-rule:nonzero;fill:rgb(100%,100%,100%);fill-opacity:1;" d="M 23.28125 32.242188 C 23.792969 32.863281 24.171875 33.527344 24.085938 34.359375 C 24.027344 34.9375 23.148438 35.910156 23.816406 36.207031 C 24.5625 35.261719 25.308594 34.316406 26.054688 33.375 C 25.457031 33.222656 20.691406 27.523438 20.613281 26.898438 C 19.5625 27.476563 18.507813 28.054688 17.457031 28.636719 C 17.621094 29.296875 18.75 28.640625 19.308594 28.679688 C 20.136719 28.738281 20.734375 29.238281 21.261719 29.832031 C 19.535156 31.28125 15.332031 34.847656 14.886719 34.921875 C 14.660156 34.960938 13.800781 34.320313 13.785156 34.867188 C 13.78125 35.128906 14.640625 35.882813 14.800781 36.074219 C 15.546875 36.960938 16.285156 37.847656 17.03125 38.726563 C 17.648438 38.445313 16.921875 38 17.234375 37.484375 C 17.46875 37.109375 22.140625 33.21875 23.28125 32.242188 "/>
<path style=" stroke:none;fill-rule:nonzero;fill:rgb(100%,100%,100%);fill-opacity:1;" d="M 18.007813 25.265625 C 18.449219 25.167969 18.628906 25.699219 18.964844 25.207031 C 18.148438 24.234375 17.332031 23.261719 16.515625 22.289063 C 16.144531 21.847656 15.675781 21.375 15.808594 22.308594 C 15.898438 22.941406 9.695313 27.972656 9.316406 28.128906 C 8.835938 28.328125 8.558594 27.710938 8.207031 28.226563 C 8.9375 29.09375 9.667969 29.964844 10.402344 30.832031 C 10.648438 31.125 10.878906 31.445313 11.148438 31.714844 C 11.484375 32.054688 11.355469 31.042969 11.371094 31.128906 C 11.28125 30.617188 11.898438 30.183594 12.226563 29.902344 C 13.773438 28.542969 17.625 25.316406 18.007813 25.265625 "/>
<path style=" stroke:none;fill-rule:nonzero;fill:rgb(100%,100%,100%);fill-opacity:1;" d="M 9.234375 24.347656 C 7.46875 24.871094 5.585938 24.183594 5.027344 22.304688 C 4.484375 20.46875 5.644531 18.546875 7.097656 17.503906 C 8.539063 16.472656 10.6875 16.535156 11.472656 18.339844 C 11.820313 19.140625 11.628906 20.046875 11.378906 20.84375 C 11.21875 21.351563 10.78125 21.84375 11.433594 22.132813 C 12.292969 21.035156 13.15625 19.945313 14.015625 18.847656 C 12.960938 18.214844 12.496094 17.164063 11.714844 16.25 C 10.832031 15.179688 9.652344 14.171875 8.234375 13.96875 C 5.363281 13.5625 2.660156 16.523438 2.4375 19.210938 C 2.300781 20.667969 2.8125 22.0625 3.683594 23.214844 C 4.433594 24.207031 5.550781 24.835938 6.121094 25.96875 C 6.382813 26.0625 8.824219 24.9375 9.40625 24.710938 C 9.355469 24.601563 9.316406 24.4375 9.234375 24.347656 C 8.472656 24.574219 9.234375 24.347656 9.234375 24.347656 "/>
<path style=" stroke:none;fill-rule:nonzero;fill:rgb(100%,100%,100%);fill-opacity:1;" d="M 48.535156 60.753906 C 47.386719 59.988281 44.511719 56.066406 43.960938 55.414063 C 43.855469 55.285156 43.742188 55.152344 43.632813 55.023438 C 43.621094 55.007813 43.351563 55.246094 43.386719 55.210938 C 43.214844 55.359375 43.523438 55.785156 43.335938 56.078125 C 42.542969 57.316406 37.578125 61.058594 37.316406 61.238281 C 36.765625 61.625 36.152344 61.082031 35.832031 61.554688 C 36.550781 62.410156 38.609375 65.097656 38.851563 65.136719 C 39.332031 65.214844 38.996094 64.320313 39.0625 64.136719 C 39.183594 63.765625 41.695313 61.691406 42.609375 60.925781 C 42.945313 60.644531 43.300781 61.351563 43.496094 61.648438 C 43.824219 62.132813 43.972656 62.648438 43.796875 63.214844 C 43.679688 63.585938 43.082031 64.136719 43.546875 64.390625 C 44.164063 63.667969 45.90625 61.636719 46.160156 61.339844 C 46.410156 61.046875 45.59375 61.304688 45.691406 61.253906 C 45.320313 61.445313 44.972656 61.488281 44.628906 61.226563 C 44.53125 61.15625 43.539063 60.144531 43.636719 60.058594 C 44.066406 59.699219 44.597656 59.097656 45.152344 58.960938 C 46.015625 58.746094 46.734375 60.476563 46.863281 61.089844 C 46.984375 61.667969 46.96875 62.273438 46.789063 62.839844 C 46.664063 63.226563 46.300781 63.535156 46.804688 63.769531 C 47.519531 62.796875 48.230469 61.824219 48.9375 60.847656 C 48.789063 60.859375 48.65625 60.828125 48.535156 60.753906 C 48.40625 60.671875 48.675781 60.824219 48.535156 60.753906 "/>
<path style=" stroke:none;fill-rule:nonzero;fill:rgb(100%,100%,100%);fill-opacity:1;" d="M 37.847656 51.871094 C 37.199219 53.382813 35.644531 54.933594 34.113281 55.539063 C 32.296875 56.253906 31.015625 54.710938 31.757813 52.984375 C 32.40625 51.46875 33.957031 49.929688 35.492188 49.320313 C 37.34375 48.585938 38.558594 50.164063 37.847656 51.871094 C 37.464844 52.761719 37.917969 51.703125 37.847656 51.871094 M 38.3125 56.625 C 40.515625 54.769531 40.792969 51.570313 39.082031 49.285156 C 37.214844 46.796875 33.710938 46.191406 31.277344 48.234375 C 29.074219 50.085938 28.789063 53.28125 30.519531 55.558594 C 32.507813 58.179688 35.71875 58.476563 38.3125 56.625 C 39.46875 55.648438 38.210938 56.695313 38.3125 56.625 "/>
<path style=" stroke:none;fill-rule:nonzero;fill:rgb(100%,100%,100%);fill-opacity:1;" d="M 31.867188 42.015625 C 32.34375 42.078125 32.792969 42.566406 33.136719 42.058594 C 32.394531 41.179688 31.652344 40.300781 30.90625 39.421875 C 30.3125 39.691406 30.957031 39.972656 30.714844 40.394531 C 30.46875 40.820313 28.15625 41.171875 27.539063 41.285156 C 27.761719 40.640625 28.433594 38.667969 28.695313 38.449219 C 29.238281 38.003906 29.578125 38.878906 29.976563 38.308594 C 29.0625 37.222656 28.148438 36.136719 27.234375 35.054688 C 26.925781 34.6875 26.675781 34.027344 26.253906 34.375 C 26.292969 34.34375 26.261719 35.847656 26.167969 36.105469 C 26.082031 36.339844 25.230469 39.746094 24.238281 40.578125 C 23.746094 40.992188 22.003906 42.511719 21.539063 42.671875 C 20.996094 42.863281 20.714844 42.078125 20.320313 42.636719 C 21.148438 43.621094 21.976563 44.609375 22.808594 45.59375 C 22.933594 45.742188 23.410156 46.457031 23.578125 46.488281 C 24.097656 46.582031 23.636719 45.59375 23.6875 45.402344 C 23.839844 44.96875 26.1875 42.679688 27.183594 42.542969 C 28.648438 42.335938 30.386719 41.835938 31.867188 42.015625 C 32.207031 42.058594 31.515625 41.972656 31.867188 42.015625 "/>
<path style=" stroke:none;fill-rule:nonzero;fill:rgb(100%,100%,100%);fill-opacity:1;" d="M 69.207031 52.445313 C 69.394531 53.09375 69.503906 53.777344 69.421875 54.453125 C 69.3125 55.328125 68.441406 57.378906 67.246094 56.792969 C 66.078125 56.21875 65.054688 55.066406 64.058594 54.242188 C 64.859375 53.304688 65.566406 52.492188 66.914063 52.945313 C 67.28125 53.070313 67.601563 52.910156 67.210938 52.683594 C 66.808594 52.449219 64.097656 50.71875 63.953125 50.886719 C 63.679688 51.195313 64.476563 51.753906 64.171875 52.359375 C 63.941406 52.804688 63.5625 53.191406 63.238281 53.578125 C 62.519531 52.96875 61.316406 52.324219 62.183594 51.320313 C 62.726563 50.660156 63.433594 50.148438 64.28125 49.980469 C 64.847656 49.867188 66.121094 50.367188 66.289063 49.753906 C 65.199219 49.234375 64.113281 48.710938 63.03125 48.191406 C 63.207031 48.988281 59.679688 52.714844 58.898438 53.652344 C 58.785156 53.792969 58.238281 54.261719 58.234375 54.453125 C 58.226563 54.878906 58.855469 54.546875 58.890625 54.535156 C 59.378906 54.355469 65.707031 59.644531 65.863281 60.007813 C 65.964844 60.289063 65.644531 60.582031 65.835938 60.738281 C 65.824219 60.726563 66.0625 60.953125 66.089844 60.921875 C 66.480469 60.453125 70.609375 54.945313 71.460938 54.707031 C 70.667969 53.492188 69.875 52.273438 69.09375 51.054688 C 68.503906 51.3125 69.074219 52.003906 69.207031 52.445313 "/>
<path style=" stroke:none;fill-rule:nonzero;fill:rgb(100%,100%,100%);fill-opacity:1;" d="M 63.042969 59.148438 C 60.96875 57.808594 57.445313 60.425781 56.917969 60.679688 C 55.878906 61.167969 55.128906 60.136719 55.667969 59.175781 C 56.136719 58.347656 57.0625 57.941406 57.980469 57.886719 C 58.253906 57.871094 59.332031 58.085938 59.4375 57.914063 C 59.566406 57.710938 59.664063 57.691406 59.480469 57.566406 C 58.625 56.988281 57.769531 56.410156 56.914063 55.832031 C 56.738281 56.890625 55.527344 57.5625 54.839844 58.273438 C 54.015625 59.128906 53.316406 60.203125 53.316406 61.429688 C 53.316406 62.5625 53.996094 63.570313 54.992188 64.089844 C 56.132813 64.679688 57.3125 64.207031 58.316406 63.578125 C 58.945313 63.1875 59.570313 62.722656 60.242188 62.40625 C 61.238281 61.941406 62.546875 62.34375 62.195313 63.675781 C 61.914063 64.75 60.84375 65.738281 59.789063 66.015625 C 59.171875 66.179688 58.519531 66.125 57.917969 65.925781 C 57.484375 65.785156 56.925781 65.191406 56.6875 65.816406 C 57.847656 66.664063 59.007813 67.507813 60.167969 68.351563 C 60.273438 67.59375 60.691406 67.261719 61.253906 66.789063 C 61.988281 66.144531 62.691406 65.472656 63.25 64.660156 C 64.40625 62.96875 64.789063 60.597656 63.042969 59.148438 "/>
<path style=" stroke:none;fill-rule:nonzero;fill:rgb(100%,100%,100%);fill-opacity:1;" d="M 63.042969 59.148438 C 63.96875 59.746094 62.453125 58.652344 63.042969 59.148438 "/>
<path style=" stroke:none;fill-rule:nonzero;fill:rgb(100%,100%,100%);fill-opacity:1;" d="M 92.277344 21.832031 C 92.269531 21.835938 92.269531 21.835938 92.277344 21.832031 "/>
<path style=" stroke:none;fill-rule:nonzero;fill:rgb(100%,100%,100%);fill-opacity:1;" d="M 92.359375 21.78125 C 92.4375 21.730469 92.515625 21.683594 92.359375 21.78125 C 92.308594 21.8125 92.289063 21.828125 92.277344 21.835938 C 92.292969 21.828125 92.324219 21.804688 92.359375 21.78125 C 92.011719 22.003906 91.691406 22.257813 91.402344 22.542969 C 90.878906 21.644531 90.355469 20.75 89.835938 19.851563 C 91.015625 20.34375 92.191406 20.835938 93.359375 21.332031 C 93.007813 21.429688 92.671875 21.585938 92.359375 21.78125 M 99.734375 19.625 C 99.007813 20.351563 91.316406 17.28125 90.753906 16.859375 C 90.464844 16.746094 90.453125 15.539063 90.046875 16.027344 C 89.644531 16.515625 89.238281 17.003906 88.832031 17.488281 C 88.414063 17.996094 87.996094 18.5 87.578125 19.003906 C 87.316406 19.316406 87.039063 19.460938 87.539063 19.722656 C 88.375 19.304688 92.957031 27.070313 92.546875 28.183594 C 91.820313 28.558594 85.632813 23.128906 85.464844 22.769531 C 85.414063 22.625 85.738281 21.75 85.253906 21.824219 C 85.027344 21.859375 84.511719 22.71875 84.363281 22.894531 C 84.070313 23.253906 83.773438 23.609375 83.476563 23.96875 C 83.808594 24.453125 83.992188 23.945313 84.433594 24.011719 C 84.820313 24.089844 86.28125 25.34375 86.675781 25.675781 C 85.949219 25.703125 83.988281 25.804688 83.742188 25.789063 C 82.839844 25.898438 83.320313 25.125 82.726563 24.855469 C 81.964844 25.777344 81.207031 26.699219 80.449219 27.621094 C 80.007813 28.15625 79.5625 28.691406 79.125 29.226563 C 79.070313 29.292969 79.078125 29.257813 79.171875 29.339844 C 79.503906 29.613281 79.277344 29.507813 79.742188 29.34375 C 80.25 29.167969 86.300781 34.277344 86.515625 34.535156 C 86.894531 34.984375 86.363281 35.511719 86.929688 35.757813 C 87.527344 35.027344 88.125 34.300781 88.726563 33.570313 C 88.816406 33.464844 88.867188 33.472656 88.746094 33.375 C 88.320313 33.019531 88.269531 33.585938 87.746094 33.527344 C 87.210938 33.4375 83.347656 30.160156 81.847656 28.917969 C 83.671875 28.851563 89.140625 28.648438 90.046875 28.613281 C 90.347656 28.601563 91.1875 29.511719 91.113281 29.832031 C 91.035156 30.210938 90.652344 30.386719 91.171875 30.625 C 91.648438 30.050781 92.152344 29.476563 92.625 28.890625 L 92.851563 28.609375 C 92.929688 28.554688 93 28.464844 93.0625 28.34375 L 93.230469 28.132813 C 93.65625 27.648438 95.03125 26.128906 94.863281 25.980469 C 94.40625 25.582031 94.179688 26.449219 93.570313 25.929688 C 93.21875 25.679688 92.34375 24.140625 92.125 23.765625 C 91.859375 23.316406 92.730469 22.871094 93.089844 22.648438 C 93.863281 22.167969 96.335938 21.464844 96.570313 22.996094 C 96.609375 23.253906 96.300781 23.546875 96.484375 23.699219 C 96.53125 23.734375 96.691406 23.941406 96.757813 23.863281 C 96.921875 23.667969 99.117188 21.019531 100.058594 19.894531 C 99.960938 19.8125 99.851563 19.671875 99.734375 19.625 "/>
<path style=" stroke:none;fill-rule:nonzero;fill:rgb(100%,100%,100%);fill-opacity:1;" d="M 82.335938 39.605469 C 82.316406 39.625 82.3125 39.628906 82.308594 39.628906 C 81.078125 40.921875 78.953125 39.726563 77.804688 38.898438 C 76.65625 38.074219 74.695313 36.332031 75.949219 34.796875 C 77.007813 33.507813 79.074219 34.566406 80.140625 35.277344 C 81.339844 36.082031 83.550781 37.875 82.414063 39.496094 C 82.488281 39.40625 82.542969 39.347656 82.335938 39.605469 M 82.613281 32.992188 C 80.238281 31.011719 76.984375 31.585938 75.027344 33.824219 C 73.128906 36.136719 73.316406 39.488281 75.636719 41.4375 C 77.976563 43.363281 81.304688 42.875 83.207031 40.589844 C 85.105469 38.289063 84.976563 34.921875 82.613281 32.992188 "/>
<path style=" stroke:none;fill-rule:nonzero;fill:rgb(100%,100%,100%);fill-opacity:1;" d="M 82.613281 32.992188 C 83.789063 33.949219 82.363281 32.78125 82.613281 32.992188 "/>
<path style=" stroke:none;fill-rule:nonzero;fill:rgb(100%,100%,100%);fill-opacity:1;" d="M 82.308594 39.632813 C 82.316406 39.621094 82.324219 39.613281 82.332031 39.605469 C 82.363281 39.570313 82.390625 39.53125 82.414063 39.496094 C 82.363281 39.558594 82.304688 39.632813 82.308594 39.632813 "/>
<path style=" stroke:none;fill-rule:nonzero;fill:rgb(100%,100%,100%);fill-opacity:1;" d="M 74.707031 48.867188 C 74.464844 49.164063 74.664063 48.921875 74.042969 49.519531 C 73.734375 49.8125 67.601563 44.84375 67.851563 44.578125 C 68.683594 43.660156 70.417969 43.019531 71.425781 43.277344 C 73.613281 43.835938 76.640625 46.539063 74.707031 48.867188 M 76.023438 42.117188 C 76.136719 42.207031 76.296875 42.339844 75.960938 42.058594 C 73.125 39.929688 69.769531 40.554688 67.558594 43.214844 C 66.570313 44.402344 65.582031 45.59375 64.597656 46.78125 C 64.949219 47.292969 65.363281 46.664063 65.871094 46.957031 C 66.308594 47.207031 72.113281 52.058594 72.210938 52.320313 C 72.375 52.78125 71.957031 52.871094 72.355469 53.195313 C 72.527344 53.339844 76.890625 47.953125 77.289063 47.007813 C 77.980469 45.253906 77.429688 43.328125 76.023438 42.117188 "/>
<path style=" stroke:none;fill-rule:nonzero;fill:rgb(28.199768%,7.099915%,7.499695%);fill-opacity:1;" d="M 50.582031 57.472656 L 50.917969 57.0625 L 78.496094 24.777344 C 71.582031 25.726563 66.632813 30.851563 59.890625 29.730469 C 56.496094 29.167969 56.394531 27.21875 55.421875 25.277344 C 54.675781 23.78125 53.484375 23.972656 51.933594 23.367188 C 50.492188 22.800781 49.65625 21.628906 46.773438 22.304688 C 44.246094 22.898438 43.964844 26.824219 40.820313 26.597656 C 39.132813 26.476563 39.011719 24.101563 36.578125 21.058594 C 30.273438 13.488281 24.417969 14.535156 20.332031 21.535156 "/>
<path style=" stroke:none;fill-rule:nonzero;fill:rgb(13.299561%,66.299438%,87.799072%);fill-opacity:1;" d="M 46.558594 70.910156 L 50.582031 64.410156 L 54.582031 70.910156 L 50.582031 77.425781 Z M 46.558594 70.910156 "/>
<path style=" stroke:none;fill-rule:nonzero;fill:rgb(100%,100%,100%);fill-opacity:1;" d="M 23.28125 32.261719 C 23.792969 32.878906 24.171875 33.546875 24.085938 34.378906 C 24.027344 34.957031 23.148438 35.925781 23.816406 36.222656 C 24.5625 35.277344 25.308594 34.335938 26.058594 33.390625 C 25.457031 33.238281 20.691406 27.542969 20.613281 26.917969 C 19.5625 27.496094 18.507813 28.074219 17.457031 28.652344 C 17.621094 29.3125 18.75 28.65625 19.308594 28.695313 C 20.136719 28.757813 20.734375 29.257813 21.261719 29.847656 C 19.535156 31.296875 15.332031 34.867188 14.890625 34.9375 C 14.664063 34.976563 13.800781 34.339844 13.789063 34.882813 C 13.78125 35.144531 14.640625 35.898438 14.800781 36.09375 C 15.546875 36.976563 16.289063 37.863281 17.03125 38.746094 C 17.652344 38.464844 16.921875 38.015625 17.238281 37.503906 C 17.46875 37.128906 22.136719 33.234375 23.28125 32.261719 "/>
<path style=" stroke:none;fill-rule:nonzero;fill:rgb(100%,100%,100%);fill-opacity:1;" d="M 18.007813 25.28125 C 18.449219 25.1875 18.628906 25.714844 18.964844 25.226563 C 18.148438 24.253906 17.332031 23.28125 16.515625 22.308594 C 16.144531 21.867188 15.675781 21.390625 15.808594 22.328125 C 15.898438 22.957031 9.695313 27.988281 9.316406 28.144531 C 8.835938 28.34375 8.558594 27.730469 8.207031 28.242188 C 8.9375 29.113281 9.667969 29.980469 10.402344 30.851563 C 10.648438 31.144531 10.878906 31.464844 11.148438 31.734375 C 11.484375 32.070313 11.355469 31.0625 11.371094 31.148438 C 11.28125 30.636719 11.898438 30.199219 12.226563 29.921875 C 13.773438 28.558594 17.625 25.332031 18.007813 25.28125 "/>
<path style=" stroke:none;fill-rule:nonzero;fill:rgb(100%,100%,100%);fill-opacity:1;" d="M 9.234375 24.363281 C 7.46875 24.886719 5.585938 24.199219 5.027344 22.320313 C 4.484375 20.488281 5.644531 18.566406 7.097656 17.519531 C 8.539063 16.488281 10.6875 16.550781 11.472656 18.359375 C 11.820313 19.15625 11.628906 20.066406 11.378906 20.859375 C 11.21875 21.367188 10.78125 21.859375 11.433594 22.148438 C 12.292969 21.054688 13.15625 19.960938 14.015625 18.863281 C 12.960938 18.230469 12.496094 17.179688 11.714844 16.269531 C 10.832031 15.199219 9.652344 14.191406 8.234375 13.984375 C 5.363281 13.578125 2.660156 16.542969 2.4375 19.230469 C 2.300781 20.6875 2.8125 22.078125 3.683594 23.230469 C 4.433594 24.226563 5.550781 24.855469 6.121094 25.984375 C 6.382813 26.082031 8.824219 24.953125 9.40625 24.730469 C 9.355469 24.621094 9.316406 24.457031 9.234375 24.363281 C 8.472656 24.589844 9.234375 24.363281 9.234375 24.363281 "/>
<path style=" stroke:none;fill-rule:nonzero;fill:rgb(100%,100%,100%);fill-opacity:1;" d="M 48.535156 60.773438 C 47.386719 60.003906 44.511719 56.082031 43.960938 55.433594 C 43.855469 55.300781 43.742188 55.171875 43.632813 55.039063 C 43.621094 55.027344 43.347656 55.265625 43.386719 55.230469 C 43.214844 55.375 43.519531 55.804688 43.335938 56.09375 C 42.542969 57.335938 37.578125 61.078125 37.320313 61.257813 C 36.765625 61.640625 36.15625 61.097656 35.832031 61.574219 C 36.550781 62.429688 38.609375 65.117188 38.847656 65.15625 C 39.328125 65.234375 38.996094 64.339844 39.058594 64.15625 C 39.183594 63.785156 41.695313 61.710938 42.609375 60.945313 C 42.945313 60.664063 43.296875 61.371094 43.496094 61.667969 C 43.824219 62.152344 43.972656 62.667969 43.796875 63.234375 C 43.679688 63.605469 43.078125 64.15625 43.546875 64.410156 C 44.164063 63.6875 45.90625 61.65625 46.15625 61.359375 C 46.410156 61.066406 45.59375 61.324219 45.6875 61.273438 C 45.320313 61.464844 44.972656 61.507813 44.625 61.246094 C 44.53125 61.175781 43.535156 60.164063 43.636719 60.078125 C 44.066406 59.71875 44.59375 59.117188 45.152344 58.980469 C 46.015625 58.765625 46.734375 60.496094 46.863281 61.109375 C 46.984375 61.6875 46.964844 62.292969 46.785156 62.859375 C 46.660156 63.246094 46.300781 63.554688 46.804688 63.789063 C 47.515625 62.816406 48.226563 61.84375 48.933594 60.867188 C 48.789063 60.875 48.65625 60.84375 48.535156 60.773438 C 48.40625 60.6875 48.675781 60.84375 48.535156 60.773438 "/>
<path style=" stroke:none;fill-rule:nonzero;fill:rgb(100%,100%,100%);fill-opacity:1;" d="M 37.847656 51.890625 C 37.199219 53.398438 35.644531 54.953125 34.113281 55.554688 C 32.296875 56.269531 31.015625 54.730469 31.753906 53.003906 C 32.40625 51.488281 33.957031 49.945313 35.492188 49.335938 C 37.34375 48.601563 38.558594 50.183594 37.847656 51.890625 C 37.464844 52.777344 37.917969 51.71875 37.847656 51.890625 M 38.3125 56.640625 C 40.515625 54.785156 40.792969 51.589844 39.078125 49.304688 C 37.214844 46.8125 33.707031 46.207031 31.277344 48.25 C 29.074219 50.105469 28.785156 53.296875 30.519531 55.574219 C 32.507813 58.195313 35.71875 58.492188 38.3125 56.640625 C 39.46875 55.667969 38.210938 56.710938 38.3125 56.640625 "/>
<path style=" stroke:none;fill-rule:nonzero;fill:rgb(100%,100%,100%);fill-opacity:1;" d="M 31.867188 42.03125 C 32.34375 42.09375 32.792969 42.582031 33.136719 42.074219 C 32.394531 41.195313 31.652344 40.316406 30.90625 39.4375 C 30.3125 39.707031 30.957031 39.988281 30.714844 40.410156 C 30.46875 40.835938 28.15625 41.191406 27.539063 41.300781 C 27.761719 40.65625 28.433594 38.683594 28.695313 38.464844 C 29.238281 38.019531 29.578125 38.894531 29.976563 38.324219 C 29.0625 37.238281 28.148438 36.152344 27.234375 35.070313 C 26.925781 34.703125 26.675781 34.042969 26.253906 34.390625 C 26.292969 34.359375 26.261719 35.863281 26.164063 36.125 C 26.082031 36.359375 25.230469 39.761719 24.238281 40.59375 C 23.746094 41.007813 22.003906 42.527344 21.539063 42.691406 C 20.996094 42.878906 20.714844 42.09375 20.320313 42.652344 C 21.148438 43.636719 21.980469 44.625 22.808594 45.609375 C 22.933594 45.757813 23.410156 46.472656 23.578125 46.503906 C 24.097656 46.597656 23.636719 45.609375 23.6875 45.417969 C 23.839844 44.984375 26.1875 42.695313 27.1875 42.558594 C 28.648438 42.351563 30.386719 41.855469 31.867188 42.03125 C 32.207031 42.074219 31.515625 41.988281 31.867188 42.03125 "/>
<path style=" stroke:none;fill-rule:nonzero;fill:rgb(86.299133%,37.998962%,26.298523%);fill-opacity:1;" d="M 25.605469 22.871094 C 21.566406 22.703125 23.253906 18.914063 26.003906 18.0625 C 28.613281 17.25 34.089844 19.777344 35.84375 21.460938 C 33.0625 22.316406 29.460938 22.191406 26.398438 22.332031 C 26.171875 19.214844 25.441406 20.300781 25.605469 22.871094 "/>
<path style=" stroke:none;fill-rule:nonzero;fill:rgb(86.299133%,37.998962%,26.298523%);fill-opacity:1;" d="M 26.621094 27.71875 C 24.582031 26.140625 25.226563 22.453125 28.386719 23.574219 C 32.390625 25.65625 27.527344 26.8125 26.621094 27.71875 C 26.621094 27.71875 26.664063 27.679688 26.621094 27.71875 "/>
<path style=" stroke:none;fill-rule:nonzero;fill:rgb(86.299133%,37.998962%,26.298523%);fill-opacity:1;" d="M 35.109375 35.417969 C 26.488281 35.347656 32.320313 22.097656 35.25 22.898438 C 38.625 23.972656 38.246094 35.519531 35.109375 35.417969 "/>
<path style=" stroke:none;fill-rule:nonzero;fill:rgb(86.299133%,37.998962%,26.298523%);fill-opacity:1;" d="M 41.214844 31.089844 C 40.375 33.589844 38.855469 34.058594 39.023438 31.019531 C 39.21875 27.515625 41.503906 28.359375 43.953125 27.015625 C 45.992188 25.898438 47.09375 21.800781 50.59375 24.25 C 52.15625 25.34375 53.945313 24.429688 54.445313 26.082031 C 54.421875 26 49.902344 36.390625 52.414063 36.390625 C 47.453125 36.390625 49.644531 30.46875 51.539063 26.492188 C 49.695313 27.378906 46.699219 33.179688 49.160156 34.136719 C 47.878906 35.820313 43.964844 38.082031 41.925781 36.433594 C 40.371094 35.183594 41.234375 33.109375 41.214844 31.089844 "/>
<path style=" stroke:none;fill-rule:nonzero;fill:rgb(86.299133%,37.998962%,26.298523%);fill-opacity:1;" d="M 45.320313 40.691406 C 41.832031 41.738281 37.199219 39.484375 42.808594 38.351563 C 46.292969 37.648438 49.996094 39.128906 45.320313 40.691406 C 45.460938 40.652344 45.191406 40.734375 45.320313 40.691406 "/>
<path style=" stroke:none;fill-rule:nonzero;fill:rgb(86.299133%,37.998962%,26.298523%);fill-opacity:1;" d="M 49.691406 40.550781 C 48.953125 38.894531 50.253906 36.917969 52.371094 38.351563 C 54.214844 39.605469 51.519531 41.460938 49.691406 40.550781 "/>
<path style=" stroke:none;fill-rule:nonzero;fill:rgb(86.299133%,37.998962%,26.298523%);fill-opacity:1;" d="M 46.742188 45.21875 C 44.332031 44.472656 36.207031 44.660156 41.527344 42.457031 C 43.164063 41.777344 51.679688 42.554688 46.742188 45.21875 "/>
<path style=" stroke:none;fill-rule:nonzero;fill:rgb(86.299133%,37.998962%,26.298523%);fill-opacity:1;" d="M 49.960938 44.867188 C 49.953125 43.90625 49.445313 42.1875 51.3125 42.921875 C 53.546875 43.800781 49.960938 45.570313 49.960938 44.867188 C 49.960938 44.867188 49.960938 44.699219 49.960938 44.867188 "/>
<path style=" stroke:none;fill-rule:nonzero;fill:rgb(86.299133%,37.998962%,26.298523%);fill-opacity:1;" d="M 57.175781 48.535156 C 55.742188 47.308594 54.285156 47.238281 52.949219 48.535156 C 51.15625 45.242188 44.632813 46.34375 41.582031 45.882813 C 43.222656 49.910156 56.449219 50.664063 57.175781 48.535156 "/>
<path style=" stroke:none;fill-rule:nonzero;fill:rgb(86.299133%,37.998962%,26.298523%);fill-opacity:1;" d="M 55.277344 50.957031 C 52.125 50.8125 48.605469 50.394531 45.628906 51.042969 C 47.488281 51.507813 52.027344 52.835938 47.800781 53.960938 C 49.316406 56.128906 51.773438 55.988281 53.382813 54.085938 C 52.730469 53.765625 52.375 53.367188 51.832031 53.03125 C 53.503906 52.726563 55.066406 51.761719 55.277344 50.957031 "/>
<path style=" stroke:none;fill-rule:nonzero;fill:rgb(86.299133%,37.998962%,26.298523%);fill-opacity:1;" d="M 58.871094 47.082031 C 53.582031 43.96875 54.921875 41.652344 59.226563 39.496094 C 61.480469 38.363281 66.550781 34.285156 68.671875 35.644531 C 65.402344 39.457031 62.136719 43.269531 58.871094 47.082031 "/>
<path style=" stroke:none;fill-rule:nonzero;fill:rgb(95.698547%,58.799744%,45.498657%);fill-opacity:1;" d="M 55.105469 39.804688 C 50.628906 35.203125 61.792969 35.628906 63.59375 34.007813 C 64.90625 34.445313 74.359375 25.726563 76.664063 26.269531 C 75.007813 28.210938 71.445313 34.402344 68.890625 34.402344 C 66.925781 34.402344 64.941406 34.113281 63.417969 35.511719 C 61.195313 37.558594 57.507813 38.601563 55.105469 39.804688 "/>
<path style=" stroke:none;fill-rule:nonzero;fill:rgb(95.698547%,68.998718%,63.899231%);fill-opacity:1;" d="M 56.574219 34.179688 C 54.121094 35.5 51.800781 30.273438 56.035156 30.78125 C 58.847656 31.117188 61.699219 30.542969 64.382813 31.007813 C 62.457031 33.296875 59.675781 34.558594 56.574219 34.179688 "/>
<path style=" stroke:none;fill-rule:nonzero;fill:rgb(100%,100%,100%);fill-opacity:1;" d="M 69.207031 52.460938 C 69.394531 53.109375 69.503906 53.792969 69.417969 54.472656 C 69.3125 55.34375 68.441406 57.394531 67.246094 56.8125 C 66.078125 56.238281 65.054688 55.082031 64.058594 54.257813 C 64.859375 53.324219 65.566406 52.511719 66.914063 52.964844 C 67.28125 53.085938 67.601563 52.929688 67.210938 52.703125 C 66.808594 52.46875 64.097656 50.738281 63.953125 50.902344 C 63.679688 51.214844 64.480469 51.769531 64.171875 52.375 C 63.941406 52.824219 63.5625 53.210938 63.238281 53.59375 C 62.519531 52.988281 61.316406 52.34375 62.183594 51.339844 C 62.726563 50.679688 63.433594 50.167969 64.28125 49.996094 C 64.847656 49.882813 66.121094 50.386719 66.285156 49.773438 C 65.199219 49.25 64.113281 48.730469 63.03125 48.207031 C 63.207031 49.007813 59.679688 52.734375 58.898438 53.671875 C 58.785156 53.808594 58.238281 54.28125 58.234375 54.46875 C 58.226563 54.898438 58.855469 54.566406 58.890625 54.554688 C 59.378906 54.371094 65.707031 59.660156 65.863281 60.023438 C 65.964844 60.304688 65.644531 60.597656 65.835938 60.753906 C 65.824219 60.746094 66.0625 60.972656 66.089844 60.941406 C 66.480469 60.472656 70.609375 54.964844 71.460938 54.722656 C 70.667969 53.507813 69.875 52.292969 69.09375 51.070313 C 68.503906 51.328125 69.074219 52.019531 69.207031 52.460938 "/>
<path style=" stroke:none;fill-rule:nonzero;fill:rgb(100%,100%,100%);fill-opacity:1;" d="M 63.042969 59.164063 C 60.96875 57.824219 57.449219 60.445313 56.917969 60.695313 C 55.878906 61.1875 55.128906 60.152344 55.667969 59.195313 C 56.136719 58.363281 57.0625 57.960938 57.980469 57.90625 C 58.253906 57.886719 59.328125 58.101563 59.4375 57.929688 C 59.566406 57.726563 59.664063 57.710938 59.480469 57.585938 C 58.621094 57.007813 57.769531 56.429688 56.910156 55.851563 C 56.734375 56.90625 55.527344 57.578125 54.835938 58.292969 C 54.015625 59.144531 53.316406 60.222656 53.316406 61.449219 C 53.316406 62.582031 53.996094 63.589844 54.992188 64.109375 C 56.128906 64.699219 57.3125 64.226563 58.316406 63.597656 C 58.945313 63.207031 59.570313 62.742188 60.242188 62.425781 C 61.238281 61.960938 62.542969 62.363281 62.195313 63.695313 C 61.910156 64.769531 60.84375 65.757813 59.789063 66.035156 C 59.171875 66.199219 58.519531 66.144531 57.917969 65.945313 C 57.484375 65.804688 56.921875 65.210938 56.6875 65.835938 C 57.847656 66.683594 59.007813 67.527344 60.167969 68.371094 C 60.273438 67.613281 60.691406 67.28125 61.253906 66.808594 C 61.988281 66.164063 62.691406 65.488281 63.25 64.679688 C 64.40625 62.984375 64.785156 60.617188 63.042969 59.164063 "/>
<path style=" stroke:none;fill-rule:nonzero;fill:rgb(100%,100%,100%);fill-opacity:1;" d="M 63.042969 59.164063 C 63.96875 59.761719 62.453125 58.671875 63.042969 59.164063 "/>
<path style=" stroke:none;fill-rule:nonzero;fill:rgb(100%,100%,100%);fill-opacity:1;" d="M 92.277344 21.851563 C 92.269531 21.855469 92.269531 21.855469 92.277344 21.851563 "/>
<path style=" stroke:none;fill-rule:nonzero;fill:rgb(100%,100%,100%);fill-opacity:1;" d="M 92.359375 21.796875 C 92.4375 21.746094 92.515625 21.699219 92.359375 21.796875 C 92.308594 21.828125 92.285156 21.84375 92.277344 21.851563 C 92.292969 21.84375 92.324219 21.820313 92.359375 21.796875 C 92.015625 22.019531 91.691406 22.273438 91.402344 22.558594 C 90.878906 21.664063 90.355469 20.765625 89.835938 19.867188 C 91.015625 20.359375 92.191406 20.851563 93.359375 21.347656 C 93.007813 21.445313 92.671875 21.601563 92.359375 21.796875 M 99.734375 19.640625 C 99.007813 20.371094 91.316406 17.300781 90.753906 16.875 C 90.464844 16.761719 90.453125 15.554688 90.046875 16.042969 C 89.644531 16.53125 89.238281 17.019531 88.832031 17.507813 C 88.414063 18.011719 87.996094 18.515625 87.578125 19.019531 C 87.316406 19.332031 87.039063 19.476563 87.539063 19.738281 C 88.375 19.320313 92.957031 27.085938 92.546875 28.199219 C 91.820313 28.578125 85.632813 23.144531 85.464844 22.785156 C 85.414063 22.640625 85.738281 21.765625 85.253906 21.839844 C 85.027344 21.875 84.511719 22.738281 84.363281 22.914063 C 84.070313 23.269531 83.773438 23.628906 83.476563 23.984375 C 83.808594 24.46875 83.992188 23.964844 84.433594 24.027344 C 84.820313 24.105469 86.28125 25.359375 86.675781 25.691406 C 85.953125 25.71875 83.992188 25.820313 83.742188 25.804688 C 82.839844 25.914063 83.320313 25.140625 82.726563 24.871094 C 81.96875 25.792969 81.207031 26.714844 80.449219 27.636719 C 80.007813 28.171875 79.566406 28.707031 79.125 29.242188 C 79.070313 29.308594 79.078125 29.277344 79.171875 29.355469 C 79.503906 29.628906 79.277344 29.523438 79.742188 29.363281 C 80.25 29.183594 86.300781 34.292969 86.519531 34.550781 C 86.894531 35 86.363281 35.527344 86.929688 35.773438 C 87.53125 35.042969 88.128906 34.316406 88.726563 33.589844 C 88.820313 33.480469 88.867188 33.488281 88.75 33.390625 C 88.320313 33.039063 88.273438 33.601563 87.746094 33.542969 C 87.214844 33.457031 83.351563 30.175781 81.851563 28.933594 C 83.671875 28.867188 89.140625 28.664063 90.050781 28.628906 C 90.351563 28.621094 91.191406 29.527344 91.117188 29.847656 C 91.035156 30.226563 90.65625 30.40625 91.171875 30.640625 C 91.652344 30.066406 92.15625 29.492188 92.628906 28.90625 L 92.855469 28.625 C 92.929688 28.574219 93 28.480469 93.066406 28.359375 L 93.234375 28.148438 C 93.65625 27.664063 95.03125 26.144531 94.867188 26 C 94.40625 25.597656 94.183594 26.464844 93.570313 25.945313 C 93.222656 25.695313 92.347656 24.15625 92.128906 23.78125 C 91.863281 23.332031 92.734375 22.886719 93.089844 22.664063 C 93.867188 22.183594 96.339844 21.480469 96.574219 23.011719 C 96.613281 23.269531 96.300781 23.5625 96.488281 23.714844 C 96.53125 23.753906 96.695313 23.957031 96.757813 23.878906 C 96.921875 23.683594 99.121094 21.035156 100.058594 19.910156 C 99.960938 19.828125 99.851563 19.6875 99.734375 19.640625 "/>
<path style=" stroke:none;fill-rule:nonzero;fill:rgb(100%,100%,100%);fill-opacity:1;" d="M 82.335938 39.621094 C 82.316406 39.640625 82.3125 39.648438 82.308594 39.648438 C 81.078125 40.941406 78.953125 39.746094 77.804688 38.917969 C 76.65625 38.089844 74.691406 36.347656 75.949219 34.8125 C 77.003906 33.527344 79.070313 34.582031 80.140625 35.296875 C 81.339844 36.097656 83.550781 37.890625 82.414063 39.511719 C 82.488281 39.421875 82.539063 39.363281 82.335938 39.621094 M 82.617188 33.007813 C 80.242188 31.027344 76.984375 31.605469 75.03125 33.839844 C 73.128906 36.152344 73.316406 39.503906 75.636719 41.453125 C 77.976563 43.382813 81.304688 42.894531 83.207031 40.609375 C 85.105469 38.304688 84.976563 34.941406 82.617188 33.007813 "/>
<path style=" stroke:none;fill-rule:nonzero;fill:rgb(100%,100%,100%);fill-opacity:1;" d="M 82.617188 33.007813 C 83.785156 33.96875 82.363281 32.796875 82.617188 33.007813 "/>
<path style=" stroke:none;fill-rule:nonzero;fill:rgb(100%,100%,100%);fill-opacity:1;" d="M 82.308594 39.648438 C 82.316406 39.640625 82.324219 39.628906 82.332031 39.621094 C 82.363281 39.585938 82.390625 39.546875 82.414063 39.511719 C 82.363281 39.574219 82.300781 39.648438 82.308594 39.648438 "/>
<path style=" stroke:none;fill-rule:nonzero;fill:rgb(100%,100%,100%);fill-opacity:1;" d="M 74.707031 48.886719 C 74.464844 49.183594 74.660156 48.941406 74.039063 49.535156 C 73.734375 49.828125 67.601563 44.859375 67.851563 44.59375 C 68.683594 43.675781 70.414063 43.035156 71.425781 43.296875 C 73.617188 43.855469 76.640625 46.554688 74.707031 48.886719 M 76.023438 42.132813 C 76.136719 42.226563 76.296875 42.355469 75.960938 42.074219 C 73.125 39.949219 69.769531 40.570313 67.558594 43.230469 C 66.570313 44.421875 65.582031 45.609375 64.597656 46.800781 C 64.949219 47.3125 65.359375 46.679688 65.871094 46.976563 C 66.308594 47.226563 72.113281 52.074219 72.210938 52.339844 C 72.375 52.800781 71.957031 52.890625 72.355469 53.214844 C 72.527344 53.359375 76.890625 47.972656 77.289063 47.023438 C 77.980469 45.269531 77.429688 43.347656 76.023438 42.132813 "/>
</g>
</svg>
