<?xml version="1.0" encoding="UTF-8"?>
<svg xmlns="http://www.w3.org/2000/svg" xmlns:xlink="http://www.w3.org/1999/xlink" width="16pt" height="12pt" viewBox="0 0 16 12" version="1.1">
<g id="surface1">
<path style=" stroke:none;fill-rule:nonzero;" d="M 15 0 L 1 0 C 0.449219 0 0 0.449219 0 1 L 0 1.757813 L 8 5.960938 L 16 1.757813 L 16 1 C 16 0.449219 15.550781 0 15 0 M 8 8 C 7.734375 8 7.5 7.90625 7 7.664063 L 0 4 L 0 11 C 0 11.550781 0.449219 12 1 12 L 15 12 C 15.550781 12 16 11.550781 16 11 L 16 4 L 9 7.664063 C 8.5 7.90625 8.265625 8 8 8 "/>
</g>
</svg>
