<?xml version="1.0" encoding="UTF-8"?>
<svg xmlns="http://www.w3.org/2000/svg" xmlns:xlink="http://www.w3.org/1999/xlink" width="18pt" height="18pt" viewBox="0 0 18 18" version="1.1">
<g id="surface1">
<path style=" stroke:none;fill-rule:nonzero;" d="M 3.601563 7.800781 C 5 10.601563 7.398438 12.902344 10.199219 14.402344 L 12.398438 12.199219 C 12.699219 11.902344 13.101563 11.800781 13.398438 12 C 14.5 12.402344 15.699219 12.601563 17 12.601563 C 17.601563 12.601563 18 13 18 13.601563 L 18 17 C 18 17.601563 17.601563 18 17 18 C 7.601563 18 0 10.402344 0 1 C 0 0.398438 0.398438 0 1 0 L 4.5 0 C 5.101563 0 5.5 0.398438 5.5 1 C 5.5 2.199219 5.699219 3.398438 6.101563 4.597656 C 6.199219 4.898438 6.101563 5.300781 5.898438 5.597656 "/>
</g>
</svg>
