<?xml version="1.0" encoding="UTF-8"?>
<svg xmlns="http://www.w3.org/2000/svg" xmlns:xlink="http://www.w3.org/1999/xlink" width="17.5pt" height="14.66pt" viewBox="0 0 17.5 14.66" version="1.1">
<g id="surface1">
<path style=" stroke:none;fill-rule:nonzero;fill:rgb(0%,0%,0%);fill-opacity:1;" d="M 11.28125 0.148438 C 13.019531 -0.332031 14.355469 0.414063 14.96875 1.300781 C 15.660156 1.074219 16.339844 0.832031 17.039063 0.609375 C 17.035156 1.449219 16.503906 2.089844 16.15625 2.339844 C 16.859375 2.503906 17.5 1.855469 17.5 1.855469 C 17.324219 2.835938 16.464844 3.601563 15.886719 3.835938 C 15.652344 10.425781 12.617188 14.789063 5.507813 14.65625 L 5.046875 14.65625 C 4.625 14.65625 0.757813 14.207031 0 12.8125 C 2.339844 13.007813 4.011719 12.402344 4.835938 11.664063 C 3.847656 11.371094 2.074219 11.199219 1.765625 8.785156 C 2.128906 8.886719 2.347656 9.007813 2.992188 8.898438 C 1.757813 8.0625 0.386719 7.363281 0.460938 5.214844 C 0.753906 5.535156 1.5625 5.738281 1.84375 5.675781 C 1.117188 5.441406 -0.1875 2.394531 0.921875 0.839844 C 2.792969 2.652344 4.769531 4.359375 8.289063 4.523438 C 8.507813 2.285156 9.460938 0.785156 11.28125 0.148438 "/>
</g>
</svg>
